<svg width="6180" height="4100" viewBox="0 0 6180 4100" fill="none" xmlns="http://www.w3.org/2000/svg">
<path d="M6180 0H0V4100H6180V0Z" fill="#FAFAFA"/>
<path d="M1583 2076C1845.34 2076 2058 1863.34 2058 1601C2058 1338.66 1845.34 1126 1583 1126C1320.66 1126 1108 1338.66 1108 1601C1108 1863.34 1320.66 2076 1583 2076Z" fill="#E5EACD"/>
<path fill-rule="evenodd" clip-rule="evenodd" d="M1815.53 1750.7C1814.19 1772.62 1812.85 1794.54 1811.51 1816.46C1820.14 1813.98 1875.03 1797.83 1871.64 1814.2C1869.21 1825.95 1853.77 1838.65 1845.91 1846.83C1838.67 1854.36 1831.22 1861.69 1823.58 1868.8C1837.63 1863.43 1851.79 1858.34 1866.05 1853.58C1876.85 1849.97 1887.72 1846.45 1898.78 1843.75C1902.89 1842.75 1913.97 1838.66 1917.85 1841.45C1928.04 1848.78 1872.74 1902.8 1865.17 1910.41C1875.88 1905.43 1886.85 1900.9 1898 1897.02C1906.05 1894.22 1930.94 1883.51 1938.06 1892.65C1945.69 1902.44 1926.79 1924.91 1921.55 1932.04C1914.04 1942.25 1905.9 1952.04 1897.37 1961.41C1932.86 1993.28 1974.56 2021.65 2018.94 2039.28C2051.49 2052.21 2083.45 2055.5 2117.79 2048.4C2153.07 2041.11 2186.9 2027.13 2219.06 2011.15C2237.95 2001.77 2256.59 1991.61 2274.35 1980.2C2267.03 1971.3 2259.92 1962.21 2253.02 1952.98C2243.16 1939.81 2231.05 1925.41 2225.43 1909.73C2219.93 1894.38 2240.56 1897.37 2250.46 1898.21C2264.79 1899.42 2279.08 1901.98 2293.13 1905.04C2283.2 1898.13 2273.45 1890.95 2263.89 1883.54C2251.44 1873.87 2234.83 1862.94 2226.67 1849.04C2219.51 1836.81 2235.24 1839.9 2242.51 1841.5C2259.86 1845.32 2276.73 1851.83 2293.28 1858.18C2305.39 1862.83 2317.43 1867.7 2329.35 1872.83C2321.95 1866.4 2314.8 1859.66 2307.93 1852.67C2298.68 1843.28 2286.22 1831.8 2282.08 1818.87C2273.65 1792.53 2330.4 1812.4 2340.09 1816.46C2338.29 1789.17 2336.51 1761.88 2334.72 1734.59C2259.57 1754.59 2184.43 1774.58 2109.28 1794.57C2101.16 1796.73 2091 1801.44 2082.53 1801.69C2074.85 1801.92 2065.59 1798.47 2058.11 1797.04L1922.12 1771.06C1886.59 1764.27 1851.06 1757.49 1815.53 1750.7Z" fill="#6B7A5E"/>
<path fill-rule="evenodd" clip-rule="evenodd" d="M2623.19 2689.33C2615.08 2693.97 2605.58 2697.55 2596.56 2699.96C2591.27 2701.37 2582.52 2705.73 2577.87 2701.73C2575.64 2699.81 2575.13 2695.45 2573.81 2692.93C2571.73 2688.93 2568.76 2685.47 2565.99 2681.93C2559.26 2673.37 2552.26 2665.1 2544.93 2657.04C2541.46 2653.22 2535.12 2644.3 2529 2644.89C2521.38 2645.62 2521.56 2656.17 2523.47 2661.56C2529.55 2678.72 2547.97 2693.68 2560 2706.61C2556.94 2711.32 2540.14 2710.76 2535.48 2709.66C2528.36 2707.98 2527.64 2702.91 2524.39 2697.11C2516.79 2683.55 2501.36 2675.97 2488.69 2668C2484.07 2665.1 2474.24 2657.04 2468.22 2659.07C2462.51 2660.99 2462.76 2668.28 2464.58 2673.04C2467.32 2680.24 2475.14 2685.23 2480.91 2689.78C2488.62 2695.84 2495.66 2702.43 2502.08 2709.85C2492.83 2710.61 2483.61 2711.91 2474.38 2712.67C2463.21 2713.59 2453.91 2707.47 2443.63 2704C2434.09 2700.77 2424.57 2698.04 2415.18 2694.33C2404.64 2690.15 2393.6 2688.7 2382.96 2685.04C2341.23 2670.67 2300.34 2652.59 2260.12 2634.37C2240.96 2625.69 2222.19 2617 2202.23 2610.21C2187.67 2605.26 2164.81 2595.39 2161.33 2578.06C2159.49 2568.9 2166.18 2559.05 2167.17 2549.91C2168.33 2539.14 2167.42 2527.3 2164.14 2516.97C2161.25 2507.88 2156.46 2499.45 2152.68 2490.72C2148.28 2480.54 2152.22 2480.7 2160.76 2479.55C2170.99 2478.16 2182.92 2472.4 2192.53 2468.66C2203.61 2464.34 2214.58 2458.3 2224.72 2452.1C2233.89 2446.48 2241.88 2439.25 2249.18 2431.39C2256.6 2423.4 2261.41 2413.93 2268.59 2405.74C2295.1 2438.33 2320.29 2471.41 2348.45 2502.59C2361.74 2517.31 2376.2 2529.48 2392.58 2540.67C2399.42 2545.35 2406.2 2550.68 2413.65 2554.38C2422.97 2559 2433.39 2561.87 2442.97 2566.09C2479.69 2582.27 2514.74 2599.95 2549 2620.83C2565.57 2630.93 2579.48 2642.5 2594.08 2655.17C2598.62 2659.11 2635.83 2682.1 2623.19 2689.33ZM2192.41 2422.34C2186.47 2425.03 2180.81 2428.52 2174.48 2430.25C2176.28 2419.33 2186.47 2402.86 2199.53 2404.67C2204.53 2405.36 2208.29 2409.24 2206.1 2414.58C2204.11 2419.44 2196.63 2420.43 2192.41 2422.34ZM1779.33 2126.17C1772.6 2129.89 1766.33 2132.05 1762.39 2124.08C1765.31 2123.49 1778.58 2121.73 1779.33 2126.17ZM1768.13 2103.64C1762.93 2102.06 1767.08 2100.4 1768.87 2098.5C1770.27 2097.02 1774.88 2091.83 1776.5 2090.97C1783.63 2087.19 1789.14 2101.25 1792.55 2105.81C1784.48 2105.09 1775.99 2106.02 1768.13 2103.64ZM1823.72 2152.3C1813.86 2153.97 1814.96 2141.64 1815.25 2135.4C1817.33 2137.93 1831.4 2151 1823.72 2152.3ZM1856.37 2131.01C1844.36 2133.04 1836.42 2112.28 1838.57 2103.2C1840.47 2095.21 1849.78 2090.74 1857.19 2089.56C1864.38 2088.42 1874.38 2089.98 1876.51 2098.26C1878.4 2105.58 1864.38 2129.66 1856.37 2131.01ZM2140.77 2444.31C2132.13 2446.96 2123.67 2447.29 2115 2449.9C2105.15 2452.85 2096.04 2452.59 2086.17 2454.6C2082.16 2455.42 2071.33 2461.26 2067.42 2459.96C2063.54 2458.66 2057.93 2446.63 2055.7 2443.5C2073.15 2436.25 2088.04 2426.88 2099.55 2411.6C2108.7 2399.44 2118.51 2381.23 2112.75 2365.54C2106.26 2347.85 2083.88 2344.01 2068.97 2351.4C2061.91 2354.89 2054.91 2359.24 2049.09 2364.56C2042.44 2370.65 2039.82 2377.3 2035.51 2384.8C2031.15 2392.4 2028.1 2388.17 2023.74 2381.72C2020.02 2376.21 2020.51 2370.65 2015.85 2365.21C2013.48 2362.44 2009.81 2359.76 2008.57 2356.17C2007.78 2353.9 2009.44 2349.87 2007.95 2348.08C2005.85 2345.57 2003.31 2348.53 2001.55 2346.28C2000.28 2344.65 2000.69 2340.93 1999.38 2338.9C1998.24 2337.74 1996.97 2336.75 1995.56 2335.92C1993.86 2335.08 1993.55 2334.03 1994.63 2332.77C1993.27 2330.26 1994.58 2329.41 1991.68 2326.36C1987.16 2321.61 1983.04 2317.05 1979.82 2311.44C1978.35 2308.87 1978.49 2305.07 1976.66 2302.84C1974.16 2299.79 1969.98 2300.25 1967.82 2296.47C1965.9 2293.11 1967.19 2287.22 1964.02 2284.16C1962.35 2283.69 1960.68 2283.22 1959.01 2282.76C1957.75 2281.53 1957.02 2280.05 1956.81 2278.31C1955.05 2275.6 1954.7 2272.42 1952.48 2269.56C1948.23 2264.09 1942.51 2259.03 1938.75 2253.26C1934.81 2247.2 1936.9 2246.18 1943.76 2244.01C1949.94 2242.05 1955.59 2240.23 1961.32 2236.9C1987.82 2221.48 2012.94 2180.58 1970.88 2168.08C1955.27 2163.45 1942.45 2150.98 1925.14 2155.88C1917.64 2158 1910.52 2162.53 1904.92 2167.89C1901.06 2171.61 1897.47 2181.53 1892.73 2183.43C1884.19 2186.85 1887.8 2178.31 1885.38 2174.39C1884.22 2172.52 1879.56 2170.36 1877.84 2168.65C1875.81 2166.66 1873.85 2164.13 1872.45 2161.66C1869.83 2157.07 1868.24 2154.52 1864.47 2150.78C1863.05 2149.37 1855.97 2142.09 1862.36 2143.04C1859.77 2135.15 1863.55 2133.97 1868.77 2128.2C1874.9 2121.44 1881.23 2112.03 1881.26 2102.55C1881.33 2084.35 1859.76 2076.2 1846.21 2087C1843.46 2089.2 1827.15 2110.42 1830.49 2096.89C1832.28 2089.59 1848.94 2070.53 1856.66 2075.46C1848.01 2062.85 1828.13 2093.47 1823.49 2099.73C1819.54 2092.46 1819.26 2086.77 1812.72 2081.14C1807.4 2089.68 1810.21 2080.35 1809.04 2078.45C1806.5 2074.36 1807.9 2079.04 1806.52 2077.59C1804.81 2075.78 1802.11 2074.35 1800.29 2071.95C1797.17 2076.18 1798.42 2071.63 1797.46 2070.05C1795.23 2066.35 1796.09 2064.21 1792.26 2061C1789.48 2058.66 1783.99 2055.03 1780.23 2054.7C1775.91 2054.31 1774.71 2055.97 1770.3 2054.74C1764.7 2053.19 1757.64 2050.79 1760.35 2060.17C1762.32 2066.98 1770.34 2070.85 1772.09 2077.82C1773.86 2084.82 1766.93 2091.89 1763.57 2097.63C1759.25 2105 1755.72 2104.4 1747.9 2106.06C1742.9 2107.12 1736.23 2109.4 1740.51 2115.46C1743.57 2119.79 1750.75 2118.88 1754.79 2121.44C1760.46 2125.04 1760.38 2133.91 1767.61 2135.46C1775.58 2137.15 1780.14 2128.29 1786.86 2126.14C1791.64 2124.62 1806.43 2124.79 1810.19 2128.38C1815.31 2133.26 1810.89 2142.6 1812.18 2148.67C1814.09 2157.67 1820.19 2158.22 1827.89 2158.5C1837.37 2158.86 1840.7 2167.96 1845.8 2175.18C1857.75 2192.1 1868.13 2210.12 1880.36 2226.81C1885.78 2234.2 1893.7 2240.77 1898.14 2248.79C1903.61 2258.7 1896.01 2264.41 1889.45 2271.52C1880.88 2280.81 1874.48 2291.38 1867.04 2301.53C1860.43 2310.55 1852.22 2308.3 1841.66 2308.3C1844.02 2303.45 1846.85 2300.43 1852.64 2301.02C1846.58 2293.63 1841.74 2302.08 1837.81 2306.76C1832.13 2313.54 1824.73 2315.17 1817.43 2319.62C1814.85 2321.2 1800.79 2331.41 1805.06 2334.9C1805.55 2335.29 1828.82 2319.98 1831.47 2318.58C1831.47 2324.23 1830.24 2330.1 1831.03 2335.72C1831.61 2339.84 1834.51 2344.14 1833.89 2348.43C1832.72 2356.51 1822.26 2362.89 1817.78 2369.19C1814.4 2373.93 1815.21 2377.67 1813.49 2382.76C1811.93 2387.41 1812.75 2386 1808.84 2387.44C1800.89 2390.36 1787.5 2388.78 1780.29 2384.63C1775.82 2382.05 1772.39 2377.98 1768.76 2374.38C1766.02 2371.68 1759.14 2367.05 1758.38 2363.26C1757.07 2356.74 1770.03 2344.62 1772.59 2337.89C1779.83 2318.9 1767.41 2304.13 1748.09 2303.05C1754.05 2298.46 1761.43 2301.92 1767.71 2303.68C1756.98 2288.81 1738.65 2301.04 1729.55 2311.14C1723.33 2295.43 1720.33 2278.85 1716.53 2262.45C1713.94 2251.29 1704.09 2231.37 1708.49 2219.88C1710.61 2214.32 1716.61 2211.23 1720.75 2207.37C1725.47 2203 1729.5 2197.76 1732.95 2192.34C1741.07 2179.58 1745.75 2163.47 1734.58 2150.89C1737.97 2150.33 1741.37 2149.77 1744.77 2149.21C1739.24 2144.02 1730.53 2146.55 1723.36 2145.01C1718.81 2144.04 1705.72 2144.67 1702.68 2142.09C1699.03 2139 1701.37 2124.76 1701.5 2120.55C1701.8 2110.7 1702.63 2101.23 1703.72 2091.44C1704.75 2082.19 1704.54 2072.2 1706.45 2063.12C1708 2055.74 1712.96 2053.5 1718.68 2049.15C1732.36 2038.76 1743.5 2026.13 1738.83 2008.22C1740.48 2007.96 1742.14 2007.7 1743.79 2007.44C1738.44 2003.57 1731.52 2004.97 1725.57 2002.93C1731.03 1987.55 1743.12 1960.51 1762.75 1959.06C1763.42 1965.93 1762.96 1974.11 1767.6 1979.8C1772.88 1986.28 1782.15 1986.93 1789.31 1983.5C1795.8 1980.39 1801.89 1973.79 1804.89 1967.28C1806.91 1962.87 1806.54 1955.41 1810.1 1951.91C1814.86 1947.22 1847.72 1950.05 1846.72 1957.96C1846.12 1962.62 1837.34 1970.44 1834.88 1974.57C1830.39 1982.12 1826.79 1990.28 1825.14 1998.95C1822.63 2012.12 1824.08 2029.5 1837.46 2036.42C1852.67 2044.3 1871.2 2034.28 1883.67 2025.63C1890.52 2020.88 1897.16 2015.64 1903.41 2010.14C1906.75 2007.21 1910.09 2004.19 1913.03 2000.86C1915.2 1998.4 1916.93 1994.44 1919.6 1992.6C1925.91 1988.25 1932.09 1995.63 1937.43 1999.35C1946.12 2005.43 1954.77 2011.19 1964.1 2016.25C1983.04 2026.5 2000.35 2040.09 2017.09 2053.58C2033.93 2067.14 2051.29 2081.1 2064.93 2098C2056.67 2103.09 2058.14 2104.41 2054.47 2113.47C2051.86 2119.9 2048.27 2125.38 2047.85 2132.52C2047.14 2144.86 2055.05 2155.37 2067.07 2158.1C2073.8 2159.63 2080.2 2158.4 2086.43 2155.66C2091.27 2153.52 2096.09 2148.26 2101.15 2146.96C2110.55 2144.53 2118.07 2162.29 2123.34 2168.54C2146.74 2196.32 2171.48 2223 2193.52 2251.91C2195.96 2255.11 2203.21 2261.37 2203.8 2265.61C2204.64 2271.69 2195.06 2277.49 2191.09 2280.99C2189 2282.82 2166.88 2303.63 2174.31 2306.93C2176.42 2307.88 2182.62 2295.11 2184.17 2294.02C2189.98 2289.93 2185.59 2297.94 2185.24 2301.99C2184.38 2312.06 2191.29 2317.55 2201.02 2316.27C2211.39 2314.91 2220.63 2306.72 2227.05 2298.99C2235.09 2308.3 2247.67 2322.39 2250 2334.83C2251.48 2342.78 2244.6 2362.24 2257.45 2363.87C2259.41 2364.11 2266.5 2358.85 2267.83 2361.84C2268.93 2364.33 2261.26 2368.6 2260.15 2369.42C2255.43 2372.95 2252.57 2376.73 2248.75 2381C2244.27 2386.02 2238.15 2390.24 2233.11 2395.05C2227.8 2400.11 2217.3 2413.87 2210.29 2407.22C2206.77 2403.88 2207.69 2399.52 2202.05 2397.56C2196.91 2395.77 2190.41 2398.04 2185.63 2400.01C2180.26 2402.24 2162.56 2410.37 2160.59 2417.06C2157.89 2426.29 2172.52 2415.2 2175.12 2413.58C2172.15 2421.1 2170.51 2432 2162.96 2436.4C2156.68 2440.04 2147.65 2442.19 2140.77 2444.31ZM2040.43 2387.36C2045.46 2371.22 2075.08 2342.44 2093.8 2351.44C2071.98 2356.01 2054.67 2370.94 2040.43 2387.36ZM2051.51 2433.59C2044.21 2429.52 2044.6 2417.7 2042.06 2410.79C2040.59 2406.82 2037.67 2403.93 2038.53 2399.52C2039.53 2394.36 2046.12 2388.63 2049.62 2384.91C2060.65 2373.19 2080.06 2357.18 2097.81 2359.87C2120.4 2363.29 2105.09 2393.62 2097.39 2404.06C2090.84 2412.96 2065.57 2441.42 2051.51 2433.59ZM1998.8 2413.85C1974.37 2412.22 1950.02 2410.03 1925.91 2405.55C1917.37 2403.96 1910.21 2404.19 1915.1 2394.37C1916.71 2391.13 1926.45 2370.81 1928.65 2371.39C1929.95 2371.74 1929.65 2385.7 1930.03 2387.3C1931.76 2394.49 1936.6 2401.19 1944.77 2400.74C1958.14 2399.99 1966.75 2382.71 1973.79 2373.44C1979.42 2381.02 1983.51 2389.44 1989.17 2396.89C1991.88 2400.45 2001.31 2408.74 1998.8 2413.85ZM1855.55 2317.95C1851.45 2327.35 1843.2 2336.3 1837.47 2344.82C1834.23 2337.96 1831.95 2322.21 1839.64 2317.13C1842.55 2315.22 1858.14 2312 1855.55 2317.95ZM1940.29 2345.96C1941.42 2342.34 1942.67 2338.74 1944.07 2335.22C1946.46 2342.74 1947.68 2342.96 1940.29 2345.96ZM1961.21 2353.66C1964.18 2358.69 1969.12 2363.63 1968.34 2369.94C1967.76 2374.73 1963.43 2379.63 1960.34 2382.96C1955.23 2388.47 1943.91 2399.06 1936.51 2391.74C1930.32 2385.62 1932.48 2368.8 1935.35 2361.92C1939.46 2352.09 1954.14 2341.69 1961.21 2353.66ZM1946.7 2343.36C1948.4 2342.69 1944.83 2331.71 1948.14 2330.62C1951.03 2337.21 1953.76 2339 1946.7 2343.36ZM1900.01 2195.72C1898.91 2191.67 1896.38 2191.84 1897.29 2186.84C1897.89 2183.56 1900.49 2180.05 1902.47 2177.45C1906.41 2172.27 1911.6 2168 1917.22 2164.77C1929.08 2157.94 1945.36 2155.11 1955.98 2165.79C1946.05 2167.36 1915.62 2177.15 1915.43 2190.73C1926.47 2188.6 1935.15 2177.52 1946.22 2174.02C1955.3 2171.16 1965.16 2171.36 1974.2 2174.39C1998.94 2182.67 1988.65 2204.05 1974.69 2217.94C1966.4 2226.19 1956.45 2232.34 1945.59 2236.59C1940.56 2238.56 1937.47 2238.77 1932.53 2237.79C1931.6 2237.6 1930.52 2235.88 1929.41 2235.52C1926.65 2234.6 1927.45 2237.7 1925.18 2236.31C1923.2 2235.1 1918.97 2227.27 1917.62 2225.03C1915.47 2221.47 1914.47 2218 1911.84 2214.75C1909.2 2211.49 1907.92 2207.13 1905.48 2204.18C1904.31 2202.76 1901.1 2202.82 1900.23 2201.44C1898.94 2199.36 1900.59 2197.85 1900.01 2195.72ZM1862.01 2355.18C1867.63 2345.41 1877.25 2337.12 1884.7 2328.58C1885.16 2342.62 1875.09 2352.23 1862.01 2355.18ZM1869.61 2359.7C1881.22 2355.61 1887.62 2345.83 1888.81 2333.98C1890.31 2318.97 1899.74 2311.09 1905.41 2297.6C1907.59 2292.44 1910.13 2275.43 1918.56 2280.3C1921.46 2281.97 1923.17 2288.25 1924.68 2291.08C1928.33 2297.95 1932.48 2304.6 1936.35 2311.34C1939.5 2316.83 1944.22 2322.34 1942.83 2328.95C1941.62 2334.71 1937.72 2340.84 1935.43 2346.27C1930.04 2359.1 1922.95 2370.92 1917.03 2383.46C1914.64 2388.52 1911.82 2400.5 1904.52 2400.44C1898.75 2400.39 1899.4 2394.08 1895.59 2391.92C1890.8 2389.19 1885.34 2394.39 1881.4 2396.54C1885.94 2388.88 1893.87 2384.54 1902.79 2385.98C1892.11 2375.35 1884.9 2389.7 1875.73 2392.89C1867.05 2395.92 1851.64 2381.64 1844.33 2377.59C1847.13 2372.86 1849.66 2367.07 1854.47 2363.95C1859.03 2360.99 1864.63 2361.45 1869.61 2359.7ZM1775.19 2456.86C1776.46 2450.74 1780.06 2447.12 1782.33 2441.56C1784.98 2448.3 1778.79 2452.28 1775.19 2456.86ZM1959.7 2494.43C1959.08 2515.05 1957.4 2535.61 1956.79 2556.23C1956.51 2565.74 1954.82 2574.82 1953.71 2584.22C1952.76 2592.16 1953.24 2599.97 1948.24 2606.76C1940.35 2617.47 1925 2620.55 1913.09 2624.52C1904.35 2627.43 1895.5 2630.07 1886.86 2633.31C1879.09 2636.22 1872.83 2640.63 1865.44 2644.09C1858.83 2647.19 1851.69 2649.03 1845.11 2652.33C1838.3 2655.74 1832.92 2659.9 1825.93 2662.94C1817.56 2666.57 1810.67 2673.05 1803.22 2678.18C1796.67 2682.7 1789.74 2686.2 1784.1 2691.88C1778.81 2697.22 1772.12 2699.56 1766.13 2704.3C1759.8 2709.31 1753.17 2712.57 1746.17 2716.5C1731.84 2724.55 1712.5 2738.31 1695.25 2730.48C1700.18 2724.18 1710.28 2718.13 1711.05 2709.45C1712.05 2698.14 1702.2 2702.3 1696.5 2705.91C1687.87 2711.38 1683.09 2717.98 1676.52 2725.27C1668.84 2733.79 1659.13 2728.06 1649.73 2725.66C1656.16 2719.88 1662.53 2714.04 1668.95 2708.24C1674.37 2703.35 1682.66 2698.06 1685.96 2691.29C1688.31 2686.46 1688.2 2679.83 1682.51 2677.31C1676.14 2674.51 1668.94 2680.43 1664.23 2683.95C1651.71 2693.32 1643.47 2705.19 1635.25 2718.22C1630.88 2725.15 1628.87 2724.62 1620.83 2723.23C1612.31 2721.76 1603.78 2720.2 1595.19 2719.17C1606.57 2707.48 1619.29 2694.82 1628.28 2681.15C1631.19 2676.71 1634.99 2665.04 1626.12 2663.96C1622.46 2663.52 1615.18 2671 1612.36 2673.01C1600.04 2681.82 1588.19 2692.93 1580.02 2705.79C1577.32 2710.04 1576.47 2714.76 1571.25 2715.11C1564.42 2715.57 1551.74 2709.06 1545.15 2707.04C1557.74 2691.18 1570.24 2675.2 1584.95 2661.21C1598.46 2648.35 1611.94 2639.01 1627.74 2629.15C1644.68 2618.58 1660.46 2606.41 1676.01 2593.92C1690.89 2581.97 1706.44 2570.69 1720.14 2557.35C1747.51 2530.68 1771.89 2500.02 1792.08 2467.6C1796.8 2460.02 1801.25 2452.23 1805.09 2444.16C1808.7 2436.58 1810.36 2427.51 1815.24 2420.62C1816.92 2418.24 1819.29 2416.47 1820.79 2413.98C1822.21 2411.64 1821.73 2408.81 1823.89 2406.74C1828.88 2401.95 1837.96 2404.84 1842.63 2408.19C1850.13 2413.59 1856.2 2420.15 1864.45 2424.67C1872.74 2429.21 1881.71 2432.52 1890.9 2434.75C1912.36 2439.97 1933.64 2444.25 1955.5 2447.42C1953.25 2455.77 1958.78 2457.08 1960.61 2464.59C1962.83 2473.7 1959.98 2485.15 1959.7 2494.43ZM1753.04 2355.31C1748.17 2348.08 1743.83 2340.52 1739.04 2333.24C1736.13 2328.81 1732.52 2324.05 1735.01 2318.63C1739.2 2309.5 1754 2307.87 1762.03 2311.85C1780.28 2320.91 1763.32 2346.8 1753.04 2355.31ZM1704.73 2189.98C1703.05 2175.85 1708.45 2165.82 1721.24 2158.42C1730.35 2153.14 1737.68 2160.35 1736.44 2169.98C1734.55 2184.64 1718.87 2200.95 1706.91 2208.6C1706.13 2202.4 1705.47 2196.19 1704.73 2189.98ZM1702.78 2149.55C1706.55 2146.56 1716.65 2150.38 1721.02 2150.64C1715.01 2155.89 1709 2161.14 1702.99 2166.39C1702.6 2162.78 1699.3 2152.31 1702.78 2149.55ZM1723.06 2013.1C1753.46 2009.15 1718.46 2041.77 1709.65 2046.89C1711.08 2039.94 1714.6 2014.2 1723.06 2013.1ZM1804.01 1955.98C1799.92 1972.7 1768.18 1990.94 1767.85 1963.55C1767.73 1953.35 1773.46 1954.17 1781.83 1953.19C1786.6 1952.63 1806.34 1946.42 1804.01 1955.98ZM1694.37 1981.87C1690.8 1991.23 1687.95 2000.82 1684.45 2010.18C1682.91 2014.33 1681.09 2017.17 1678.2 2020.46C1675.79 2023.21 1672.92 2023.9 1673.01 2028.24C1676.04 2027.66 1678.4 2025.86 1680.84 2024.12C1680.25 2032.72 1677.21 2041.99 1675.74 2050.56C1673.97 2060.85 1672.5 2071.14 1671.96 2081.57C1670.78 2104.25 1670.77 2126.86 1671.26 2149.55C1671.52 2161.12 1671.63 2172.69 1672.26 2184.24C1672.57 2189.99 1672.92 2195.76 1673.63 2201.47C1673.92 2203.77 1675.59 2208.68 1674.56 2210.84C1670.5 2219.33 1652.51 2196.03 1644.69 2199.44C1645.82 2192.99 1643.22 2194.4 1638.9 2191.23C1636.8 2189.69 1635.43 2187.07 1633.25 2185.7C1632.58 2184.99 1631.86 2184.35 1631.06 2183.79C1630.16 2182.56 1629.2 2182.69 1628.2 2184.19C1619.4 2178.93 1617.13 2167.71 1612.4 2160.17C1609.97 2156.29 1607.62 2155.69 1607.21 2150.33C1606.85 2145.66 1607.55 2140.89 1607.36 2136.2C1607.15 2130.91 1606.84 2125.07 1605.35 2119.95C1603.63 2114 1601.26 2114.48 1596.64 2111.31C1598.06 2110.69 1599 2109.65 1599.46 2108.18C1597.98 2108.44 1593.5 2110.27 1592.38 2108.95C1590.2 2106.37 1595.36 2106.03 1596.72 2105C1590.93 2102.43 1592.17 2100.32 1594.26 2095.6C1594.86 2094.27 1595.42 2092.27 1595.92 2091.15C1597.02 2088.69 1597.66 2090.25 1598.02 2087.2C1598.37 2084.29 1595.78 2078.56 1595.02 2075.46C1593.75 2070.26 1593.04 2065.77 1594.19 2060.35C1595.12 2055.96 1597.61 2051.99 1597.79 2047.48C1597.84 2046.21 1595.91 2045.79 1595.88 2044.57C1595.84 2042.78 1597.51 2041.99 1597.94 2040.34C1599.05 2036.11 1598.55 2031.64 1600.45 2027.63C1602.15 2024.03 1605.6 2019.36 1608.04 2016.22C1609.73 2014.04 1613.87 2011.58 1614.33 2008.71C1614.63 2006.8 1611.66 2007.02 1611.79 2005.58C1611.97 2003.64 1613.6 2003.01 1614.05 2001.57C1615.29 1997.6 1615.6 1993.79 1618.78 1990.75C1622.8 1986.93 1624.55 1988.53 1624.71 1982.22C1624.79 1979.14 1622.33 1978.67 1623.65 1975.12C1624.37 1973.19 1626.48 1972.06 1627.83 1970.69C1631.85 1966.64 1634.56 1963.04 1637.41 1958.04C1639.94 1953.62 1643.98 1951.05 1646.57 1947.23C1649.94 1942.25 1644.9 1939.78 1651.74 1938.38C1650.77 1935.29 1649.74 1932.79 1652.3 1930.18C1653.91 1928.53 1658.01 1929.54 1659.44 1927.63C1661.08 1925.44 1658.66 1920.24 1661.13 1918.82C1663.13 1917.67 1666.14 1921.23 1669.3 1919.47C1671.7 1918.12 1675.33 1910.7 1674.56 1907.98C1680.78 1911.47 1679.23 1909.07 1682.2 1904.58C1682.87 1903.57 1684.89 1903.35 1685.46 1902.34C1686.61 1900.31 1686.35 1898.24 1688.01 1896.59C1690.76 1893.84 1695.28 1894.55 1698.31 1892.59C1700.82 1890.97 1700.68 1889.22 1702.68 1887.69C1704.39 1886.38 1707.2 1886.13 1708.86 1884.78C1712.12 1882.13 1712.15 1879.33 1716.23 1877.05C1721.05 1874.34 1725.32 1872.04 1729.71 1868.46C1732.57 1866.12 1735.28 1861.98 1738.63 1860.44C1743.26 1858.31 1746.86 1858.16 1751.39 1855.12C1754.66 1852.92 1757.76 1849.29 1760.97 1847.44C1763.39 1846.05 1765.09 1846.35 1768.15 1845.48C1773.64 1843.92 1774.98 1838.75 1779.46 1836.64C1782.54 1835.19 1787.02 1836.51 1790.4 1835.75C1800.92 1833.39 1811.31 1828.3 1821.87 1825.48C1834.75 1822.04 1847.73 1819.02 1860.71 1815.98C1848.78 1832.15 1833.59 1846.74 1818.17 1859.58C1813.12 1863.79 1785.39 1883.01 1800.34 1891.22C1806.33 1894.51 1819.36 1883.87 1824.21 1881.27C1833.96 1876.03 1844.06 1871.84 1854.27 1867.61C1870.79 1860.76 1892.3 1848.58 1910.65 1849.56C1899.48 1863.26 1885.53 1874.26 1872.75 1886.37C1861.01 1897.5 1843.32 1907.93 1848.85 1926.14C1832.36 1921.95 1817.54 1916.99 1800.39 1918.08C1792.71 1918.58 1785.02 1917.65 1777.38 1918.73C1769.06 1919.9 1761.23 1922.69 1753.24 1925.13C1746.92 1927.06 1739.93 1927.21 1734.12 1930.42C1731.31 1931.97 1727.83 1934.19 1725.31 1936.12C1721.94 1938.68 1721.17 1940.39 1718.53 1943.77C1709.1 1955.84 1699.97 1967.16 1694.37 1981.87ZM1642.78 2210.42C1642.26 2208.33 1641.79 2206.42 1641.2 2204.03C1646.45 2207.26 1646.45 2207.26 1642.78 2210.42ZM1603.1 2143.85C1602.45 2144.75 1599.74 2145.04 1598.95 2144.26C1597.96 2143.3 1600.55 2139.56 1600.96 2138.77C1601.99 2139.56 1604.34 2142.13 1603.1 2143.85ZM1591.86 2119.63C1592.56 2117.08 1593.25 2114.53 1593.95 2111.97C1594.8 2114.34 1598.65 2116.95 1598.73 2119.21C1598.79 2120.7 1592.62 2119.96 1591.86 2119.63ZM1594.09 2123.13C1600.12 2127.09 1600.75 2131.77 1600.93 2138.62C1593.72 2136.23 1594.75 2129.25 1594.09 2123.13ZM1698.85 1853.07C1698.24 1854.71 1695.66 1859.84 1693.77 1856.25C1693.16 1855.11 1697.59 1853.54 1698.85 1853.07ZM1697.12 1847.48C1698.61 1846.14 1701.61 1847.81 1703.29 1846.72C1704.47 1845.96 1704.08 1845.19 1704.64 1844.74C1704.75 1844.65 1706.35 1841.4 1707.01 1840.67C1708.17 1839.37 1710.7 1838.56 1712.12 1837.39C1716.06 1834.12 1718.29 1829.82 1720.77 1825.45C1723.73 1820.23 1724.68 1819.63 1729.45 1817.23C1732.74 1815.59 1735.3 1813.57 1737.98 1810.77C1741.06 1807.54 1740.84 1805.23 1743.37 1801.71C1744.62 1799.97 1746.43 1799.75 1747.89 1798.35C1749.64 1796.67 1750.52 1794.32 1752.14 1792.62C1752.84 1791.89 1755.08 1791.89 1755.51 1791.27C1756.04 1790.47 1756.46 1787.29 1756.97 1786.71C1757.94 1788.01 1758.9 1789.32 1759.87 1790.62C1763.67 1783.93 1766.45 1778.4 1772.82 1773.94C1779.5 1769.27 1785.27 1762.42 1792.18 1758.23C1793.73 1757.29 1796.9 1756.9 1798.09 1755.51C1800.09 1753.16 1798.35 1751.07 1799.82 1749.08C1801.48 1746.82 1804.69 1748.65 1806.81 1747.68C1809.48 1746.44 1810.24 1742.84 1813.68 1743.24C1802.37 1756.62 1802.51 1777.43 1801.91 1794.14C1801.65 1801.34 1806.19 1804.96 1799.49 1810.25C1793.8 1814.74 1785.77 1813.41 1779.04 1816.37C1770.58 1820.08 1761.54 1822.06 1752.91 1825.29C1743.99 1828.64 1736.82 1834.5 1728.23 1838.38C1720.66 1841.8 1715.49 1846.66 1708.56 1850.88C1705.99 1852.45 1702 1854.72 1698.93 1852.85C1697 1851.67 1694.61 1849.74 1697.12 1847.48ZM1824.84 1735.32C1825.33 1733.42 1834.99 1728.42 1837.36 1726.79C1840.93 1724.34 1846.2 1718.36 1850.18 1720.74C1851.56 1715.22 1856.94 1709.08 1861.69 1707.91C1866.96 1706.61 1876 1702.09 1881.19 1698.14C1882.71 1696.99 1883.21 1695.31 1884.99 1694.22C1888.09 1692.34 1891.17 1693.37 1894.16 1690.8C1894.62 1690.41 1898.76 1683.58 1898.92 1683.65C1899.13 1684.38 1899.32 1685.12 1899.49 1685.87C1902.63 1684.13 1905.43 1682.74 1907.38 1680.52C1907.83 1680.02 1904.95 1678.71 1905.86 1677.71C1906.97 1676.49 1909.45 1677.85 1910.58 1676.69C1907.08 1694.04 1909.68 1716.37 1927.28 1725.16C1906.35 1727.42 1885.91 1721.13 1864.72 1724.99C1854.58 1726.84 1844.27 1729.88 1835.04 1734.54C1829.39 1737.4 1822.16 1747.64 1816.53 1742.67C1818.77 1739.69 1822.17 1737.84 1824.84 1735.32ZM1926.4 1685.42C1934.23 1675.85 1946.1 1672.06 1958.06 1675.49C1972.05 1679.5 1966.15 1689.28 1964.04 1700.14C1960 1694.22 1951.25 1688.34 1943.79 1688.17C1933.23 1687.91 1937.22 1696.71 1943.57 1699.87C1949.33 1702.73 1959.22 1703.53 1963.35 1708.74C1967.37 1713.81 1965.83 1722.1 1966.48 1728.08C1963.35 1727.61 1960.23 1727.15 1957.11 1726.68C1959.73 1712.73 1948.19 1712.06 1937.43 1708.12C1926.56 1704.15 1917.49 1696.31 1926.4 1685.42ZM1961.46 1651.06V1664.01C1957.11 1661.53 1952.75 1659.05 1948.4 1656.57C1952.75 1654.73 1957.11 1652.9 1961.46 1651.06ZM1996.45 1754.52C2010.98 1758.46 2025.41 1762.63 2039.38 1768.06C2044.46 1770.03 2050.01 1770.73 2054.99 1772.96C2059.72 1775.08 2060.43 1774.86 2058.75 1779.01C2054.03 1790.63 2042.85 1788.62 2033.06 1786.84C2017.74 1784.06 2002.73 1780.2 1987.6 1776.57C1972.81 1773.02 1957.7 1770.7 1943.13 1766.25C1928.18 1761.69 1913.61 1757.37 1898.24 1754.36C1893.75 1753.48 1858.25 1750.23 1858.52 1746.52C1880.88 1743.61 1903.89 1746.48 1926.35 1746.78C1949.69 1747.09 1973.81 1748.39 1996.45 1754.52ZM1976.72 1709.56C1977 1701.57 1977.11 1693.55 1978.1 1685.61C1984.75 1693.82 1990.76 1696.28 1999.14 1688.58C2007.17 1681.22 2008.96 1677.38 2019.14 1684.3C2027.96 1690.31 2036.31 1690.03 2045.68 1684.77C2051.39 1681.57 2060.58 1668.46 2066.59 1671.16C2069.45 1672.45 2071.55 1677.63 2074.44 1679.54C2078.07 1681.92 2083.64 1683.58 2087.87 1684.51C2097.85 1686.7 2103.8 1680.28 2110.07 1673.41C2119.16 1663.45 2118.89 1669.23 2127.32 1676.14C2136.72 1683.84 2144.57 1680.08 2153.08 1673.5C2158.27 1688.69 2160.21 1705.28 2161.67 1721.2C2162.17 1726.57 2164.01 1734.21 2159.18 1738.01C2155.78 1740.69 2148.55 1740.79 2144.45 1742.28C2129.8 1747.57 2115.73 1755.08 2103.47 1764.7C2098.7 1768.45 2094.54 1773.04 2088.01 1772.19C2081.8 1771.37 2075.76 1766.17 2070.75 1762.73C2065.33 1759.01 2059.84 1754.78 2053.5 1752.7C2049.78 1751.48 2043.83 1751.92 2040.58 1749.69C2034.54 1745.55 2041.65 1734.67 2040.15 1727.37C2039.01 1721.82 2035.82 1710.26 2028.18 1713.51C2016.82 1718.35 2023.43 1737.22 2029.68 1743.11C2016.9 1740.84 2002.74 1737.53 1990.41 1733.32C1980.89 1730.06 1976.38 1719.31 1976.72 1709.56ZM2191.13 1748.49C2217.37 1741.12 2241.93 1736.15 2269.24 1734.81C2281.33 1734.21 2293.03 1734.59 2304.99 1734.7C2311.87 1734.76 2317.11 1729.21 2311.62 1722.83C2304.01 1713.99 2280.8 1717.35 2270.51 1716.96C2242.95 1715.89 2217.67 1719.03 2191.56 1728.11C2194.32 1723.03 2200.95 1722.37 2205.5 1719.74C2211.08 1716.51 2214.87 1711.19 2217.25 1705.29C2223.45 1689.95 2217.21 1675.48 2210.73 1661.47C2223.46 1664.89 2236.64 1672.39 2249.44 1674.3C2252.13 1674.7 2253.85 1674.44 2256.22 1675.42C2257.68 1676.02 2258.14 1678.09 2259.95 1678.54C2260.82 1678.76 2262.92 1676.79 2263.9 1677.07C2267.8 1678.17 2264.72 1678.46 2267.18 1680.06C2269.14 1681.32 2268.98 1682.95 2272.57 1682.36C2274.16 1682.09 2275.89 1679.63 2276.73 1679.56C2277.8 1679.48 2277.55 1678.18 2279.18 1678.56C2282.16 1679.25 2281.9 1683.08 2282.89 1684.96C2283.95 1686.97 2282.44 1689.64 2285.65 1690.74C2288.05 1691.56 2288.65 1689.03 2290.69 1689.21C2291.93 1689.32 2294.5 1691.1 2295.59 1692.19C2299.12 1695.69 2303.94 1699.56 2308.68 1701.83C2308.22 1701.37 2310.91 1700.24 2310.27 1699.97C2309.83 1699.8 2312.67 1700.48 2312.63 1700.47C2315.36 1701.09 2316.81 1705.29 2318.19 1706.83C2320.73 1709.63 2324.68 1712.6 2328.25 1713.83C2334.41 1715.98 2334.22 1713.42 2336.47 1720.74C2340.85 1713.85 2342.53 1725.38 2347.97 1726.65C2350.78 1727.31 2350.45 1726.11 2353.01 1727.58C2354.76 1728.59 2355.93 1731.68 2357.26 1733.17C2357.83 1731.02 2358.39 1728.87 2358.96 1726.72C2362.87 1734.13 2371.32 1745.88 2380.58 1743.76C2380.58 1745.78 2379.75 1748.2 2381.32 1749.93C2382.41 1751.13 2384.18 1749.76 2385.04 1750.46C2385.78 1751.08 2387.57 1753.51 2388.14 1753.92C2389.27 1754.71 2391.32 1755.28 2392.3 1756.07C2393.16 1756.76 2393.59 1760.08 2394.54 1761.27C2396.34 1763.52 2399.45 1763.97 2400.92 1766.67C2401.26 1764.01 2401.59 1761.35 2401.93 1758.68C2404.85 1760.94 2405.1 1762.69 2405.81 1765.99C2406.83 1770.68 2405.48 1769.58 2408.72 1771.56C2411.9 1773.51 2413.56 1773.29 2416.48 1776.68C2419.34 1779.99 2419.37 1782.03 2423.5 1778.58C2424.26 1781.13 2424.51 1784.44 2426.56 1786.4C2428.11 1787.88 2434.52 1787.94 2435.13 1791.44C2423.09 1781.28 2431.01 1796.71 2435.14 1791.46C2436.01 1797.08 2440.12 1798.89 2444.81 1802.89C2449.19 1806.61 2449.9 1806.34 2451.4 1812.6C2451.37 1812.47 2453.6 1813.85 2453.76 1814.13C2449.5 1814.74 2456.11 1819.5 2457.23 1820.37C2458.04 1821.01 2459.1 1819.49 2460.46 1820.52C2462.01 1821.7 2463.27 1824.37 2464.53 1825.99C2467.95 1830.36 2470.48 1834.12 2474.07 1837.68C2477.96 1841.52 2479.84 1846.37 2483.57 1850.86C2487.71 1855.85 2489.94 1861.58 2493.4 1866.99C2496.69 1872.14 2501.05 1876.27 2504.86 1880.98C2510.93 1888.48 2512.99 1904.99 2524.3 1905.43C2523.64 1906.11 2524.56 1911.23 2524.67 1912.18C2525.2 1916.83 2524.85 1921.3 2527.6 1925.51C2528.23 1920.71 2530.74 1922.56 2532.92 1925.08C2536.56 1929.28 2533.37 1928.22 2533.56 1932.48C2533.79 1937.63 2534.38 1933.64 2536.34 1938.15C2537.88 1941.67 2538.72 1943.96 2539.55 1947.87C2533.16 1948.38 2530.23 1943.16 2527.87 1938.1C2526.89 1935.99 2526.54 1932.51 2524.8 1930.86C2522.94 1929.09 2520.38 1928.96 2518.47 1926.99C2514.8 1923.22 2513.21 1917.34 2508.89 1913.66C2504 1909.51 2502.92 1907.56 2498.88 1902.59C2494.42 1897.11 2488.25 1893.26 2483.57 1887.95C2478.87 1882.63 2479.25 1885.54 2473.36 1883.61C2467.09 1881.56 2456.95 1861.86 2449.06 1869.45C2449.37 1864.48 2441.93 1859.81 2438.17 1858.01C2436.55 1857.23 2434.65 1857.94 2433.03 1856.77C2431.26 1855.51 2431.14 1853.07 2429.36 1851.55C2429.36 1851.55 2426.63 1852.21 2426.08 1851.94C2424.95 1851.37 2424.94 1849.35 2423.95 1848.68C2421.2 1846.84 2417.92 1844.91 2415 1843.35C2407.9 1839.54 2401.62 1834.85 2394.77 1830.27C2388.9 1826.34 2381.8 1819.25 2375.01 1817.18C2369.09 1815.37 2365.36 1816.29 2360.51 1812.67C2357.87 1810.7 2358.65 1810.04 2354.4 1808.81C2350.36 1807.64 2348.09 1808.24 2345.94 1803.96C2342.2 1796.46 2344.56 1781.81 2343.84 1773.4C2343.07 1764.47 2342.15 1755.33 2339.83 1746.65C2337.07 1736.39 2333.43 1731.02 2322.43 1733.44C2300.62 1738.23 2279.07 1742.79 2257.17 1747C2213.51 1755.38 2170.61 1769.07 2127.91 1781.21C2124.66 1782.14 2106.52 1786.29 2110.22 1776.91C2111.93 1772.59 2123.41 1770.97 2127.26 1769.62C2148.36 1762.15 2169.56 1754.54 2191.13 1748.49ZM2183.79 1729.39C2180.6 1730.61 2177.42 1731.82 2174.23 1733.04V1724.18C2177.42 1725.92 2180.6 1727.65 2183.79 1729.39ZM2170.54 1682.52C2173.31 1684.79 2178.95 1679.34 2181.3 1678.23C2185.33 1676.35 2190.45 1674.73 2194.94 1675.12C2203.23 1675.84 2209.3 1684 2207.78 1692.27C2205.21 1706.27 2185.26 1712.89 2174.26 1718.36C2173.91 1713.4 2172.3 1707.44 2175.78 1703.15C2178.8 1699.42 2184.66 1699.69 2187.45 1695.73C2194.46 1685.77 2175.45 1684.86 2171.2 1692.78C2169.53 1687.72 2167.85 1682.66 2166.17 1677.6C2170.22 1676.93 2168.44 1680.81 2170.54 1682.52ZM2190.16 1655.12C2186.21 1657.68 2182.25 1660.24 2178.29 1662.8C2176.33 1653.94 2183.02 1652.77 2190.16 1655.12ZM2550.83 1963.38C2545.65 1965.85 2544.35 1959.94 2540.62 1959.69C2545.03 1956.98 2545.03 1956.98 2550.83 1963.38ZM2571.91 2092.35C2572.56 2100.84 2572.05 2109.43 2573.18 2117.88C2574.05 2124.32 2576.65 2130.3 2576.93 2136.81C2577.54 2151.06 2572.73 2165.57 2563.01 2176.01C2553.82 2185.89 2540.66 2194.39 2528.25 2198.55C2522.66 2200.42 2516.83 2204.56 2511.39 2206.1C2505.39 2207.79 2499.68 2204.1 2494.72 2210.72C2491.42 2182.32 2493.83 2152.64 2493.57 2124.05C2493.31 2095.41 2493.62 2066.75 2488.77 2038.41C2484.46 2013.17 2475.95 1984.79 2460.26 1964.14C2453.89 1955.76 2446.05 1948.89 2437.77 1942.46C2433.48 1939.13 2429.19 1935.56 2424.41 1932.93C2417.05 1928.87 2410.78 1929.43 2402.78 1928.28C2391.33 1926.62 2380.68 1925.23 2369.19 1928.45C2358.49 1931.45 2346.7 1934.87 2337.11 1940.09C2327.57 1945.29 2316.48 1947.43 2306.57 1952.08C2299.82 1955.25 2285.82 1965.83 2278.34 1963.92C2271.1 1962.08 2260.38 1949.79 2255.75 1944.29C2249.84 1937.25 2244.96 1929.1 2239.71 1921.53C2237.87 1918.87 2234.12 1914.77 2233.64 1911.35C2232.81 1905.43 2235.18 1907.37 2240.84 1908.03C2255.39 1909.74 2269.08 1912.43 2283.02 1917.01C2289.96 1919.29 2303.53 1928.51 2310.47 1922.99C2321.07 1914.55 2304.97 1900.06 2299.07 1895.19C2289.02 1886.89 2277.34 1880.73 2266.63 1873.36C2255.25 1865.52 2240.2 1857.18 2232.88 1845.11C2254.27 1851.43 2275.63 1858.66 2296.39 1866.79C2305.89 1870.51 2315.28 1874.45 2324.2 1879.4C2329.21 1882.18 2339.33 1889.7 2345.37 1886.1C2358.48 1878.27 2328.36 1855.53 2324.01 1850.88C2317.25 1843.66 2310.64 1836.51 2303.21 1829.96C2298.2 1825.54 2290.34 1822.43 2288.01 1815.91C2296.32 1818.92 2303.04 1824.82 2310.83 1828.82C2314.9 1830.92 2318.62 1832.12 2323.12 1832.77C2327.92 1833.45 2328.49 1834.22 2332.27 1836.13C2335.22 1837.61 2338.24 1839.6 2341.55 1840.61C2343.9 1841.33 2348.02 1841.46 2350.07 1842.79C2351.13 1844.29 2352.21 1845.77 2353.34 1847.22C2354.59 1847.59 2355.83 1848.01 2357.05 1848.5C2358.87 1850.13 2359.95 1852.37 2361.73 1854.05C2374.62 1866.24 2391.87 1874.96 2406.32 1885.18C2420 1894.84 2434.51 1903.58 2447.64 1914.12C2462.76 1926.26 2478.44 1939.3 2491.3 1953.85C2498.56 1962.08 2504.54 1971.4 2510.64 1980.49C2515.06 1987.08 2521.48 1992.54 2525.3 1999.33C2533.63 2014.13 2540.54 2030.14 2549.51 2044.7C2558.64 2059.54 2570.54 2074.29 2571.91 2092.35ZM2449.06 2178.24C2451.55 2167.97 2465.6 2155.97 2474.58 2151.44C2470.05 2162.64 2457.99 2170.27 2449.06 2178.24ZM2472.22 2214.08C2464.57 2229.97 2430.89 2231.79 2435.46 2208.27C2437.7 2196.75 2447.2 2189.69 2455.36 2182.15C2459.13 2178.66 2468.36 2166.2 2474.2 2168.21C2473.92 2177.17 2473.4 2186.17 2473.42 2195.13C2473.43 2201.11 2474.94 2208.46 2472.22 2214.08ZM2462.49 2030.96C2465.6 2037.94 2468.69 2043.75 2462.93 2049.99C2460.33 2052.81 2451.85 2058.97 2448.02 2057.61C2435.71 2053.22 2459.18 2034.1 2462.49 2030.96ZM2388.04 1968.88C2391 1968.72 2393.88 1969.16 2396.81 1968.98C2399.73 1968.79 2400.04 1968.28 2402.74 1968.65C2403.03 1969.06 2403.31 1969.48 2403.6 1969.89C2403.97 1972.67 2405.43 1972.98 2407.98 1970.8C2411.53 1971.59 2413.84 1972.12 2417.24 1974.04C2408.08 1980.64 2396.92 1988.33 2385.68 1990.55C2367.92 1994.05 2372.83 1969.72 2388.04 1968.88ZM2115.74 2117.49C2113.9 2121.19 2108.6 2111.93 2107.29 2110.21C2109.73 2110.2 2117.6 2113.75 2115.74 2117.49ZM2258.46 2019.97C2272.26 2011.92 2288.65 2004.85 2303.47 1998.86C2306.07 2011.41 2293.36 2027.62 2285.53 2036.21C2279.2 2043.16 2271.57 2050.36 2262.99 2054.36C2253.71 2058.68 2243.57 2056.79 2244.02 2044.66C2244.18 2040.22 2245.19 2033.09 2247 2029.04C2249.32 2023.81 2253.72 2022.73 2258.46 2019.97ZM2071.91 1791.6C2073.97 1791.48 2096.28 1788.6 2096.16 1791.37C2095.81 1799.72 2074.15 1793.16 2071.91 1791.6ZM1914.13 1952.69C1925.92 1938.15 1944.94 1922.46 1945.22 1902.14C1945.63 1872.24 1912.44 1887.16 1895.76 1888.4C1904.58 1879.74 1948.92 1843.38 1922.69 1830.46C1915.15 1826.75 1904.44 1830.38 1896.88 1832.32C1883.46 1835.77 1870.98 1841.75 1857.8 1845.91C1867.22 1835.88 1883.49 1824.49 1882.96 1809.3C1882.31 1790.82 1867.13 1795.29 1854.01 1798C1848.97 1799.04 1826.44 1808 1822.21 1801.92C1820.66 1799.69 1823.17 1796.86 1823.7 1794.88C1824.64 1791.36 1824.35 1790.14 1824.38 1786.55C1824.45 1779.32 1829.25 1770.03 1825.33 1763.3C1824.44 1764.83 1823.67 1766.42 1823.03 1768.07C1821.74 1764.16 1822.61 1760.01 1821.31 1756.09C1854.07 1764.47 1887.4 1769.05 1920.36 1776.2C1937.05 1779.82 1952.75 1786.05 1969.67 1788.86C1986.73 1791.69 2003.5 1796.02 2020.59 1798.71C2036.18 1801.17 2051.12 1805.27 2066.57 1808.41C2081.62 1811.47 2097.06 1804.76 2111.75 1801.36C2144.67 1793.75 2177.56 1785.96 2210.52 1778.57C2248.55 1770.05 2288.11 1762.76 2324.5 1748.54C2325.21 1767.49 2326.73 1786.4 2329.04 1805.22C2312.97 1797.62 2289.11 1787.71 2272.86 1801.31C2266.36 1806.75 2264.35 1816.14 2266.92 1824.13C2269.72 1832.82 2278.29 1836.86 2283.95 1843.41C2266.73 1838.99 2222.34 1807.89 2214.43 1839.33C2208.85 1861.53 2236.08 1875.88 2249.39 1888.37C2236.17 1885.79 2218.47 1875.22 2210.7 1892.2C2203.99 1906.89 2212.08 1922.86 2220.35 1934.97C2224.84 1941.53 2229.88 1947.71 2234.65 1954.07C2237.17 1957.43 2239.63 1960.84 2242.28 1964.1C2244.94 1967.38 2249.95 1970.8 2251.82 1974.33C2255.57 1981.43 2248 1981.86 2242.12 1984.43C2234.77 1987.64 2228.46 1993.02 2221.74 1997.31C2206.36 2007.13 2192.91 2016.25 2174.73 2019.39C2156.02 2022.62 2137.99 2025.99 2119.52 2030.5C2101.11 2034.99 2086.08 2039.31 2067.26 2033.5C2058.68 2030.85 2051.69 2028.5 2042.59 2029C2033.03 2029.52 2027.44 2029.03 2019.58 2023.11C1985.75 1997.64 1949.04 1976.74 1914.13 1952.69ZM1853.16 1927.12C1866.23 1920.56 1879.39 1913.97 1892.89 1908.34C1904.07 1903.67 1921.04 1898.24 1933.27 1900.28C1929.82 1909.14 1923.53 1916.41 1916.78 1922.93C1910.81 1928.7 1903.35 1937.41 1896.13 1941.43C1889.56 1945.09 1881.93 1939.3 1875.46 1936.87C1868.35 1934.21 1858.57 1932.97 1853.16 1927.12ZM1856.44 1960.2C1862.95 1957.5 1876.95 1966.58 1882.88 1968.94C1894.52 1973.58 1906.23 1978.43 1916.49 1985.75C1903.96 2000.23 1889.77 2013.47 1872.91 2022.77C1861.82 2028.89 1843.12 2035.9 1832.66 2024.79C1819.51 2010.84 1835.31 1982.39 1844.62 1970.43C1844.93 1972.47 1845.24 1974.52 1845.55 1976.57C1848.52 1971.81 1850.78 1962.56 1856.44 1960.2ZM2095.59 2084.11C2087.46 2085.82 2084.7 2084.28 2079.33 2078.05C2075.71 2073.84 2072.14 2069.46 2068.05 2065.68C2063.88 2061.81 2053.57 2052.49 2066.71 2057.86C2078.67 2062.75 2088.93 2065.19 2102.1 2063.28C2117.15 2061.09 2131.19 2054.72 2146.04 2051.5C2137.9 2058.62 2129.82 2065.81 2121.66 2072.91C2113.05 2080.41 2106.53 2081.81 2095.59 2084.11ZM2097.44 2141.38C2079.64 2154.78 2043.78 2153.33 2055.85 2123.84C2057.68 2119.37 2060.25 2115.15 2063.21 2111.34C2064.2 2110.06 2065.96 2107.42 2067.37 2106.57C2071.31 2104.18 2070.22 2103.89 2074.01 2107.87C2077.28 2111.31 2102.81 2139.38 2097.44 2141.38ZM2092.16 2090.15C2093.8 2089.62 2100.67 2085.63 2102.24 2087.84C2103.82 2090.07 2090.34 2097.79 2092.16 2090.15ZM2221.82 2294.52C2217.81 2304.1 2185.77 2317.96 2191.74 2298.65C2194.38 2290.1 2196.87 2283.62 2206.85 2282.97C2212.61 2282.6 2225.34 2286.08 2221.82 2294.52ZM2279.31 2164.69C2284.58 2157.01 2302 2146.63 2309.44 2158.08C2313.03 2163.6 2304.33 2166.43 2299.07 2165.01C2296.25 2164.24 2293.94 2162.56 2290.87 2162.43C2286.92 2162.27 2283.06 2165.36 2279.31 2164.69ZM2293.29 2172.32C2289.7 2175.95 2268.07 2194.15 2264.56 2191.34C2271.63 2181.25 2279.74 2169.97 2293.29 2172.32ZM2257.95 2356.52C2250.44 2356.95 2254.19 2345.63 2254.92 2341.1C2256.74 2344.26 2266.3 2356.05 2257.95 2356.52ZM2277.04 2336.23C2274.61 2331.91 2268.07 2325.47 2269.55 2319.91C2270.68 2315.66 2280.9 2309.94 2285.18 2312.38C2290.87 2315.62 2282.62 2336.95 2277.04 2336.23ZM2455.32 2290.89C2452.11 2301.96 2448.78 2299.11 2438.7 2301.25C2428.59 2303.4 2421.6 2311.99 2412.7 2316.59C2415.79 2310.05 2417.71 2302.09 2422.88 2296.79C2424.08 2295.56 2431.42 2293.15 2427.24 2290.31C2423.58 2287.83 2418.33 2295.88 2416.76 2298.07C2409.05 2308.86 2403.66 2322.04 2399.21 2334.46C2397.02 2340.56 2395.26 2346.77 2394.23 2353.18C2393.3 2358.88 2394.3 2364.86 2393.36 2370.41C2391.84 2379.37 2379.68 2379.41 2372.37 2381.72C2365.74 2383.81 2359.15 2386.08 2352.28 2387.2C2346.32 2388.18 2340.14 2386.4 2334.36 2387.57C2328.11 2388.84 2325.3 2392.56 2318.19 2391.72C2312.4 2391.03 2306.97 2388.37 2301.1 2388.1C2295.6 2387.86 2290.12 2389.76 2284.66 2388.21C2279.14 2386.65 2279.41 2386.04 2280.66 2380.62C2281.45 2382.09 2282.23 2383.55 2283.02 2385.01C2285.22 2383.29 2286.74 2378.03 2288.08 2375.57C2290.17 2371.74 2291.87 2370.42 2291.1 2365.66C2289.96 2358.63 2283.62 2353.63 2282.18 2346.95C2280.68 2339.97 2285.84 2334.27 2288.89 2328.45C2293.06 2320.47 2293 2314.56 2289.51 2306.32C2292.14 2307.01 2294.78 2307.71 2297.41 2308.41C2293.8 2300.57 2281.56 2303.75 2275.42 2306.07C2272.33 2307.23 2267.44 2311.82 2264.12 2311.7C2259.56 2311.54 2257.18 2305.54 2255.22 2302.24C2249.54 2292.68 2243.07 2283.25 2236.35 2274.38C2234.51 2271.94 2232.09 2270.37 2232.73 2267.59C2233.27 2265.23 2238.56 2261.88 2240.28 2260.43C2246.72 2254.98 2254.91 2251.97 2260.96 2246.24C2270.1 2237.58 2280.64 2231.38 2289.98 2222.89C2299.71 2214.05 2309.74 2205.93 2319.89 2197.57C2330.16 2189.11 2339.06 2179.14 2349.26 2170.59C2351.91 2175.38 2357.03 2192.53 2362.88 2193.86C2369.71 2195.4 2369.51 2187.32 2369.17 2182.46C2368.68 2175.54 2364.84 2168.81 2364.41 2162.2C2363.95 2155.13 2370.75 2151.97 2375.89 2147.88C2383.82 2141.56 2401.37 2127.17 2391.94 2115.33C2383.81 2105.12 2357.38 2124.68 2350.09 2130.57C2343.9 2135.56 2339.11 2140.08 2332.14 2144.03C2327.24 2146.8 2319.02 2157.45 2313.21 2156.47C2306.29 2155.3 2303.59 2147.75 2295.14 2148C2286.88 2148.24 2279.86 2154.19 2274.73 2160.17C2263.15 2173.67 2259.17 2191.74 2248.62 2205.82C2243.41 2212.76 2236.66 2218.49 2231.02 2225.05C2224.82 2232.26 2223.5 2240.56 2217.39 2247.62C2199.89 2224.32 2180.84 2202.25 2162.39 2179.72C2153.18 2168.47 2144.16 2157.08 2135.14 2145.67C2131.76 2141.39 2127.95 2137.38 2124.86 2132.89C2120.62 2126.73 2121.38 2121.79 2119.72 2114.93C2118.98 2111.89 2115.53 2108.25 2116.45 2105.34C2117.7 2101.44 2126.43 2098.37 2129.58 2096.77C2142.44 2090.25 2154.1 2082.09 2166.09 2074.12C2188.3 2059.35 2210.76 2045.51 2234.38 2032.9C2233.97 2038.33 2230.43 2043.96 2232.81 2049.41C2233.91 2046.28 2235.67 2032.31 2239.85 2031.71C2239.05 2031.82 2239.71 2049.62 2240.36 2052.16C2242.29 2059.74 2247.9 2064.93 2255.92 2064.88C2271.2 2064.78 2284.9 2048.16 2293.38 2037.15C2299.12 2029.7 2304.64 2021.03 2306.66 2011.7C2308.48 2003.32 2306.48 1997.5 2315.19 1993.24C2333.06 1984.52 2351.07 1977.41 2370.18 1972.78C2369.32 1981.02 2366.94 1991.15 2374.42 1997.08C2382.69 2003.61 2393.5 1997.79 2401.28 1993.46C2408.98 1989.18 2420.86 1977.41 2429.91 1980.83C2438.82 1984.19 2445.01 1995.35 2450 2002.77C2454.39 2009.3 2459.17 2014.01 2454.08 2021.29C2448.38 2029.46 2444.67 2037.42 2440.1 2046.29C2438.35 2049.69 2436.67 2051.92 2437.91 2055.41C2438.32 2056.54 2442.89 2063.29 2444.14 2064.25C2452.06 2070.42 2462.77 2058.69 2468.43 2054.23C2470.43 2073.42 2470.87 2092.51 2471.68 2111.76C2472.27 2125.85 2477.73 2139.72 2466.16 2150.03C2454.6 2160.33 2444.94 2170.9 2437.89 2184.85C2434.13 2192.3 2430.75 2199.94 2426.68 2207.24C2423.96 2212.11 2418.22 2219.26 2421.73 2225C2425.44 2221.48 2426.54 2216.13 2429.63 2212.17C2431.48 2220.4 2433.34 2229.53 2442.05 2233.01C2452.06 2237.02 2462.02 2230.08 2470.89 2226.22C2467.71 2248.22 2461.5 2269.59 2455.32 2290.89ZM2445.08 2316.18C2438.21 2330.87 2432 2348.58 2419.31 2359.39C2416.52 2361.77 2404.68 2371.04 2400.17 2369.49C2396.34 2368.17 2398.45 2360.44 2399.12 2357.13C2402.5 2340.32 2408.35 2329.74 2421.98 2319.02C2427.62 2314.58 2434.87 2308.9 2442.14 2307.81C2449.98 2306.63 2447.72 2310.53 2445.08 2316.18ZM2638.97 2664.84C2621.15 2640.61 2595.96 2621.78 2572.16 2603.57C2561.37 2595.33 2549.49 2589.14 2538.6 2580.9C2526.28 2571.57 2513.77 2562.58 2499.98 2555.55C2473.82 2542.22 2445.29 2532.93 2420.6 2517.18C2408.57 2509.49 2395.4 2502.07 2384.08 2493.44C2379.11 2489.65 2374.72 2484.8 2370.23 2480.46C2366.05 2476.43 2357.09 2470.57 2355.43 2464.67C2362.37 2463.53 2366.33 2456.79 2372.53 2456.11C2374.57 2455.88 2387.36 2459.26 2385.61 2453.06C2390.25 2452.94 2390.8 2452.87 2394.69 2451.86C2396.3 2451.44 2398.21 2452.09 2399.83 2451.52C2402.33 2450.64 2404.02 2448.1 2406.54 2447.12C2408.33 2446.43 2414.97 2447.2 2415.98 2446.34C2418.73 2443.99 2415.81 2444.2 2414.17 2441.27C2419.51 2441.13 2423.18 2443.83 2428.54 2440.96C2430.17 2440.09 2431.55 2438.07 2433.13 2437.03C2435.94 2435.17 2436.95 2438.05 2438.87 2434.2C2440.67 2439.51 2440.62 2438.04 2444.95 2436.48C2449.26 2434.92 2452.38 2433.8 2457.29 2433.41C2469.03 2432.48 2480.81 2433.91 2492.5 2433.07C2496.77 2432.77 2500.42 2431.8 2504.67 2432.36C2508.41 2432.85 2507.28 2435.45 2510.39 2431.95C2511.11 2431.13 2508.78 2428.9 2509.9 2427.73C2510.39 2427.22 2512 2427.58 2512.61 2427.32C2518.07 2424.93 2518.1 2428.26 2519.07 2432.6C2522.27 2431.85 2525.54 2431.17 2528.32 2429.29C2526.92 2428.04 2524.56 2426.65 2525.92 2424.36C2530.54 2426.11 2533.56 2425.3 2531.25 2430.38C2535.9 2431.91 2536.77 2429.91 2540.95 2429.47C2543.42 2429.21 2546.86 2430.75 2548.92 2428.77C2551.17 2426.62 2547.62 2424.28 2551.75 2422.43C2552.6 2422.86 2553.22 2423.51 2553.63 2424.38C2555.86 2425.05 2555.46 2425.93 2552.43 2427.01C2560.55 2431.22 2558.64 2426.51 2562.05 2421.54C2562.84 2420.39 2566.36 2416.83 2567.97 2418.55C2570.4 2421.16 2565.43 2421.99 2566.5 2424.58C2568.35 2429.08 2574.79 2423.32 2576.77 2421.04C2578.27 2419.32 2578.88 2416.02 2580.5 2414.73C2582.74 2412.95 2585.96 2415.71 2588.77 2415.21C2601.59 2412.96 2613.7 2395.73 2604.04 2384.19C2601.45 2381.08 2599.25 2381.7 2596.16 2379.74C2593.1 2377.81 2591.38 2374.46 2588.93 2371.7C2583.32 2365.39 2576.46 2360.67 2568.63 2357.64C2550.46 2350.64 2530.88 2345.52 2511.8 2341.76C2502.96 2340.02 2493.55 2337.35 2484.5 2337.37C2479.17 2337.38 2471.14 2341.53 2466.16 2339.54C2456.47 2335.68 2470.69 2315.92 2473.04 2309.54C2479.94 2290.79 2485.14 2270.8 2488.55 2251.11C2489.22 2247.26 2488.96 2242.27 2490.35 2238.6C2491.94 2234.38 2492.28 2234.97 2495.69 2234.63C2501.85 2234.01 2508.59 2237.24 2515.01 2236.12C2522.12 2234.89 2529.8 2235.46 2536.98 2233.26C2540.28 2232.25 2543.33 2231.15 2545.51 2228.37C2546.19 2227.5 2545.43 2226.74 2545.86 2226.13C2546 2225.93 2548.45 2223.29 2548.53 2223.13C2548.5 2221.77 2548.62 2220.41 2548.89 2219.06C2551.37 2221.13 2550.15 2225.46 2554.34 2225.56C2555.09 2220.94 2555.1 2220.01 2558.13 2217.41C2557.89 2217.61 2560.41 2215.47 2560.09 2215.7C2560.24 2214.88 2560.54 2214.11 2560.99 2213.4C2562.41 2212.72 2563.9 2212.35 2565.48 2212.31C2568.76 2208.94 2567.4 2207.15 2567.4 2202.61C2570.04 2203.99 2572.68 2205.36 2575.33 2206.73C2575.97 2193.3 2584.15 2185.95 2589.58 2175.06C2591.9 2170.42 2594.26 2166.8 2594.81 2161.2C2595.13 2157.97 2594.3 2155.13 2595.63 2152.08C2596.85 2149.32 2599.56 2147.84 2600.69 2144.83C2602.92 2138.91 2601.26 2131.36 2601.38 2125.22C2601.55 2116.7 2602.4 2108.2 2602.68 2099.69C2603.23 2082.97 2601.54 2065.78 2599.04 2049.26C2597.85 2041.35 2595.84 2033.68 2594.27 2025.86C2592.98 2019.43 2589.89 2013.41 2588.78 2007.43C2588.32 2004.94 2589.03 2002.71 2588.28 1999.96C2587.29 1996.35 2585.64 1992.8 2584.41 1989.25C2581.55 1980.96 2578.71 1972.68 2575.49 1964.53C2569.24 1948.71 2561.92 1933.37 2554.97 1917.87C2548.29 1902.95 2542.75 1887.58 2534.09 1873.65C2525.56 1859.93 2516.38 1846.45 2506.98 1833.32C2497.19 1819.65 2484.81 1807.9 2475.32 1794.1C2457.49 1768.19 2432.62 1746.84 2406.6 1729.21C2352.92 1692.82 2294.9 1656.5 2230.53 1644.02C2220.83 1642.15 2211 1640.84 2201.11 1640.6C2194.98 1640.45 2184.81 1643.41 2179.01 1641.34C2172.5 1639.01 2173.09 1631.71 2171.47 1625.97C2169.37 1618.61 2164.65 1613.78 2159.28 1608.57C2153.64 1603.09 2148.51 1596.69 2141.47 1592.96C2134.33 1589.18 2125.91 1587.77 2118.01 1586.63C2110.94 1585.61 2100.4 1586.56 2093.95 1583.49C2088.07 1580.68 2090.97 1577.77 2096.47 1580.17C2096.88 1577.74 2097.2 1576.17 2098.76 1574.3C2099.54 1573.36 2103.23 1572.03 2103.31 1571.16C2103.42 1570.13 2100.32 1567.19 2099.88 1565.87C2098.93 1563.01 2099.47 1559.05 2100.6 1556.37C2106.15 1561.29 2107.75 1563.48 2113.95 1558.77C2116.56 1556.78 2117.36 1555.9 2120.39 1554.9C2121.21 1554.62 2123.06 1555.47 2123.77 1554.99C2126.51 1553.19 2123.99 1553.62 2125.29 1551.49C2124.96 1552.02 2127.26 1546.36 2127.15 1547.55C2127.43 1544.53 2128.33 1545.46 2126.5 1541.75C2122.94 1534.51 2113.86 1534.21 2118.49 1525.94C2120.31 1522.69 2121.91 1523.01 2122.42 1518.29C2122.7 1515.76 2122.36 1512.85 2122.34 1510.27C2122.32 1504.99 2123.32 1501.3 2118.37 1498.61C2113.62 1496.03 2109.23 1498.86 2107.3 1492.45C2105.28 1485.73 2107.32 1477.11 2100.03 1472.5C2094.71 1469.14 2087.02 1472.01 2081.14 1470.37C2075.24 1468.72 2069.82 1462.69 2063.83 1467.32C2059.58 1470.61 2057.33 1478.7 2049.32 1474.33C2045.7 1472.35 2043.71 1465.73 2041.43 1462.01C2037.8 1456.09 2034.89 1453.95 2029.3 1459.72C2025.85 1463.28 2018.59 1471.94 2018.14 1476.86C2017.65 1482.3 2022.4 1484.57 2016.44 1487.79C2010.52 1490.99 2007.19 1488.64 2002.38 1495.14C1997.61 1501.58 2001.3 1505.14 1995.78 1511.31C1988.87 1519.01 1985.19 1522.34 1985.29 1532.72C1985.36 1539.85 1979.06 1546 1982.74 1552.75C1986.85 1560.33 1998.86 1563.48 2006.14 1566.56C2003.71 1571.05 2000.37 1573.93 2003.21 1578.55C2005.78 1582.74 2013.05 1583.61 2017.55 1582.84C2020.58 1582.34 2020.69 1582.79 2023.07 1580.66C2024.64 1579.27 2022.49 1577.53 2025.71 1576.76C2029.13 1575.93 2034.6 1582.64 2036.82 1584.32C2031.86 1590.76 2018.21 1591.97 2010.99 1595.24C2006.59 1597.23 2002.55 1600.18 1998.07 1601.96C1994.01 1603.57 1989.06 1603.2 1985.38 1605.7C1979.01 1610.02 1976.37 1620.72 1972.47 1627.01C1968.05 1634.13 1963.77 1637.44 1955.3 1638.91C1944.73 1640.76 1936.23 1641.5 1926.37 1646.1C1914.34 1651.72 1902.48 1657.65 1890.66 1663.71C1871.59 1673.48 1853.88 1683.51 1836.18 1695.32C1817.66 1707.68 1799.65 1720.59 1781.78 1733.51C1764.11 1746.28 1749.27 1762 1733.91 1777.45C1721.5 1789.94 1710.61 1803.42 1698.25 1815.91C1683.65 1830.65 1672.92 1849.26 1659.39 1864.9C1651.98 1873.46 1644.9 1881.87 1640.25 1891.95C1636.49 1900.12 1629.94 1908.14 1625.57 1916.71C1619.98 1927.67 1614.7 1938.46 1608.43 1949.05C1605.86 1953.4 1602.8 1957.13 1600.08 1961.29C1596.6 1966.6 1596.81 1971.74 1595.87 1977.86C1594.9 1976.37 1593.92 1974.87 1592.94 1973.38C1591.17 1977.25 1589.03 1981.05 1587.5 1985.01C1586.52 1987.54 1586.67 1991.13 1585.69 1993.34C1584.45 1996.11 1582.95 1995.75 1581.41 1998.06C1579.77 2000.53 1579.24 2003.85 1577.51 2006.5C1570.01 2017.96 1567.13 2032.5 1563.28 2045.57C1558.12 2063.12 1558.93 2083.28 1559.21 2101.36C1559.51 2120.47 1560.55 2139.57 1563.43 2158.47C1566.03 2175.59 1571.59 2192.01 1580.3 2207.02C1587.89 2220.1 1598.36 2227.72 1611.77 2234.42C1617.92 2237.5 1623.64 2236.55 1630.1 2237.04C1637.18 2237.58 1642 2239.5 1649.49 2237.81C1653.08 2236.99 1654.78 2234.38 1657.64 2233.51C1659.41 2232.97 1660.36 2233.85 1662.05 2233.64C1664.48 2233.35 1669.53 2232.16 1672.16 2232.45C1680.35 2233.34 1678.97 2245.72 1679.78 2252.04C1681.02 2261.77 1681.93 2271.61 1683.6 2281.28C1687.12 2301.63 1694.71 2320.63 1699.19 2340.62C1678.4 2343.16 1660.56 2347.04 1641.07 2354.91C1621.52 2362.8 1601.75 2365.48 1581.18 2369.41C1561.93 2373.08 1543.41 2379.93 1528 2392.36C1520.78 2398.18 1513.28 2405 1518.58 2414.58C1521.97 2420.72 1528.09 2422.28 1533.36 2425.84C1534.43 2424.49 1531.35 2421.63 1530.78 2420.84C1535.22 2421.75 1535.08 2423.82 1538.32 2425.62C1541.15 2427.2 1543.47 2427.14 1546.57 2428.25C1554.14 2430.97 1557.86 2437.75 1565.34 2439.66C1567.69 2440.26 1570.77 2441.69 1573.17 2442.1C1576.06 2442.58 1578.23 2441.32 1581.16 2441.86C1582.74 2442.9 1584.45 2443.64 1586.29 2444.09C1587.49 2443.53 1588.68 2442.94 1589.86 2442.32C1594.06 2442.75 1596.67 2445.4 1600.08 2447.58C1600.31 2444.84 1599.98 2441.99 1602.58 2440.2C1603.59 2442.87 1601.95 2444.55 1604.72 2446.39C1608.22 2448.71 1612.82 2445.81 1615.96 2444.34C1616.84 2453.2 1637.35 2452.67 1643.85 2452.55C1652.86 2452.37 1661.85 2448.8 1670.93 2450.8C1675.57 2451.81 1680.51 2452.87 1685.12 2454.19C1690.68 2455.78 1697.39 2457.2 1702.86 2459.2C1705.03 2459.99 1707.7 2462.54 1710.01 2462.37C1711.85 2462.23 1712.35 2459.52 1714.49 2459.59C1716.92 2459.68 1717.73 2462.39 1719.83 2463.2C1722.98 2464.42 1725.87 2462.1 1728.86 2463.27C1729.93 2463.69 1731.38 2465.49 1732.76 2466.08C1734.85 2466.97 1738.97 2466.98 1741.3 2467.41C1744.59 2468.02 1747.53 2467.61 1750.35 2467.81C1752.63 2467.97 1752.58 2469.5 1753.67 2469.6C1754.91 2469.71 1757.09 2465.42 1758.76 2464.79C1761.21 2463.88 1765.64 2466.06 1768.13 2466.44C1750.09 2490.89 1728.33 2512.51 1704.75 2531.43C1679.32 2551.84 1653.27 2572.23 1626 2590.13C1601.23 2606.39 1577.26 2620.45 1558.06 2643.4C1541.87 2662.75 1516.1 2683.45 1520.07 2711.5C1524.04 2739.52 1554.47 2750.93 1578.86 2756.28C1609.53 2763.01 1641.11 2760.3 1671.86 2764.08C1684.98 2765.7 1699.55 2764.84 1712.75 2763.46C1728.35 2761.84 1741.71 2751.66 1755.12 2744.31C1779.23 2731.07 1799.85 2713.36 1823.6 2699.72C1853.34 2682.63 1882.76 2664.52 1915.37 2653.08C1930.53 2647.75 1946.15 2641.68 1958.38 2630.72C1960.2 2629.09 1961.56 2626.64 1963.62 2625.29C1967.11 2623.01 1968.05 2625.32 1970.08 2624.63C1971.64 2624.1 1973.16 2622.41 1974.51 2621.91C1977.93 2620.63 1979.45 2621.15 1983.28 2621.15C1980 2619.26 1976.99 2614.37 1980.4 2610.39C1986.24 2603.57 1987.25 2614.47 1989.44 2617C1991.3 2614.61 1990.59 2612.48 1990.12 2609.76C1991.69 2610.8 1993.26 2611.84 1994.83 2612.88C1993.75 2607.62 1994.78 2602.78 1997.57 2598.19C2000.14 2593.97 2000.77 2594.57 2001.48 2588.72C2009.46 2596 2011.02 2578.32 2011.73 2571.88C2012.43 2565.63 2011.74 2561.14 2015.85 2555.68C2020.27 2549.81 2026.98 2546.1 2032.58 2541.54C2041.43 2534.34 2051.16 2525.25 2063.4 2532.15C2073.06 2537.61 2078.32 2550.98 2087.38 2557.84C2092.88 2562.01 2098.68 2562.43 2102.18 2568.9C2105.02 2574.12 2105.94 2580.37 2108.61 2585.74C2115.09 2598.74 2124.42 2613.62 2135.06 2623.59C2144.97 2632.87 2157.69 2632.82 2169.28 2638.58C2180.75 2644.28 2192.68 2650.46 2204.82 2654.59C2218.09 2659.1 2232.4 2661.02 2245.31 2666.49C2251.96 2669.3 2257.9 2673.53 2264.6 2676.23C2271.83 2679.13 2279.44 2681.18 2286.77 2683.83C2315.79 2694.37 2344.19 2707.3 2374.68 2713.14C2388.2 2715.73 2400.72 2722.77 2414.34 2724.25C2420.18 2724.89 2424.95 2725.69 2430.67 2727.15C2439.64 2729.44 2437.74 2730.66 2441.04 2738.14C2446.48 2750.45 2459.75 2743.16 2469.99 2743.47C2486.37 2743.96 2502.5 2741.32 2518.85 2741.19C2547.45 2740.97 2574.99 2737.75 2602.66 2728.36C2630.43 2718.93 2662.06 2696.22 2638.97 2664.84Z" fill="black"/>
<path fill-rule="evenodd" clip-rule="evenodd" d="M2308.37 1703.03C2309.68 1703.66 2308.77 1703.42 2308.37 1703.03Z" fill="black"/>
<path fill-rule="evenodd" clip-rule="evenodd" d="M1804.59 2227.34C1810.8 2221.04 1837.23 2222.31 1839.23 2233.57C1841.46 2246.14 1817.84 2265.12 1809.2 2270.44C1798.08 2277.29 1784.5 2278.57 1786.47 2261.38C1787.96 2248.39 1795.75 2236.3 1804.59 2227.34ZM1826.42 2214.38C1827.22 2217.86 1821.28 2216.68 1819.65 2215.85C1818.88 2214.27 1825.61 2210.88 1826.42 2214.38ZM1780.84 2237.43C1786.11 2237.9 1792.15 2229.44 1796.13 2226.56C1797.89 2229.28 1786.3 2244.21 1785.02 2247.62C1781.83 2256.13 1780.06 2266.89 1784.4 2275.38C1797.09 2300.19 1829.57 2264.76 1837.69 2252.38C1843.38 2243.72 1847.31 2232.99 1839.28 2224.51C1836.43 2221.49 1831.7 2220.65 1829.05 2217.77C1825.55 2214 1828.31 2209.12 1821.28 2209.95C1816.43 2210.52 1810.61 2214.89 1805.9 2216.47C1800.22 2218.38 1795.11 2220.35 1790.15 2223.89C1789.03 2224.68 1774.33 2236.84 1780.84 2237.43Z" fill="black"/>
<path fill-rule="evenodd" clip-rule="evenodd" d="M2153.41 2245.75C2150.1 2262.8 2133.2 2280.29 2115.42 2280.97C2097.72 2281.65 2091.98 2263.1 2095.11 2248.32C2097.77 2235.71 2108.67 2213.8 2124.22 2216.22C2136.45 2218.11 2156.25 2231.14 2153.41 2245.75ZM2142.13 2217.26C2130.91 2208.57 2115.4 2204.56 2102.39 2211.45C2098.12 2213.71 2081.09 2223.67 2086.27 2230.42C2093.26 2225 2099.29 2217.49 2108.37 2215.69C2106.85 2222.73 2098.13 2229.06 2095.05 2235.91C2091.46 2243.92 2089.5 2253.08 2090.08 2261.88C2091.13 2277.54 2101.62 2289.7 2117.86 2287.55C2132.73 2285.58 2145.73 2274.18 2152.82 2261.38C2162.29 2244.27 2156.95 2228.72 2142.13 2217.26Z" fill="black"/>
<path fill-rule="evenodd" clip-rule="evenodd" d="M2037.89 2284.51C2029.89 2296.34 2017.7 2307.47 2003.61 2311.13C1985.37 2315.86 1990.5 2300.78 1995.95 2289.97C2000.77 2280.4 2009.04 2263.95 2021.63 2264.04C2025.9 2264.07 2033.86 2266.13 2037.61 2268.42C2044.99 2272.92 2042.09 2278.28 2037.89 2284.51ZM2020.86 2258.5C2023.73 2255.31 2036.43 2241.61 2038.13 2252.29C2041.78 2248.06 2038.9 2244.55 2034.23 2244.11C2028.6 2243.57 2022.44 2249.84 2018.38 2252.95C2010.01 2259.36 2003.57 2265.93 1998.03 2274.92C1991.91 2284.83 1976.33 2307.22 1989.97 2317.05C2004.71 2327.68 2026.17 2308.05 2035.4 2297.93C2041.31 2291.45 2049.13 2281.95 2046.88 2272.45C2044.12 2260.79 2030.56 2259.57 2020.86 2258.5Z" fill="black"/>
<path fill-rule="evenodd" clip-rule="evenodd" d="M1957.95 2067.81C1949.7 2077.22 1932.94 2090.93 1919.13 2089.32C1906.54 2087.84 1911.45 2073.71 1915.91 2066.87C1922.61 2056.59 1931.58 2046.94 1944.54 2046.37C1950.14 2046.13 1957.39 2046.24 1961.72 2050.48C1967.64 2056.27 1962.31 2062.84 1957.95 2067.81ZM1957.07 2041.66C1947.41 2038.32 1943.61 2037.05 1934.22 2042.36C1926.68 2046.62 1919.99 2052.64 1914.81 2059.48C1907.07 2069.72 1899.25 2092.75 1919.14 2095.63C1940.96 2098.79 1992.86 2054.03 1957.07 2041.66Z" fill="black"/>
<path fill-rule="evenodd" clip-rule="evenodd" d="M1986.81 2100.42C1980.54 2106.83 1972.7 2112.06 1963.76 2113.84C1967.54 2105.4 1975.99 2086.96 1986 2084.39C1990.62 2083.21 1995.88 2084.76 1995.5 2090.02C1995.23 2093.82 1989.29 2097.89 1986.81 2100.42ZM1994.89 2078.11C1989.69 2075.5 1991.33 2073.73 1985.29 2075.77C1980.52 2077.38 1974.51 2080.17 1970.54 2083.39C1968.38 2085.14 1961.64 2091.37 1962.46 2094.53C1963.96 2100.29 1968.99 2091.47 1970.31 2089.77C1972.57 2091.62 1960.99 2108.19 1960.3 2110.91C1957.74 2121.07 1965.71 2122.14 1973.52 2118.82C1984.05 2114.34 2015.25 2088.31 1994.89 2078.11Z" fill="black"/>
<path fill-rule="evenodd" clip-rule="evenodd" d="M2149.36 2351.34C2150.14 2344.61 2151.25 2337.5 2157.43 2333.72C2163 2330.31 2168.76 2330.8 2169.59 2337.79C2170.35 2344.28 2163.99 2355.81 2158.85 2359.35C2151.68 2364.28 2150.3 2358.13 2149.36 2351.34ZM2158.57 2366.66C2173.27 2358.06 2182.54 2318.6 2155.44 2329.66C2140.03 2335.94 2145.69 2374.19 2158.57 2366.66Z" fill="black"/>
<path fill-rule="evenodd" clip-rule="evenodd" d="M2032.96 2203.03C2035.28 2198.28 2037.94 2196.7 2042.64 2194.62C2039.5 2197.58 2036.3 2200.32 2032.96 2203.03ZM2036.36 2191.32C2033.03 2194.66 2025.39 2199.76 2026.46 2205.5C2027.44 2210.73 2031.44 2210.43 2035.07 2208.8C2042.68 2205.38 2046.92 2190.4 2054.88 2189C2046.05 2183.4 2043.99 2183.66 2036.36 2191.32Z" fill="black"/>
<path fill-rule="evenodd" clip-rule="evenodd" d="M2037.53 1893.84C2037.95 1909.79 2038.32 1925.74 2038.68 1941.7C2038.8 1947.3 2037.46 1955.29 2039.14 1960.66C2039.89 1963.03 2046.61 1973.28 2048.99 1973.95C2057.33 1976.27 2054.35 1955.36 2054.41 1950.21C2054.61 1932.84 2054.36 1915.45 2054.29 1898.08C2054.25 1889.13 2056.78 1814.07 2045.16 1814.44C2043.16 1814.5 2038.23 1823.08 2037.49 1824.8C2035.15 1830.21 2036.01 1838.22 2036.07 1843.98C2036.22 1860.59 2037.09 1877.23 2037.53 1893.84Z" fill="black"/>
<path fill-rule="evenodd" clip-rule="evenodd" d="M2107.86 1940.34C2108.52 1944.75 2108.17 1952.11 2113.14 1954.39C2117.46 1956.38 2119.12 1954.02 2120.73 1950.32C2124.45 1941.82 2123.11 1928.82 2123.04 1920.03C2122.9 1902.61 2120.94 1885.26 2119.58 1867.91C2118.99 1860.29 2120.23 1852.64 2119.27 1844.68C2118.86 1841.18 2118.44 1827.11 2111.96 1827.77C2106.09 1828.36 2106.62 1843.1 2106.3 1846.9C2103.65 1878.52 2103.18 1908.78 2107.86 1940.34Z" fill="black"/>
<path fill-rule="evenodd" clip-rule="evenodd" d="M2384.55 2303.46C2382.07 2316.16 2341.53 2360.38 2331.32 2335.65C2325.27 2320.98 2338.4 2305 2348.63 2296.51C2354.97 2291.25 2362.88 2286.09 2371.51 2287.68C2378.84 2289.03 2386.13 2295.39 2384.55 2303.46ZM2363.62 2280.68C2360.76 2281.36 2336.82 2298.16 2336.61 2297.94C2334.53 2295.85 2349.62 2273.36 2351.17 2271.39C2363.97 2255.18 2372.46 2267.45 2380.47 2280.2C2378.76 2272.59 2374.07 2261.54 2366.24 2258.32C2356.35 2254.26 2348.63 2264.28 2343.87 2271.5C2337.14 2281.69 2333.44 2292.75 2329.7 2304.25C2327.92 2309.74 2325.88 2314.71 2322.87 2319.65C2319.89 2324.53 2314.68 2329.91 2315.44 2336.09C2319.68 2333.73 2321.93 2329.13 2324.6 2325.33C2327.57 2326.53 2326.55 2336.03 2327.16 2338.44C2328.68 2344.51 2332.82 2349.26 2339.24 2350.31C2351.2 2352.25 2364.11 2341.19 2372.1 2333.68C2380.53 2325.76 2389.59 2314.91 2389.52 2302.73C2389.44 2290 2376.92 2277.53 2363.62 2280.68Z" fill="black"/>
<path fill-rule="evenodd" clip-rule="evenodd" d="M2396.04 2076.62C2389.25 2087 2377.35 2099.44 2364.75 2101.85C2355.51 2103.62 2349.41 2096.77 2353.12 2087.52C2356.26 2079.71 2366.95 2074.77 2373.95 2071.33C2379.51 2068.6 2405.43 2062.25 2396.04 2076.62ZM2391.05 2059.64C2377.15 2059.11 2365.94 2069.16 2355.58 2077.17C2357.92 2067.96 2363.21 2057.94 2370.67 2051.95C2380.81 2043.79 2390.43 2048.86 2401.11 2052.94C2398.47 2044.62 2386.64 2041.63 2379.11 2042.81C2369.58 2044.29 2362.73 2052.42 2357.92 2060.29C2352.17 2069.67 2350.2 2080.73 2343.44 2089.54C2340.34 2093.56 2321.17 2108.64 2325.51 2114.8C2332.67 2107.2 2339.84 2099.6 2347 2092C2348.86 2100.98 2350.9 2111.21 2362.38 2110.34C2371.54 2109.64 2381.99 2101.85 2388.69 2095.9C2397.34 2088.21 2414.37 2060.52 2391.05 2059.64Z" fill="black"/>
<path fill-rule="evenodd" clip-rule="evenodd" d="M2196.37 2148.28C2190.48 2150.99 2177.52 2154.67 2174.23 2146.53C2169.66 2135.24 2184.37 2115.43 2191.38 2107.91C2195.68 2103.28 2198.61 2100.88 2204.61 2103.88C2209.41 2106.27 2216.45 2113.07 2218.29 2118.3C2222.24 2129.52 2205.58 2144.05 2196.37 2148.28ZM2209.88 2094.04C2214.67 2095.12 2215.26 2101.21 2209.26 2098.87C2204.77 2097.12 2203.73 2092.65 2209.88 2094.04ZM2215.89 2102.61C2214.1 2097.15 2217.75 2088.59 2208.93 2088.19C2203.93 2087.97 2194.78 2093.05 2190.42 2095.11C2184.38 2097.97 2178.69 2102.34 2175.53 2108.49C2172.61 2114.19 2174.69 2115.69 2179.15 2110.96C2179.7 2111.33 2169.07 2138.73 2168.98 2141.48C2168.56 2154.03 2177.44 2162.29 2189.92 2160.07C2201.39 2158.02 2211.72 2148.65 2218.03 2139.18C2221.23 2134.39 2223.85 2128.91 2224.09 2123.04C2224.45 2114.04 2218.45 2110.43 2215.89 2102.61Z" fill="black"/>
<path fill-rule="evenodd" clip-rule="evenodd" d="M2270.9 2098.01C2266.06 2088.69 2277.27 2073.02 2287.31 2077.6C2308.21 2087.15 2277.24 2110.22 2270.9 2098.01ZM2289.67 2085.85C2287.43 2085.94 2273.25 2091.42 2275.34 2095.13C2278.2 2100.22 2288.55 2087.9 2289.67 2085.85Z" fill="black"/>
<path fill-rule="evenodd" clip-rule="evenodd" d="M1604.15 2068.63C1603.59 2064.66 1594.7 2070.42 1594.75 2072.98C1596.22 2070.04 1605.32 2076.9 1604.15 2068.63Z" fill="black"/>
<path fill-rule="evenodd" clip-rule="evenodd" d="M2090.64 1768.8C2101.96 1767.97 2087.53 1710.85 2079.28 1715.9C2070.33 1721.38 2080.25 1769.57 2090.64 1768.8Z" fill="black"/>
<path fill-rule="evenodd" clip-rule="evenodd" d="M2111.79 1742.13C2122.4 1743.65 2120.71 1719.29 2115 1714.93C2104.47 1706.88 2098.91 1740.29 2111.79 1742.13Z" fill="black"/>
</svg>
