<svg width="415" height="155" viewBox="0 0 415 155" fill="none" xmlns="http://www.w3.org/2000/svg">
<path d="M190.003 139.434L190.005 139.139L190.339 138.106L190.672 137.074L190.778 136.484L190.884 135.894L191.477 134.42L192.069 132.945L192.546 131.544L193.023 130.143L193.899 127.71L194.774 125.276L195.04 124.698L195.306 124.12L195.893 123.356L196.481 122.593L197.451 121.944L198.421 121.295L198.795 121L199.168 120.705L199.578 120.381L199.988 120.058L201.611 119.746L203.235 119.433L205.629 119.446L208.022 119.459L209.646 119.144L211.27 118.829L212.895 118.462L214.519 118.094L216.673 117.672L218.828 117.25L219.297 117.096L219.766 116.942L221.321 116.565L222.876 116.188L223.314 115.922L223.751 115.655L225.02 115.106L226.289 114.557L228.311 113.24L230.333 111.923V111.732V111.542L228.739 109.267L227.145 106.991L226.602 106.238L226.059 105.484V105.4V105.317L225.423 104.384L224.787 103.452L224.66 103.373L224.533 103.294L224.256 102.721L223.978 102.148L222.175 99.7029L220.373 97.2581L219.399 95.9309L218.426 94.6036L217.952 93.8903L217.479 93.177L216.112 91.4864L214.745 89.7958L213.818 88.7341L212.891 87.6725L212.187 86.4314L211.483 85.1904L211.366 84.3389L211.25 83.4873L211.455 83.1466L211.659 82.806L211.748 79.8565L211.836 76.9071L212.123 75.8057L212.411 74.7043L213.093 73.1512L213.775 71.5981L214.773 69.8285L215.772 68.0589L216.623 65.8468L217.475 63.6347L218.335 61.5701L219.194 59.5056L219.956 57.6622L220.718 55.8188L221.412 54.4178L222.105 53.0168L222.829 51.2472L223.554 49.4775L223.68 47.118L223.806 44.7584L223.991 43.8626L224.175 42.9667L224.497 42.1667L224.819 41.3666L225.302 40.4818L225.785 39.597L226.298 38.8596L226.811 38.1223L227.632 37.2394L227.965 36.4985L227.876 36.1411L227.768 35.8475L227.034 35.0677L226.301 34.288L223.316 32.9128L220.331 31.5377L219.134 30.7623L217.937 29.9868L217.591 29.8274L217.245 29.6679L215.972 29.2842L214.699 28.9006L212.984 28.1818L211.27 27.463L208.876 26.6893L206.483 25.9157L205.355 25.4293L204.227 24.9429L203.697 24.5578L203.167 24.1728L202.738 23.4054L202.309 22.6379L202.033 21.2394L201.757 19.8409L201.622 19.691L201.487 19.5411L200.931 17.6977L200.376 15.8543L200.147 15.2436L199.917 14.633L199.809 13.8427L199.7 13.0524L199.462 11.9463L199.223 10.8403L198.959 9.808L198.695 8.77569L198.421 7.62282L198.147 6.46994L198.336 6.11125L198.526 5.75255H198.743H198.961L199.395 6.23184L199.83 6.71113L200.336 7.41134L200.841 8.11157L200.986 8.11182L201.132 8.1121L200.751 7.55906L200.37 7.00605L200.233 6.60051L200.096 6.19495H200.137H200.177L200.841 7.07979L201.505 7.9646H201.619H201.734L201.832 7.25269L201.929 6.54078L201.763 5.90332L201.597 5.26587L201.687 4.66124L201.778 4.05664L201.866 3.21795L201.955 2.37927L202.057 2.14877L202.16 1.9183L202.27 1.92018L202.38 1.92206L202.564 2.03044L202.748 2.13883L203.162 2.65497L203.577 3.17112H203.833H204.09L204.14 3.91569L204.19 4.66022L204.623 5.09407L205.055 5.52792L205.149 5.93482L205.243 6.34177H205.453H205.662L205.765 4.88874L205.867 3.43575L206.151 2.82362L206.435 2.21145L206.949 1.83874L207.462 1.466L207.827 1.56368L208.193 1.66134L208.653 2.10119L209.113 2.54107L209.047 3.32423L208.98 4.10737L209.313 4.70125L209.646 5.29513V5.44971V5.6043H209.817H209.988L209.993 5.9361L209.999 6.26791L210.269 5.97297L210.54 5.67803L210.856 5.07898L211.173 4.47993L211.54 4.19415L211.908 3.90838L212.04 3.6101L212.173 3.31179L212.619 3.27986L213.066 3.24793L213.093 3.87305L213.12 4.49814L213.099 4.71934L213.079 4.94054L213.058 7.5443L213.037 10.1481L212.889 10.7135L212.741 11.2789L213.117 11.6334L213.493 11.988L215.49 13.2794L217.486 14.5708L218.396 14.8641L219.306 15.1574L221.101 15.4768L222.896 15.7963L224.606 16.181L226.315 16.5656L228.18 17.2139L230.045 17.8621L230.721 18.1595L231.397 18.4569L232.361 18.7274L233.325 18.9979L234.009 19.2436L234.693 19.4893L236.659 20.3418L238.625 21.1943L239.736 21.5311L240.847 21.868L243.35 21.883H244.907L245.385 21.8085L246.101 21.9476L246.318 22.0456L247.173 21.9476L248.626 21.8488L250.079 21.75L251.447 20.9236L252.815 20.0972L254.761 19.1746L256.707 18.2519L257.838 17.5473L258.969 16.8428L261.208 15.7933L263.446 14.7439L264.712 14.3689L265.979 13.994L267.603 13.6338L269.227 13.2736L269.964 13.2722L270.701 13.2709L270.605 13.4046L270.509 13.5384L271.15 13.3896L271.792 13.2409L273.587 12.7932L275.382 12.3457L278.203 11.485L281.024 10.6243L282.391 10.3337L283.759 10.0431L285.282 9.87034L286.804 9.69753L291.864 9.78807L296.923 9.87861L301.796 10.0127L306.668 10.1468L307.779 10.302L308.891 10.4571L310.173 10.6882L311.455 10.9192L312.908 11.2997L314.362 11.6802L317.183 12.616L320.005 13.5516L322.112 14.0747L324.219 14.5977L325.274 14.9517L326.329 15.3057L329.064 16.2111L331.8 17.1164L333.168 17.5756L334.535 18.0347L336.564 18.8336L338.593 19.6324L338.968 19.7554L339.344 19.8785L339.274 19.4676L339.204 19.0567L339.955 18.4126L340.706 17.7684L341.382 17.2987L342.058 16.8289L342.609 15.7502L343.16 14.6715L343.848 13.3725L344.537 12.0734L345.027 11.8542L345.225 11.4791L345.126 11.3416L345.028 11.2041L345.298 11.1145L345.568 11.0249L345.523 10.7836L345.477 10.5423L345.712 10.5851L345.693 10.5818L346.03 10.321L346.48 9.73426L346.93 9.14753L346.913 8.86552V8.62528L347.358 8.18285L347.576 8.26571L347.92 7.90611L347.843 7.73311L347.766 7.56012L348.866 6.6918L349.966 5.82347L351.329 5.19818L352.691 4.57292L353.358 4.11435L354.025 3.65581L354.623 3.39365L355.222 3.13147L356.504 2.73088L357.786 2.33028L359.154 2.15033L360.522 1.9704L362.231 2.01979L363.941 2.06919L365.566 2.15804L367.191 2.24688L369.071 1.99429L370.95 1.74166L371.891 1.53108L372.831 1.3205L373.344 1.40597L373.857 1.49162L374.307 1.64058L374.757 1.78953L375.931 1.36239L377.105 0.935249L377.874 0.762636L378.644 0.590008L380.746 0.295011L382.848 0L383.636 0.152521L384.425 0.305043L385.552 0.310675L386.679 0.316321L387.155 0.472783L387.631 0.629246L387.326 0.923412L387.021 1.21758L386.362 1.57852L385.704 1.93947L384.353 3.06489L383.002 4.19032L383.275 4.32162L383.547 4.4531L383.976 4.38248L384.405 4.31184L386.504 4.50021L388.602 4.68855L388.996 4.87057L389.39 5.05258L388.932 5.34046L388.474 5.6283V5.82717V6.02604L388.989 6.34231L389.504 6.65855L389.376 6.83155L389.249 7.00454L389.247 7.14654L389.245 7.28854L388.647 7.41872L388.048 7.54889L386.704 8.07319L385.359 8.59748L384.225 8.61249L383.09 8.62753L381.808 8.51783L380.526 8.40814L380.297 8.53436L380.069 8.66059L381.506 9.33095L382.944 10.0013L384.043 10.6563L385.142 11.3112L386.424 11.8671L387.706 12.4229L387.792 12.5185L387.877 12.6142L388.471 13.0354L389.064 13.4566V13.7678V14.079L388.129 14.2599L387.193 14.4408L385.569 14.4689L383.945 14.4971L382.795 14.0324L381.645 13.5677H381.292H380.94L380.305 13.2893L379.671 13.0108L378.992 12.8499L378.314 12.6889L378.162 12.8196L378.01 12.9503L378.697 13.5909L379.383 14.2314L380.068 14.6738L380.753 15.1162L380.951 15.3897L381.149 15.6632L380.966 15.5654L380.782 15.4675V15.611V15.7545L381.287 16.6152L381.792 17.4759L381.843 17.9183L381.894 18.3607L381.491 18.4099L381.087 18.4591L380.636 18.1074L380.184 17.7556L379.158 17.4099L378.132 17.0642L375.825 16.0997L373.516 15.1352L372.818 15.1221L372.119 15.109L371.565 14.7068L371.011 14.3047H370.884H370.758L370.13 13.8227L369.501 13.3407L368.905 13.0637L368.309 12.7866L367.191 13.103L366.074 13.4193L365.043 13.7807L364.012 14.1421L363.164 14.6788L362.317 15.2156L362.359 15.4325L362.119 15.4523L362.062 15.5695L360.78 16.4062L359.498 17.2428L358.804 17.8062L358.11 18.3696L357.494 19.692L356.877 21.0145L356.345 22.0323L355.813 23.0501L355.219 23.7479L354.625 24.4458V24.5707V24.6956L353.986 26.0886L353.347 27.4815L352.702 27.7136L352.057 27.9457L352.101 28.1187L352.146 28.2917L353.514 29.5271L354.881 30.7625L355.69 31.6398L356.499 32.5172L357.341 33.4399L358.182 34.3627L359.506 36.0944L360.829 37.8261L363.164 40.8493L365.498 43.8724L366.564 45.7895L367.63 47.7067L368.208 48.6652L368.786 49.6238L369.477 51.1227L370.168 52.6218L371.105 55.0307L372.043 57.4397L372.157 57.9928L372.272 58.5458L372.296 58.5457L372.32 58.5456L374.178 58.0259L376.036 57.5062L377.329 56.9911L378.621 56.4761L379.177 56.1099L379.734 55.7439H379.933H380.131L380.671 55.4208L381.21 55.0979L383.347 53.6304L385.484 52.163L386.561 51.262L387.639 50.3611L387.531 50.6561L387.422 50.951L387.879 50.5086L388.336 50.0662L388.835 49.1713L389.334 48.2765L389.915 46.0007L389.729 45.2243L389.647 45.1529L390.152 43.7755L390.657 42.398L390.919 41.292L391.181 40.1859L391.383 39.2274L391.585 38.2688L391.768 37.8264L391.951 37.384L392.613 36.2213L393.274 35.0586L393.61 34.6904L393.946 34.3223L394.124 33.7148L394.303 33.1073L394.467 32.7755L394.631 32.4437L394.798 32.1119L394.964 31.7801L395.731 29.7575L396.498 27.735L396.848 27.1435L397.198 26.5521L398.265 25.5286L399.332 24.5051L400.267 23.1625L401.203 21.8199L401.948 21.0855L402.692 20.3511H403.001H403.31L403.883 20.1433C404.251 19.9418 404.397 19.9574 404.74 20.0669L405.025 20.1982L405.873 21.1226L406.721 22.0471L408.048 24.038L409.375 26.0289L410.062 27.0612L410.75 28.0935L411.215 28.6833L411.68 29.2732L412.046 29.8955L412.412 30.5177L412.678 31.3702L412.943 32.2226L413.096 33.5499L413.249 34.8771L413.69 36.4255L414.131 37.974L414.298 39.5962L414.466 41.2184L414.64 42.0294L414.813 42.8405L414.907 45.79L415 48.7394L414.731 51.9702L414.462 55.2011V57.6783V60.1555L413.936 62.3364L413.411 64.5173L412.803 65.919L412.196 67.3207L411.173 69.0904L410.15 70.86L408.937 72.3347L407.724 73.8094L405.15 76.0215L402.576 78.2336L399.843 80.0896L397.109 81.9456L395.229 83.0181L393.348 84.0904L392.408 84.784L391.468 85.4776L389.16 86.9513L386.852 88.4251L385.74 89.0688L384.629 89.7125L382.919 90.8446L381.21 91.9768L379.05 93.2898L376.89 94.6028L374.605 96.1135L372.32 97.6242L370.867 98.6513L369.413 99.6783L368.711 99.9918L368.008 100.305L367.093 102.013L366.178 103.721L365.146 105.21L364.113 106.699L363.269 107.729L362.425 108.76L361.483 109.719L360.542 110.677L358.121 112.815L355.701 114.954L355.401 115.617L355.101 116.281L354.865 116.945L354.629 117.608L354.627 117.952L354.625 118.296L354.133 119.279L353.642 120.263L353.54 121.379L353.438 122.495L353.793 123.075L354.149 123.655L355.324 125.003L356.499 126.352L357.02 126.73L357.542 127.109L358.178 127.261L358.813 127.413L359.273 127.414L359.732 127.415L361.495 127.039L363.258 126.662L365.287 126.574L367.316 126.485L369.732 126.67L372.149 126.854L373.221 126.685L374.293 126.516L375.7 126.68L377.106 126.845L378.132 126.993L379.158 127.142L380.526 127.52L381.893 127.898L382.609 128.108L383.324 128.317L384.404 128.919L385.483 129.521L385.989 129.673L386.495 129.825L387.657 130.403L388.82 130.981L389.075 131.296L389.33 131.61V131.861V132.113L388.715 132.55L388.1 132.988L387.188 133.235L386.276 133.483L385.453 133.384L384.629 133.286L383.689 133.089L382.748 132.893L381.637 132.865L380.526 132.838L380.106 132.855L379.687 132.872L380.289 133.425L380.891 133.978L381.647 134.778L382.403 135.578L384.547 137.432L386.69 139.287L387.004 139.861L387.318 140.434L387.41 141.028L387.502 141.621L387.177 141.509L386.851 141.397L386.082 141.191L385.313 140.986L385.282 140.984L385.252 140.982L385.008 141.192L384.765 141.402L383.415 140.733L382.064 140.063L381.466 139.843L380.868 139.624L381.245 139.974L381.622 140.324L381.956 141.501L382.29 142.678L382.75 143.711L383.21 144.743L383.285 145.185L383.361 145.628L383.023 146.094L382.686 146.561L381.556 146.665L380.427 146.77L379.621 146.341L378.816 145.913L378.388 145.238L377.961 144.563L377.715 144.31L377.47 144.057L376.635 143.692L375.8 143.326L374.957 142.804L374.114 142.282L374.114 142.407L374.115 142.531L374.466 143.329L374.817 144.126L375.094 144.582L375.371 145.038L375.572 146.034L375.773 147.029H375.653H375.534L374.826 146.587L374.117 146.144H373.999H373.88L373.461 145.813L373.042 145.481L373.248 145.821L373.454 146.162L372.972 145.947L372.49 145.732L371.931 145.132L371.372 144.532L370.649 144.372L369.926 144.213L369.053 143.917L368.18 143.62L367.659 143.149L367.138 142.679L366.139 141.766L365.139 140.854L364.653 140.696L364.167 140.537L363.541 140.522L362.916 140.507L361.292 140.765L359.668 141.024L354.967 141.039L350.265 141.054L349.239 140.781L348.214 140.509L346.743 140.176L345.273 139.843L344.264 139.519L343.256 139.195L342.207 138.692L341.159 138.188L340.626 137.664L340.092 137.14L339.82 136.592L339.547 136.045L339.236 135.086L338.925 134.127L338.738 132.779L338.551 131.43L338.316 130.854L338.08 130.278L337.545 129.364L337.01 128.45H336.872H336.733L335.293 129.122L333.852 129.793L331.032 131.021L328.211 132.248L326.149 132.997L324.088 133.747L320.422 134.862L316.756 135.977L314.619 136.703L312.482 137.429L311.185 137.734L309.888 138.04L307.509 138.486L305.131 138.933L304.276 139.069L303.421 139.205L301.369 139.356L299.318 139.508L292.479 139.529L285.641 139.549L283.418 139.236L281.196 138.923L279.144 138.612L277.092 138.301L274.887 137.933L272.682 137.566L271.041 137.13L269.399 136.693L266.667 135.853L263.934 135.012L260.551 133.578L257.167 132.143L255.736 131.414L254.306 130.686L252.193 129.694L250.08 128.702L248.652 127.875L247.224 127.048L246.492 126.648L245.145 126.949L244.057 127.122H243.208H242.36L240.578 127.344L238.796 127.566L238.197 127.694L237.599 127.823L236.06 128.295L234.521 128.768L233.752 128.958L232.983 129.147L231.701 129.384L230.418 129.62L228.856 129.762L227.295 129.905L225.865 130.569L224.435 131.232L223.522 131.54L222.61 131.847L221.043 132.213L219.477 132.579L218.28 132.817L217.083 133.055L216.057 133.323L215.032 133.591L213.835 133.746L212.638 133.901L211.185 134.058L209.732 134.215L208.456 134.511L207.179 134.807L206.979 134.951L206.778 135.095L206.659 135.938L206.539 136.782L206.316 137.619L206.092 138.455L205.997 138.589L205.901 138.723L205.79 141.365L205.68 144.008L205.44 145.013L205.201 146.018V147.483V148.949H204.859H204.517V149.382V149.816L204.345 149.908L204.172 150L203.857 149.914L203.541 149.827L203.217 149.277L202.893 148.727L202.537 148.426L202.182 148.124L201.982 147.439L201.782 146.753V146.229V145.704H201.611H201.44L201.436 146.183L201.432 146.663L201.21 147.4L200.988 148.137L200.706 148.139L200.423 148.141L199.903 148.751L199.383 149.361L199.134 149.443L198.885 149.526L198.472 148.816L198.058 148.106L197.868 147.34L197.678 146.574V145.713V144.852L197.337 144.504L196.997 144.156L196.525 144.636L196.053 145.117L195.883 145.116L195.711 145.114L194.975 145.852L194.239 146.589H193.992H193.745L193.73 145.52L193.715 144.451L193.732 143.934L193.749 143.418L193.9 142.312L194.05 141.206L194.175 140.874L194.3 140.543H194.129H193.958L193.498 141.063L193.038 141.583L192.671 141.879L192.303 142.174L191.871 142.128L191.439 142.082L191.125 141.926L190.812 141.771L190.406 140.751L190 139.732L190.003 139.434ZM372.636 58.7947L372.697 58.847L373.106 58.7057L373.516 58.5645L373.159 58.5551L372.803 58.5457L372.689 58.6441L372.575 58.7425L372.636 58.7947Z" fill="#3F5A36"/>
<path d="M26.2695 45.4512C24.8047 45.4512 23.9095 46.0046 23.584 47.1113C23.3887 47.7949 23.291 50.8711 23.291 56.3398V65.8125C23.291 67.8307 23.4701 69.084 23.8281 69.5723C24.1862 70.028 25.293 70.2559 27.1484 70.2559H29.1992L29.6387 70.207L32.5684 70.0605C32.8613 70.028 33.138 70.0117 33.3984 70.0117C36.5234 70.0117 39.1439 68.8561 41.2598 66.5449C43.3757 64.2337 44.4336 61.4342 44.4336 58.1465V56.8281C44.4336 53.4753 43.278 50.7572 40.9668 48.6738C38.6882 46.5579 35.8887 45.5 32.5684 45.5L31.6895 45.4023L30.4199 45.3535H27.4902C26.9694 45.4186 26.5625 45.4512 26.2695 45.4512ZM32.1289 75.2852H27.9297C25.4232 75.2852 24.0072 75.627 23.6816 76.3105C23.3887 76.9941 23.2422 79.0612 23.2422 82.5117V96.5254C23.2422 99.5527 23.6003 101.408 24.3164 102.092C25.0651 102.743 27.1159 103.068 30.4688 103.068H33.3496C37.6465 103.068 41.1296 101.945 43.7988 99.6992C46.4681 97.4206 47.8027 94.4258 47.8027 90.7148V88.1758C47.8027 84.1719 46.3379 81.0306 43.4082 78.752C40.4785 76.4408 36.7188 75.2852 32.1289 75.2852ZM31.0059 40.1289C42.5944 40.1289 50.0326 43.1725 53.3203 49.2598C54.4922 51.4082 55.0781 53.8822 55.0781 56.6816C55.0781 59.4486 54.4108 61.89 53.0762 64.0059C51.7741 66.1217 50.6022 67.6029 49.5605 68.4492C48.5514 69.263 47.5098 69.9954 46.4355 70.6465C45.3939 71.265 44.873 71.6719 44.873 71.8672C44.873 72.0625 46.1751 72.8275 48.7793 74.1621C51.416 75.4642 53.4993 77.0104 55.0293 78.8008C57.7637 82.056 59.1309 85.4089 59.1309 88.8594V90.1289C59.1309 95.8581 56.7871 100.415 52.0996 103.801C50.4069 105.038 48.0306 106.128 44.9707 107.072C41.9434 107.984 38.3301 108.439 34.1309 108.439H28.9551L27.6855 108.391C26.8392 108.358 25.9766 108.342 25.0977 108.342L23.8281 108.293C22.9818 108.26 22.1354 108.244 21.2891 108.244L20.0195 108.195C19.1732 108.163 18.3268 108.146 17.4805 108.146H13.7207C8.05664 108.146 5.22461 107.609 5.22461 106.535C5.22461 105.428 6.08724 104.403 7.8125 103.459C9.57031 102.482 10.7096 100.839 11.2305 98.5273C11.7839 96.1836 12.0605 90.7474 12.0605 82.2188V66.1543L11.9629 61.0762C11.9303 60.2298 11.9141 58.2116 11.9141 55.0215C11.9141 51.8314 11.6048 49.6016 10.9863 48.332C10.4004 47.0299 9.21224 45.9557 7.42188 45.1094C5.63151 44.263 4.73633 43.5143 4.73633 42.8633C4.73633 41.9193 5.19206 41.2845 6.10352 40.959C7.01497 40.6009 9.81445 40.4219 14.502 40.4219L25.8301 40.1289H31.0059ZM74.4434 82.8535V84.6602C74.4434 90.194 75.5176 94.7839 77.666 98.4297C78.6751 100.155 79.9609 101.522 81.5234 102.531C83.0859 103.54 84.6647 104.045 86.2598 104.045H87.2363C90.1986 104.045 92.7539 102.613 94.9023 99.748C97.0833 96.8509 98.1738 92.7493 98.1738 87.4434V83.9766C98.1738 78.7357 97.0833 74.2923 94.9023 70.6465C92.7539 66.9681 90.0195 65.1289 86.6992 65.1289H85.1855C82.1908 65.1289 79.6517 66.7402 77.5684 69.9629C75.485 73.1855 74.4434 77.4824 74.4434 82.8535ZM109.941 83.0488V85.4902C109.941 88.0618 109.421 90.8776 108.379 93.9375C106.198 100.318 101.852 104.777 95.3418 107.316C92.5098 108.423 89.7754 108.977 87.1387 108.977H85.5273C79.3099 108.977 74.1178 106.893 69.9512 102.727C68.0632 100.839 66.5332 98.3483 65.3613 95.2559C64.1895 92.1634 63.6035 88.8757 63.6035 85.3926V84.5625C63.6035 81.4049 64.1569 78.2148 65.2637 74.9922C67.4121 68.7096 71.6276 64.3477 77.9102 61.9062C80.7422 60.7995 83.4603 60.2461 86.0645 60.2461H88.5059C91.403 60.2461 94.2513 60.8971 97.0508 62.1992C102.357 64.6732 106.051 68.612 108.135 74.0156C109.339 77.2057 109.941 80.2168 109.941 83.0488ZM124.229 82.8535V84.6602C124.229 90.194 125.303 94.7839 127.451 98.4297C128.46 100.155 129.746 101.522 131.309 102.531C132.871 103.54 134.45 104.045 136.045 104.045H137.021C139.984 104.045 142.539 102.613 144.688 99.748C146.868 96.8509 147.959 92.7493 147.959 87.4434V83.9766C147.959 78.7357 146.868 74.2923 144.688 70.6465C142.539 66.9681 139.805 65.1289 136.484 65.1289H134.971C131.976 65.1289 129.437 66.7402 127.354 69.9629C125.27 73.1855 124.229 77.4824 124.229 82.8535ZM159.727 83.0488V85.4902C159.727 88.0618 159.206 90.8776 158.164 93.9375C155.983 100.318 151.637 104.777 145.127 107.316C142.295 108.423 139.561 108.977 136.924 108.977H135.312C129.095 108.977 123.903 106.893 119.736 102.727C117.848 100.839 116.318 98.3483 115.146 95.2559C113.975 92.1634 113.389 88.8757 113.389 85.3926V84.5625C113.389 81.4049 113.942 78.2148 115.049 74.9922C117.197 68.7096 121.413 64.3477 127.695 61.9062C130.527 60.7995 133.245 60.2461 135.85 60.2461H138.291C141.188 60.2461 144.036 60.8971 146.836 62.1992C152.142 64.6732 155.837 68.612 157.92 74.0156C159.124 77.2057 159.727 80.2168 159.727 83.0488ZM183.145 87.2969C181.159 87.2969 180.166 90.1615 180.166 95.8906C180.166 97.9089 180.638 99.8783 181.582 101.799L182.9 104.045C183.356 104.859 183.584 105.445 183.584 105.803C183.584 106.975 180.312 107.561 173.77 107.561C167.227 107.561 163.955 107.007 163.955 105.9C163.955 105.607 164.492 104.729 165.566 103.264C166.673 101.766 167.471 100.025 167.959 98.0391C168.48 96.0208 168.74 91.3496 168.74 84.0254L168.789 82.1699C168.854 80.5098 168.887 79.2728 168.887 78.459L168.984 74.748L169.033 70.9883V63.4199C169.033 54.0124 168.854 48.4622 168.496 46.7695C168.171 45.0443 167.568 43.7422 166.689 42.8633L165.615 42.0332L164.443 41.3008C163.499 40.6172 163.027 39.9824 163.027 39.3965C163.027 38.778 163.418 38.2409 164.199 37.7852C166.413 36.5156 169.831 35.8809 174.453 35.8809H176.113C177.969 35.8809 179.124 37.1992 179.58 39.8359C179.743 40.8125 179.824 48.1042 179.824 61.7109L179.775 67.3262C179.775 71.7858 179.792 74.1621 179.824 74.4551C180.182 77.5475 181.029 79.0938 182.363 79.0938C183.698 79.0938 185.993 77.3359 189.248 73.8203C192.503 70.2721 194.131 67.7493 194.131 66.252L193.984 64.4941C193.984 63.3874 194.408 62.6061 195.254 62.1504C196.133 61.6947 197.939 61.4668 200.674 61.4668C206.891 61.4668 210 62.1341 210 63.4688C210 63.5013 207.119 65.8288 201.357 70.4512C195.596 75.0736 192.715 78.3776 192.715 80.3633C192.715 82.349 196.67 87.9642 204.58 97.209C206.305 99.2272 208.193 100.969 210.244 102.434C212.327 103.898 213.369 104.875 213.369 105.363C213.369 106.958 210.96 107.756 206.143 107.756H202.578C199.453 107.756 197.207 106.861 195.84 105.07L193.887 100.334C193.073 98.3809 191.722 96.0697 189.834 93.4004C186.937 89.3314 184.707 87.2969 183.145 87.2969Z" fill="black"/>
<path d="M260.934 45.1582H258.59C255.009 45.1582 253.023 45.8743 252.633 47.3066C252.438 47.9902 252.34 52.8242 252.34 61.8086V80.0703L252.291 82.4629C252.291 83.2767 252.291 84.0905 252.291 84.9043L252.242 87.2969C252.242 88.1107 252.242 88.9245 252.242 89.7383L252.193 92.9121V95.3047C252.193 98.6901 252.665 100.79 253.609 101.604C254.553 102.385 256.848 102.775 260.494 102.775L261.275 102.727C268.079 102.727 273.515 100.48 277.584 95.9883C279.635 93.7422 281.246 90.8125 282.418 87.1992C283.59 83.5534 284.176 79.8587 284.176 76.1152V72.5996C284.176 69.1165 283.655 65.5521 282.613 61.9062C280.465 54.5495 276.217 49.5202 269.869 46.8184C267.298 45.7116 264.319 45.1582 260.934 45.1582ZM259.859 39.8848H262.398C278.707 39.9173 289.433 46.2812 294.576 58.9766C296.269 63.1432 297.115 67.554 297.115 72.209V73.5762C297.115 78.9798 296.22 83.8301 294.43 88.127C290.914 96.5254 284.729 102.434 275.875 105.852C271.806 107.414 267.314 108.195 262.398 108.195H258.736L257.516 108.146L255.025 108.098C254.212 108.065 253.382 108.049 252.535 108.049L245.357 107.902C238.066 107.902 234.42 107.365 234.42 106.291C234.42 105.217 235.12 104.322 236.52 103.605C238.928 102.368 240.312 101.392 240.67 100.676C241.451 99.1784 241.842 95.7604 241.842 90.4219V67.2773L241.744 61.0762L241.646 56.1445C241.646 51.7826 241.256 49.0156 240.475 47.8438C239.726 46.6719 238.505 45.7441 236.812 45.0605C235.152 44.3444 234.322 43.4655 234.322 42.4238C234.322 41.1868 236.812 40.5684 241.793 40.5684L246.48 40.4707L247.652 40.373L248.824 40.3242C255.855 40.0312 259.534 39.8848 259.859 39.8848ZM323.805 45.4512C322.34 45.4512 321.445 46.0046 321.119 47.1113C320.924 47.7949 320.826 50.8711 320.826 56.3398V65.8125C320.826 67.8307 321.005 69.084 321.363 69.5723C321.721 70.028 322.828 70.2559 324.684 70.2559H326.734L327.174 70.207L330.104 70.0605C330.396 70.028 330.673 70.0117 330.934 70.0117C334.059 70.0117 336.679 68.8561 338.795 66.5449C340.911 64.2337 341.969 61.4342 341.969 58.1465V56.8281C341.969 53.4753 340.813 50.7572 338.502 48.6738C336.223 46.5579 333.424 45.5 330.104 45.5L329.225 45.4023L327.955 45.3535H325.025C324.505 45.4186 324.098 45.4512 323.805 45.4512ZM329.664 75.2852H325.465C322.958 75.2852 321.542 75.627 321.217 76.3105C320.924 76.9941 320.777 79.0612 320.777 82.5117V96.5254C320.777 99.5527 321.135 101.408 321.852 102.092C322.6 102.743 324.651 103.068 328.004 103.068H330.885C335.182 103.068 338.665 101.945 341.334 99.6992C344.003 97.4206 345.338 94.4258 345.338 90.7148V88.1758C345.338 84.1719 343.873 81.0306 340.943 78.752C338.014 76.4408 334.254 75.2852 329.664 75.2852ZM328.541 40.1289C340.13 40.1289 347.568 43.1725 350.855 49.2598C352.027 51.4082 352.613 53.8822 352.613 56.6816C352.613 59.4486 351.946 61.89 350.611 64.0059C349.309 66.1217 348.137 67.6029 347.096 68.4492C346.087 69.263 345.045 69.9954 343.971 70.6465C342.929 71.265 342.408 71.6719 342.408 71.8672C342.408 72.0625 343.71 72.8275 346.314 74.1621C348.951 75.4642 351.035 77.0104 352.564 78.8008C355.299 82.056 356.666 85.4089 356.666 88.8594V90.1289C356.666 95.8581 354.322 100.415 349.635 103.801C347.942 105.038 345.566 106.128 342.506 107.072C339.479 107.984 335.865 108.439 331.666 108.439H326.49L325.221 108.391C324.374 108.358 323.512 108.342 322.633 108.342L321.363 108.293C320.517 108.26 319.671 108.244 318.824 108.244L317.555 108.195C316.708 108.163 315.862 108.146 315.016 108.146H311.256C305.592 108.146 302.76 107.609 302.76 106.535C302.76 105.428 303.622 104.403 305.348 103.459C307.105 102.482 308.245 100.839 308.766 98.5273C309.319 96.1836 309.596 90.7474 309.596 82.2188V66.1543L309.498 61.0762C309.465 60.2298 309.449 58.2116 309.449 55.0215C309.449 51.8314 309.14 49.6016 308.521 48.332C307.936 47.0299 306.747 45.9557 304.957 45.1094C303.167 44.263 302.271 43.5143 302.271 42.8633C302.271 41.9193 302.727 41.2845 303.639 40.959C304.55 40.6009 307.35 40.4219 312.037 40.4219L323.365 40.1289H328.541Z" fill="#FAFAFA"/>
</svg>
