<svg width="370" height="141" viewBox="0 0 370 141" fill="none" xmlns="http://www.w3.org/2000/svg">
<path d="M175.003 131.068L175.004 130.79L175.293 129.82L175.582 128.85L175.674 128.295L175.766 127.741L176.28 126.354L176.793 124.968L177.207 123.651L177.62 122.334L178.379 120.047L179.138 117.76L179.368 117.216L179.599 116.672L180.108 115.955L180.616 115.238L181.458 114.627L182.299 114.017L182.622 113.74L182.946 113.463L183.301 113.159L183.656 112.855L185.063 112.561L186.47 112.267L188.545 112.28L190.619 112.292L192.027 111.995L193.434 111.699L194.842 111.354L196.249 111.009L198.117 110.612L199.985 110.215L200.391 110.07L200.797 109.926L202.145 109.571L203.493 109.217L203.872 108.966L204.251 108.716L205.35 108.2L206.45 107.683L208.203 106.445L209.955 105.207V105.028V104.849L208.574 102.711L207.193 100.572L206.722 99.8635L206.251 99.1551V99.0763V98.9976L205.7 98.1213L205.149 97.2449L205.039 97.1706L204.929 97.0964L204.688 96.5577L204.448 96.019L202.885 93.7208L201.323 91.4226L200.479 90.175L199.636 88.9274L199.225 88.2569L198.815 87.5864L197.63 85.9972L196.446 84.408L195.642 83.4101L194.839 82.4121L194.229 81.2456L193.618 80.079L193.518 79.2785L193.417 78.478L193.594 78.1578L193.772 77.8376L193.848 75.0651L193.924 72.2927L194.174 71.2574L194.423 70.2221L195.014 68.7622L195.605 67.3023L196.47 65.6388L197.335 63.9753L198.074 61.896L198.812 59.8166L199.557 57.8759L200.302 55.9352L200.962 54.2024L201.623 52.4696L202.223 51.1527L202.824 49.8358L203.452 48.1723L204.08 46.5089L204.189 44.2909L204.299 42.0729L204.459 41.2308L204.619 40.3887L204.898 39.6367L205.177 38.8847L205.595 38.0529L206.014 37.2212L206.458 36.528L206.903 35.8349L207.614 35.0051L207.903 34.3086L207.826 33.9727L207.732 33.6966L207.097 32.9637L206.461 32.2307L203.874 30.9381L201.287 29.6455L200.25 28.9165L199.212 28.1876L198.912 28.0377L198.612 27.8878L197.509 27.5272L196.406 27.1666L194.92 26.4909L193.434 25.8152L191.359 25.088L189.285 24.3608L188.308 23.9035L187.33 23.4463L186.871 23.0844L186.411 22.7225L186.039 22.0011L185.668 21.2796L185.428 19.965L185.189 18.6504L185.072 18.5095L184.955 18.3686L184.474 16.6358L183.992 14.903L183.794 14.329L183.595 13.755L183.501 13.0121L183.407 12.2692L183.2 11.2295L182.993 10.1899L182.764 9.21952L182.535 8.24915L182.298 7.16545L182.061 6.08175L182.225 5.74457L182.389 5.4074H182.577H182.766L183.143 5.85793L183.519 6.30846L183.958 6.96666L184.396 7.62487L184.521 7.62511L184.647 7.62537L184.317 7.10552L183.987 6.58569L183.868 6.20448L183.75 5.82326H183.785H183.82L184.396 6.655L184.971 7.48673H185.07H185.169L185.254 6.81752L185.339 6.14833L185.195 5.54912L185.051 4.94991L185.129 4.38157L185.207 3.81324L185.284 3.02488L185.361 2.23651L185.45 2.01984L185.539 1.80321L185.634 1.80497L185.729 1.80674L185.889 1.90862L186.048 2.0105L186.407 2.49568L186.766 2.98085H186.989H187.211L187.255 3.68075L187.298 4.38061L187.673 4.78842L188.047 5.19624L188.129 5.57873L188.211 5.96126H188.392H188.574L188.663 4.59542L188.752 3.22961L188.998 2.6542L189.244 2.07877L189.689 1.72842L190.134 1.37804L190.45 1.46986L190.767 1.56166L191.166 1.97512L191.564 2.38861L191.507 3.12478L191.45 3.86093L191.738 4.41918L192.026 4.97742V5.12273V5.26804H192.175H192.323L192.328 5.57993L192.333 5.89184L192.567 5.61459L192.801 5.33735L193.075 4.77424L193.35 4.21113L193.668 3.9425L193.987 3.67387L194.102 3.39349L194.216 3.11308L194.603 3.08307L194.99 3.05306L195.014 3.64067L195.037 4.22825L195.019 4.43618L195.002 4.64411L194.983 7.09164L194.965 9.53917L194.837 10.0707L194.709 10.6021L195.035 10.9354L195.361 11.2687L197.091 12.4826L198.821 13.6966L199.61 13.9722L200.398 14.2479L201.954 14.5482L203.51 14.8485L204.992 15.2101L206.473 15.5717L208.09 16.181L209.706 16.7903L210.292 17.0699L210.877 17.3495L211.713 17.6038L212.548 17.858L213.141 18.089L213.734 18.32L215.437 19.1213L217.141 19.9226L218.105 20.2393L219.068 20.5559L221.237 20.57H222.586L223 20.5L223.621 20.6307L223.809 20.7229L224.55 20.6307L225.809 20.5379L227.069 20.445L228.254 19.6682L229.439 18.8914L231.126 18.0241L232.812 17.1568L233.793 16.4945L234.773 15.8322L236.713 14.8457L238.653 13.8593L239.751 13.5068L240.848 13.1543L242.256 12.8158L243.664 12.4772L244.302 12.4759L244.94 12.4746L244.857 12.6004L244.774 12.7261L245.33 12.5862L245.886 12.4464L247.442 12.0256L248.998 11.6049L251.442 10.7959L253.887 9.98685L255.073 9.7137L256.258 9.44055L257.577 9.27812L258.897 9.11568L263.282 9.20078L267.667 9.28589L271.89 9.41195L276.112 9.53803L277.076 9.68386L278.039 9.82971L279.15 10.0469L280.261 10.2641L281.521 10.6217L282.78 10.9794L285.226 11.859L287.671 12.7385L289.497 13.2302L291.323 13.7219L292.237 14.0546L293.152 14.3874L295.523 15.2384L297.893 16.0895L299.079 16.5211L300.264 16.9526L302.022 17.7036L303.781 18.4545L304.106 18.5701L304.431 18.6858L304.371 18.2995L304.31 17.9133L304.961 17.3078L305.612 16.7023L306.198 16.2608L306.783 15.8192L307.261 14.8052L307.739 13.7913L308.335 12.5701L308.932 11.349L309.356 11.1429L309.528 10.7903L309.443 10.6611L309.357 10.5318L309.592 10.4476L309.826 10.3634L309.786 10.1366L309.747 9.90978L309.95 9.95003L309.934 9.94689L310.226 9.7017L310.616 9.1502L311.006 8.59868L310.991 8.33359V8.10776L311.377 7.69188L311.566 7.76976L311.864 7.43174L311.798 7.26912L311.731 7.10651L312.684 6.29029L313.637 5.47406L314.818 4.88629L315.999 4.29854L316.577 3.86749L317.155 3.43646L317.674 3.19003L318.192 2.94358L319.303 2.56703L320.415 2.19047L321.6 2.02131L322.785 1.85217L324.267 1.89861L325.749 1.94504L327.157 2.02856L328.565 2.11207L330.194 1.87463L331.824 1.63716L332.639 1.43921L333.454 1.24127L333.898 1.32161L334.343 1.40213L334.733 1.54214L335.123 1.68216L336.14 1.28065L337.158 0.879134L337.825 0.716878L338.491 0.554608L340.313 0.277311L342.135 0L342.818 0.14337L343.502 0.28674L344.478 0.292034L345.455 0.297342L345.868 0.444416L346.28 0.591491L346.016 0.868007L345.752 1.14452L345.181 1.48381L344.61 1.8231L343.439 2.88099L342.269 3.9389L342.505 4.06232L342.74 4.18591L343.113 4.11953L343.485 4.05313L345.303 4.23019L347.121 4.40724L347.463 4.57833L347.805 4.74943L347.408 5.02003L347.011 5.2906V5.47754V5.66447L347.457 5.96178L347.903 6.25904L347.793 6.42166L347.682 6.58426L347.681 6.71775L347.679 6.85123L347.16 6.9736L346.642 7.09595L345.476 7.5888L344.311 8.08163L343.328 8.09575L342.345 8.10988L341.234 8.00676L340.122 7.90365L339.924 8.0223L339.726 8.14095L340.972 8.77109L342.218 9.40126L343.17 10.0169L344.123 10.6325L345.234 11.155L346.346 11.6775L346.42 11.7674L346.494 11.8573L347.008 12.2532L347.523 12.6492V12.9417V13.2343L346.712 13.4043L345.901 13.5743L344.493 13.6008L343.086 13.6273L342.089 13.1905L341.092 12.7537H340.786H340.481L339.931 12.4919L339.382 12.2302L338.793 12.0789L338.205 11.9275L338.074 12.0504L337.942 12.1733L338.537 12.7754L339.132 13.3775L339.725 13.7934L340.319 14.2093L340.491 14.4663L340.663 14.7234L340.504 14.6314L340.345 14.5395V14.6744V14.8092L340.782 15.6183L341.219 16.4273L341.264 16.8432L341.308 17.2591L340.959 17.3053L340.609 17.3516L340.218 17.0209L339.826 16.6903L338.937 16.3653L338.048 16.0403L336.048 15.1337L334.048 14.2271L333.442 14.2148L332.837 14.2024L332.357 13.8244L331.876 13.4464H331.767H331.657L331.112 12.9934L330.568 12.5403L330.051 12.2799L329.534 12.0194L328.566 12.3168L327.598 12.6141L326.704 12.9539L325.811 13.2936L325.076 13.7981L324.341 14.3027L324.378 14.5066L324.17 14.5251L324.12 14.6353L323.009 15.4218L321.898 16.2083L321.297 16.7378L320.695 17.2674L320.161 18.5105L319.627 19.7536L319.166 20.7103L318.704 21.6671L318.19 22.3231L317.675 22.979V23.0965V23.2139L317.121 24.5233L316.567 25.8326L316.008 26.0508L315.449 26.269L315.488 26.4316L315.527 26.5942L316.712 27.7555L317.897 28.9167L318.598 29.7414L319.299 30.5661L320.029 31.4335L320.758 32.3009L321.905 33.9287L323.052 35.5565L325.075 38.3983L327.098 41.2401L328.022 43.0422L328.946 44.8443L329.447 45.7453L329.948 46.6464L330.547 48.0554L331.146 49.4645L331.958 51.7289L332.77 53.9934L332.87 54.5132L332.969 55.033L332.99 55.0329L333.01 55.0329L334.621 54.5443L336.231 54.0558L337.351 53.5717L338.471 53.0875L338.954 52.7433L339.436 52.3992H339.608H339.781L340.248 52.0956L340.715 51.792L342.567 50.4126L344.419 49.0332L345.353 48.1863L346.287 47.3395L346.193 47.6167L346.1 47.8939L346.495 47.4781L346.891 47.0622L347.324 46.221L347.756 45.3799L348.26 43.2406L348.099 42.5109L348.027 42.4438L348.465 41.1489L348.903 39.8541L349.13 38.8144L349.357 37.7748L349.532 36.8737L349.707 35.9727L349.866 35.5568L350.024 35.1409L350.598 34.048L351.171 32.9551L351.462 32.609L351.753 32.263L351.908 31.6919L352.063 31.1209L352.205 30.809L352.347 30.4971L352.491 30.1852L352.636 29.8733L353.3 27.9721L353.965 26.0709L354.268 25.5149L354.571 24.9589L355.496 23.9969L356.421 23.0348L357.232 21.7728L358.042 20.5108L358.688 19.8204L359.333 19.13H359.601H359.869L360.366 18.9347C360.684 18.7453 360.811 18.7599 361.108 18.8629L361.355 18.9863L362.09 19.8553L362.825 20.7243L363.975 22.5957L365.125 24.4671L365.721 25.4375L366.317 26.4079L366.72 26.9623L367.123 27.5168L367.44 28.1018L367.757 28.6867L367.987 29.488L368.217 30.2893L368.35 31.5369L368.483 32.7845L368.865 34.24L369.247 35.6956L369.392 37.2204L369.537 38.7453L369.688 39.5077L369.838 40.2701L369.919 43.0426L370 45.815L369.767 48.852L369.534 51.889V54.2176V56.5462L369.078 58.5962L368.623 60.6463L368.096 61.9639L367.57 63.2814L366.684 64.9449L365.797 66.6084L364.745 67.9946L363.694 69.3809L361.463 71.4602L359.232 73.5396L356.864 75.2842L354.495 77.0289L352.865 78.037L351.235 79.045L350.42 79.697L349.605 80.3489L347.605 81.7342L345.605 83.1196L344.642 83.7247L343.679 84.3297L342.197 85.3939L340.715 86.4582L338.843 87.6924L336.971 88.9267L334.991 90.3467L333.01 91.7668L331.751 92.7322L330.492 93.6976L329.883 93.9923L329.274 94.2871L328.481 95.8923L327.687 97.4976L326.793 98.8971L325.898 100.297L325.167 101.266L324.435 102.234L323.619 103.135L322.803 104.037L320.705 106.047L318.608 108.057L318.348 108.68L318.087 109.304L317.883 109.928L317.678 110.552L317.677 110.875L317.675 111.198L317.249 112.123L316.823 113.047L316.734 114.096L316.646 115.145L316.954 115.69L317.263 116.235L318.281 117.503L319.299 118.771L319.751 119.126L320.203 119.482L320.754 119.625L321.305 119.769L321.703 119.769L322.101 119.77L323.629 119.416L325.157 119.062L326.916 118.979L328.674 118.896L330.768 119.069L332.862 119.243L333.792 119.084L334.721 118.925L335.94 119.08L337.159 119.234L338.048 119.374L338.937 119.513L340.122 119.869L341.308 120.224L341.928 120.421L342.548 120.618L343.483 121.184L344.419 121.749L344.857 121.892L345.296 122.035L346.303 122.579L347.31 123.122L347.532 123.418L347.753 123.713V123.95V124.186L347.22 124.597L346.686 125.009L345.896 125.241L345.106 125.474L344.392 125.381L343.678 125.289L342.863 125.104L342.049 124.919L341.085 124.893L340.122 124.868L339.759 124.883L339.395 124.899L339.917 125.419L340.439 125.939L341.094 126.691L341.749 127.443L343.607 129.186L345.465 130.929L345.737 131.469L346.009 132.008L346.089 132.566L346.169 133.124L345.887 133.019L345.605 132.913L344.938 132.72L344.271 132.526L344.244 132.525L344.218 132.523L344.007 132.721L343.796 132.918L342.626 132.289L341.456 131.659L340.937 131.453L340.419 131.247L340.745 131.576L341.072 131.904L341.362 133.011L341.651 134.118L342.05 135.088L342.448 136.058L342.514 136.474L342.579 136.89L342.287 137.329L341.994 137.767L341.016 137.865L340.037 137.963L339.339 137.561L338.64 137.158L338.27 136.524L337.9 135.889L337.687 135.651L337.474 135.413L336.75 135.07L336.026 134.727L335.296 134.236L334.566 133.745L334.566 133.862L334.566 133.979L334.87 134.729L335.175 135.479L335.415 135.907L335.655 136.336L335.829 137.272L336.003 138.207H335.899H335.796L335.182 137.792L334.568 137.376H334.466H334.363L334 137.064L333.637 136.752L333.815 137.072L333.993 137.392L333.576 137.19L333.158 136.988L332.674 136.424L332.189 135.86L331.562 135.71L330.936 135.56L330.179 135.282L329.422 135.003L328.971 134.56L328.52 134.118L327.653 133.26L326.787 132.403L326.366 132.254L325.944 132.105L325.403 132.091L324.861 132.077L323.453 132.319L322.046 132.562L317.971 132.576L313.896 132.59L313.007 132.334L312.118 132.078L310.844 131.765L309.57 131.452L308.696 131.148L307.821 130.844L306.913 130.37L306.005 129.897L305.542 129.404L305.08 128.911L304.844 128.397L304.608 127.882L304.338 126.981L304.069 126.08L303.907 124.812L303.745 123.544L303.54 123.002L303.336 122.461L302.873 121.602L302.409 120.743H302.289H302.168L300.92 121.374L299.672 122.006L297.227 123.159L294.783 124.313L292.996 125.017L291.209 125.722L288.032 126.77L284.855 127.819L283.003 128.501L281.151 129.183L280.027 129.47L278.903 129.758L276.842 130.177L274.78 130.597L274.039 130.724L273.298 130.852L271.52 130.995L269.742 131.137L263.815 131.157L257.889 131.176L255.962 130.882L254.036 130.588L252.258 130.295L250.48 130.003L248.569 129.657L246.658 129.312L245.235 128.902L243.813 128.492L241.444 127.701L239.076 126.911L236.144 125.563L233.211 124.215L231.971 123.53L230.731 122.844L228.9 121.912L227.07 120.979L225.832 120.202L224.595 119.426L223.96 119.049L222.793 119.332L221.85 119.495H221.114H220.379L218.834 119.704L217.289 119.912L216.771 120.033L216.252 120.153L214.919 120.598L213.585 121.042L212.919 121.22L212.252 121.399L211.14 121.621L210.029 121.843L208.676 121.977L207.322 122.11L206.083 122.734L204.843 123.358L204.052 123.648L203.262 123.937L201.904 124.28L200.546 124.624L199.509 124.848L198.472 125.072L197.583 125.324L196.694 125.575L195.657 125.721L194.62 125.867L193.36 126.014L192.101 126.162L190.995 126.44L189.889 126.719L189.715 126.854L189.541 126.989L189.437 127.782L189.334 128.575L189.14 129.361L188.947 130.148L188.864 130.274L188.781 130.399L188.685 132.884L188.589 135.368L188.382 136.313L188.174 137.257V138.634V140.012H187.878H187.582V140.419V140.827L187.432 140.913L187.282 141L187.009 140.919L186.736 140.838L186.455 140.321L186.174 139.804L185.866 139.52L185.558 139.237L185.384 138.593L185.211 137.948V137.455V136.962H185.063H184.914L184.911 137.412L184.908 137.863L184.715 138.556L184.523 139.249L184.278 139.251L184.034 139.252L183.583 139.826L183.132 140.399L182.916 140.477L182.7 140.554L182.342 139.887L181.984 139.22L181.819 138.5L181.654 137.78V136.97V136.161L181.359 135.834L181.064 135.506L180.655 135.958L180.246 136.41L180.098 136.409L179.95 136.408L179.312 137.101L178.674 137.794H178.46H178.246L178.233 136.789L178.22 135.784L178.235 135.298L178.249 134.813L178.38 133.774L178.51 132.734L178.618 132.422L178.726 132.11H178.578H178.43L178.032 132.599L177.633 133.088L177.315 133.366L176.996 133.643L176.622 133.6L176.247 133.557L175.975 133.411L175.703 133.264L175.352 132.306L175 131.348L175.003 131.068ZM333.285 55.2671L333.337 55.3161L333.692 55.1834L334.047 55.0506L333.738 55.0418L333.43 55.0329L333.331 55.1254L333.232 55.218L333.285 55.2671Z" fill="#3F5A36"/>
<path d="M3.74 109C2.64 109 2.09 108.597 2.09 107.79C2.09 107.13 2.56667 106.69 3.52 106.47L6.05 106.03C7.59 105.737 8.58 105.333 9.02 104.82C9.53333 104.307 9.79 103.28 9.79 101.74V37.06C9.79 35.52 9.53333 34.4933 9.02 33.98C8.58 33.4667 7.59 33.0633 6.05 32.77L3.52 32.33C2.56667 32.11 2.09 31.67 2.09 31.01C2.09 30.2033 2.64 29.8 3.74 29.8H26.07C29.7367 29.8 33 30.57 35.86 32.11C38.72 33.65 40.9567 35.74 42.57 38.38C44.2567 41.02 45.1 44.0267 45.1 47.4C45.1 50.7 44.11 53.78 42.13 56.64C40.2233 59.4267 37.4367 61.7733 33.77 63.68C33.33 63.9 33.11 64.1933 33.11 64.56C33.11 64.9267 33.3667 65.1833 33.88 65.33C38.8667 67.0167 42.7167 69.73 45.43 73.47C48.1433 77.1367 49.5 81.5 49.5 86.56C49.5 90.8867 48.51 94.7733 46.53 98.22C44.55 101.593 41.8 104.233 38.28 106.14C34.8333 108.047 30.91 109 26.51 109H3.74ZM23.43 63.79C27.3167 63.79 30.5433 62.2867 33.11 59.28C35.75 56.2 37.07 52.3867 37.07 47.84C37.07 43.2933 35.8233 39.6267 33.33 36.84C30.8367 33.98 27.5367 32.55 23.43 32.55C19.5433 32.55 17.6 34.0167 17.6 36.95V57.74C17.6 59.8667 18.04 61.4067 18.92 62.36C19.8733 63.3133 21.3767 63.79 23.43 63.79ZM25.08 106.25C29.8467 106.25 33.7333 104.453 36.74 100.86C39.7467 97.1933 41.25 92.3167 41.25 86.23C41.25 80.1433 39.71 75.34 36.63 71.82C33.6233 68.3 29.5533 66.54 24.42 66.54C19.8733 66.54 17.6 68.3367 17.6 71.93V98.66C17.6 103.72 20.0933 106.25 25.08 106.25ZM73.5187 109.99C69.7787 109.99 66.4053 108.743 63.3987 106.25C60.4653 103.683 58.1187 100.2 56.3587 95.8C54.5987 91.4 53.7187 86.4867 53.7187 81.06C53.7187 75.6333 54.5987 70.7567 56.3587 66.43C58.1187 62.1033 60.502 58.6567 63.5087 56.09C66.5153 53.5233 69.852 52.24 73.5187 52.24C77.2587 52.24 80.5953 53.5233 83.5287 56.09C86.5353 58.6567 88.9187 62.1033 90.6787 66.43C92.4387 70.7567 93.3187 75.6333 93.3187 81.06C93.3187 86.4867 92.4387 91.4 90.6787 95.8C88.992 100.2 86.6453 103.683 83.6387 106.25C80.632 108.743 77.2587 109.99 73.5187 109.99ZM73.5187 107.24C81.1453 107.24 84.9587 98.5133 84.9587 81.06C84.9587 63.68 81.1453 54.99 73.5187 54.99C65.892 54.99 62.0787 63.68 62.0787 81.06C62.0787 98.5133 65.892 107.24 73.5187 107.24ZM116.221 109.99C112.481 109.99 109.108 108.743 106.101 106.25C103.168 103.683 100.821 100.2 99.061 95.8C97.301 91.4 96.421 86.4867 96.421 81.06C96.421 75.6333 97.301 70.7567 99.061 66.43C100.821 62.1033 103.204 58.6567 106.211 56.09C109.218 53.5233 112.554 52.24 116.221 52.24C119.961 52.24 123.298 53.5233 126.231 56.09C129.238 58.6567 131.621 62.1033 133.381 66.43C135.141 70.7567 136.021 75.6333 136.021 81.06C136.021 86.4867 135.141 91.4 133.381 95.8C131.694 100.2 129.348 103.683 126.341 106.25C123.334 108.743 119.961 109.99 116.221 109.99ZM116.221 107.24C123.848 107.24 127.661 98.5133 127.661 81.06C127.661 63.68 123.848 54.99 116.221 54.99C108.594 54.99 104.781 63.68 104.781 81.06C104.781 98.5133 108.594 107.24 116.221 107.24ZM139.563 109C138.683 109 138.243 108.597 138.243 107.79C138.243 107.057 138.647 106.617 139.453 106.47L140.993 106.25C142.533 106.03 143.523 105.59 143.963 104.93C144.477 104.27 144.733 103.17 144.733 101.63V38.6C144.733 37.28 144.513 36.4 144.073 35.96C143.707 35.4467 143.01 35.1167 141.983 34.97L139.673 34.64C138.867 34.4933 138.463 34.0533 138.463 33.32C138.463 32.5867 138.867 32.1467 139.673 32C141.727 31.56 143.45 31.0467 144.843 30.46C146.237 29.8733 147.41 29.2867 148.363 28.7C149.537 27.9667 150.417 27.6 151.003 27.6C151.81 27.6 152.213 28.1867 152.213 29.36V75.45C152.213 76.1833 152.507 76.66 153.093 76.88C153.753 77.0267 154.377 76.77 154.963 76.11L167.833 62.25C169.373 60.5633 169.997 59.17 169.703 58.07C169.483 56.8967 168.64 56.1633 167.173 55.87L164.643 55.43C163.69 55.21 163.213 54.7333 163.213 54C163.213 53.2667 163.727 52.9 164.753 52.9H183.673C184.7 52.9 185.213 53.3033 185.213 54.11C185.213 54.9167 184.737 55.3567 183.783 55.43L182.793 55.54C181.107 55.6867 179.42 56.3467 177.733 57.52C176.047 58.62 174.03 60.38 171.683 62.8L164.863 70.06C163.323 71.7467 162.957 73.3967 163.763 75.01L177.623 101.63C178.43 103.097 179.31 104.16 180.263 104.82C181.217 105.48 182.39 105.957 183.783 106.25L184.883 106.47C185.763 106.69 186.203 107.13 186.203 107.79C186.203 108.597 185.69 109 184.663 109H165.523C164.497 109 163.983 108.597 163.983 107.79C163.983 107.057 164.46 106.617 165.413 106.47L167.283 106.25C170.07 105.883 170.657 104.087 169.043 100.86L158.593 80.51C158.227 79.7767 157.677 79.3733 156.943 79.3C156.283 79.2267 155.66 79.4833 155.073 80.07L153.863 81.28C153.203 81.94 152.763 82.6 152.543 83.26C152.323 83.92 152.213 84.6533 152.213 85.46V101.63C152.213 103.17 152.433 104.27 152.873 104.93C153.387 105.59 154.413 105.993 155.953 106.14L158.923 106.47C159.73 106.617 160.133 107.057 160.133 107.79C160.133 108.597 159.693 109 158.813 109H139.563Z" fill="black"/>
<path d="M216.74 109C215.64 109 215.09 108.597 215.09 107.79C215.09 107.13 215.567 106.69 216.52 106.47L219.05 106.03C221.543 105.59 222.79 104.16 222.79 101.74V37.06C222.79 35.52 222.533 34.4933 222.02 33.98C221.58 33.4667 220.59 33.0633 219.05 32.77L216.52 32.33C215.567 32.11 215.09 31.67 215.09 31.01C215.09 30.2033 215.64 29.8 216.74 29.8H238.96C244.68 29.8 249.63 31.4867 253.81 34.86C257.99 38.16 261.217 42.8167 263.49 48.83C265.763 54.8433 266.9 61.81 266.9 69.73C266.9 77.7233 265.69 84.6533 263.27 90.52C260.923 96.3867 257.587 100.933 253.26 104.16C248.933 107.387 243.8 109 237.86 109H216.74ZM238.3 106.14C244.827 106.14 249.777 103.023 253.15 96.79C256.597 90.5567 258.32 81.5367 258.32 69.73C258.32 57.9967 256.67 48.9033 253.37 42.45C250.143 35.9233 245.34 32.66 238.96 32.66C233.387 32.66 230.6 35.3367 230.6 40.69V98.11C230.6 101.043 231.187 103.133 232.36 104.38C233.607 105.553 235.587 106.14 238.3 106.14ZM271.796 109C270.696 109 270.146 108.597 270.146 107.79C270.146 107.13 270.623 106.69 271.576 106.47L274.106 106.03C275.646 105.737 276.636 105.333 277.076 104.82C277.589 104.307 277.846 103.28 277.846 101.74V37.06C277.846 35.52 277.589 34.4933 277.076 33.98C276.636 33.4667 275.646 33.0633 274.106 32.77L271.576 32.33C270.623 32.11 270.146 31.67 270.146 31.01C270.146 30.2033 270.696 29.8 271.796 29.8H294.126C297.793 29.8 301.056 30.57 303.916 32.11C306.776 33.65 309.013 35.74 310.626 38.38C312.313 41.02 313.156 44.0267 313.156 47.4C313.156 50.7 312.166 53.78 310.186 56.64C308.279 59.4267 305.493 61.7733 301.826 63.68C301.386 63.9 301.166 64.1933 301.166 64.56C301.166 64.9267 301.423 65.1833 301.936 65.33C306.923 67.0167 310.773 69.73 313.486 73.47C316.199 77.1367 317.556 81.5 317.556 86.56C317.556 90.8867 316.566 94.7733 314.586 98.22C312.606 101.593 309.856 104.233 306.336 106.14C302.889 108.047 298.966 109 294.566 109H271.796ZM291.486 63.79C295.373 63.79 298.599 62.2867 301.166 59.28C303.806 56.2 305.126 52.3867 305.126 47.84C305.126 43.2933 303.879 39.6267 301.386 36.84C298.893 33.98 295.593 32.55 291.486 32.55C287.599 32.55 285.656 34.0167 285.656 36.95V57.74C285.656 59.8667 286.096 61.4067 286.976 62.36C287.929 63.3133 289.433 63.79 291.486 63.79ZM293.136 106.25C297.903 106.25 301.789 104.453 304.796 100.86C307.803 97.1933 309.306 92.3167 309.306 86.23C309.306 80.1433 307.766 75.34 304.686 71.82C301.679 68.3 297.609 66.54 292.476 66.54C287.929 66.54 285.656 68.3367 285.656 71.93V98.66C285.656 103.72 288.149 106.25 293.136 106.25Z" fill="#FAFAFA"/>
</svg>
