<svg width="65" height="75" viewBox="0 0 65 75" fill="none" xmlns="http://www.w3.org/2000/svg">
<path d="M27.6113 0.0498047H31.9961C35.0959 0.0498047 37.9077 1.65214 39.751 4.48926C41.5947 7.32712 42.1771 10.9131 41.3359 14.3125V14.3135L39.582 21.4375C39.4365 22.0027 39.4077 22.5997 39.499 23.1797C39.5903 23.7589 39.7991 24.3053 40.1074 24.7754V24.7764C40.7331 25.7648 41.6912 26.2998 42.749 26.2998H55.8066C60.8399 26.2998 64.9501 31.033 64.9502 36.8623C64.9502 40.5978 63.267 43.9194 60.7148 45.7842L60.6826 45.8086L60.6992 45.8447C61.7312 48.1845 61.9711 50.8851 61.373 53.4189C60.775 55.9525 59.3819 58.1365 57.4668 59.5469L57.4336 59.5713L57.4512 59.6084C58.0976 61.0265 58.4531 62.6696 58.4531 64.3877C58.453 70.2169 54.3438 74.9501 49.3105 74.9502H31.1523C27.3904 74.9502 23.6932 74.2758 20.126 72.8906H20.125C17.196 71.7636 14.1689 71.2002 11.1094 71.2002H3.24805C1.4957 71.2 0.0498083 69.5417 0.0498047 67.5V33.75C0.0498047 31.969 1.14212 30.4558 2.67383 30.124L10.5996 28.4736C12.9987 27.9734 15.2272 26.706 17.0312 24.8164C18.7224 23.045 19.9774 20.7935 20.6738 18.291L20.8057 17.7871L24.541 2.75V2.74902C24.9266 1.15432 26.1772 0.0498047 27.6113 0.0498047ZM30.0312 7.4502L26.9775 19.7881C25.9834 23.8209 24.0287 27.4497 21.3359 30.2607C18.6431 33.0717 15.321 34.9518 11.749 35.6885L6.48633 36.7764L6.44629 36.7842V63.7627H11.1094C14.8713 63.7627 18.5685 64.4361 22.1357 65.8213C25.0649 66.9485 28.0926 67.5127 31.1523 67.5127H49.3105C50.8388 67.5126 52.0566 66.0952 52.0566 64.3496C52.0565 62.6042 50.8387 61.1876 49.3105 61.1875H48.7578C47.0055 61.1873 45.5596 59.5291 45.5596 57.4873C45.5597 55.4456 47.0055 53.7873 48.7578 53.7871H52.5586C54.087 53.7871 55.3047 52.3706 55.3047 50.625C55.3047 48.8794 54.087 47.4629 52.5586 47.4629H52.0068C50.2544 47.4629 48.8087 45.8045 48.8086 43.7627C48.8086 41.7208 50.2543 40.0625 52.0068 40.0625H55.8574V39.9854C57.362 39.9546 58.5536 38.5515 58.5537 36.8252C58.5537 35.0796 57.335 33.6621 55.8066 33.6621H42.749C39.6492 33.6621 36.8374 32.0599 34.9941 29.2227C33.1505 26.3847 32.5678 22.7989 33.4092 19.3994L35.1631 12.2744C35.4586 11.0991 35.262 9.88435 34.6367 8.93457C34.011 7.94691 33.0535 7.41211 31.9961 7.41211H30.041L30.0312 7.4502Z" fill="black" stroke="black" stroke-width="0.1"/>
</svg>
