<svg width="646" height="485" viewBox="0 0 646 485" fill="none" xmlns="http://www.w3.org/2000/svg">
<g clip-path="url(#clip0_127_114)">
<path fill-rule="evenodd" clip-rule="evenodd" d="M411.951 399.004C389.581 403.893 367.209 408.782 344.838 413.672C341.689 414.36 338.539 415.048 335.39 415.736C336.327 386.87 337.264 358.003 338.201 329.136C338.336 324.967 338.472 320.798 338.607 316.629C333.423 321.166 327.982 325.516 323.023 330.294C316.674 336.41 310.568 342.742 304.034 348.676C292.792 358.884 280.982 368.784 267.965 376.667C253.821 385.23 237.504 390.74 221.08 392.642C215.031 393.343 209.553 393.172 203.56 392.548C198.345 392.005 193.13 391.461 187.914 390.918C185.815 390.699 183.713 390.48 181.613 390.261C181.105 390.208 179.454 390.327 179.049 389.986C178.313 389.366 177.93 386.552 177.641 385.658C176.434 381.937 175.234 378.214 174.043 374.488C170.804 364.363 167.61 354.222 164.527 344.048C161.886 335.338 159.11 326.591 157.138 317.699C156.907 316.656 156.4 315.292 156.486 314.214C156.61 312.64 155.864 312.971 157.94 312.949C162.819 312.895 167.978 314.081 172.862 314.428C177.891 314.784 182.931 314.997 187.973 315.048C214.672 315.319 245.402 312.426 267.032 295.139C274.283 289.343 281.568 282.643 287.187 275.192C295.111 264.685 299.43 250.696 300.482 237.732C301.665 223.165 299.209 208.14 295.631 194.039C294.906 191.185 295.07 190.117 295.692 187.131C296.208 184.652 296.724 182.173 297.241 179.694C297.384 179.006 297.539 176.114 298.108 175.69C299.104 174.949 303.905 175.763 305.071 175.778L319.538 175.958C328.854 176.075 338.17 176.191 347.487 176.308C352.325 176.368 357.159 177.125 361.967 177.625C372.273 178.696 382.58 179.767 392.887 180.838C394.952 181.053 397.018 181.268 399.084 181.482C397.76 193.212 396.436 204.942 395.112 216.671C394.125 225.418 397.567 234.09 399.402 242.64C403.535 261.903 407.561 281.446 409.093 301.117C410.536 319.639 410.52 338.359 410.991 356.924C411.346 370.95 411.669 384.976 411.951 399.004Z" fill="#F4F2E9"/>
<path fill-rule="evenodd" clip-rule="evenodd" d="M268.118 44.9909C268.118 43.914 268.44 43.16 269.044 42.2676C270.44 43.4803 272.627 49.4941 274.953 45.6116C275.415 44.8395 275.437 41.9635 277.024 42.8609C277.77 43.2821 277.565 45.3119 277.513 45.9999C277.324 48.449 276.212 51.8659 273.053 51.7263C269.828 51.5842 268.031 47.67 268.118 44.9909Z" fill="black"/>
<path fill-rule="evenodd" clip-rule="evenodd" d="M270.064 39.6108C264.701 40.5998 266.842 35.7759 270.769 35.3756C272.225 35.2271 274.737 35.305 274.392 37.4549C274.086 39.3564 271.481 39.3491 270.064 39.6108Z" fill="black"/>
<path fill-rule="evenodd" clip-rule="evenodd" d="M255.207 55.5079C253.518 55.668 250.736 53.2876 253.54 52.9975C254.834 52.8639 257.553 55.2843 255.207 55.5079Z" fill="black"/>
<path fill-rule="evenodd" clip-rule="evenodd" d="M549.627 83.7151C548.335 84.7039 544.464 81.523 543.198 80.961C538.269 78.7715 532.604 77.5607 527.308 76.6167C516.823 74.7484 506.076 73.6963 495.431 73.3613C488.937 73.1564 482.79 73.3834 476.368 74.0757C474.769 74.2477 463.952 76.0528 463.687 73.0875C463.222 67.8809 491.836 68.1281 494.561 68.1369C506.95 68.1793 518.139 69.5544 530.172 72.2535C533.428 72.9838 553.445 80.7915 549.627 83.7151Z" fill="black"/>
<path fill-rule="evenodd" clip-rule="evenodd" d="M207.541 169.741C201.025 171.669 193.591 171.406 187.478 168.301C186.428 167.767 183.876 166.634 185.228 165.302C186.683 163.869 190.757 166.299 192.344 166.611C200.044 168.122 209.808 165.128 215.262 159.512C217.969 156.726 219.497 153.205 220.142 149.412C220.509 147.249 220.698 144.961 220.566 142.768C220.426 140.445 219.476 137.947 220.112 135.635C222.952 137.319 222.986 141.754 223.188 144.618C223.443 148.229 223.421 151.701 222.407 155.22C220.319 162.464 214.716 167.619 207.541 169.741Z" fill="black"/>
<path fill-rule="evenodd" clip-rule="evenodd" d="M91.1248 362.704C91.3318 363.257 91.5267 363.774 91.7543 364.382C92.6326 362.769 92.6326 362.769 91.1248 362.704ZM99.3144 404.853C102.574 406.358 106.204 402.313 107.939 400.06C110.831 396.304 112.118 391.975 113.258 387.452C114.519 382.448 115.976 377.502 117.149 372.475C117.67 370.234 118.169 367.986 118.755 365.76C119.24 363.918 121.048 360.636 120.287 358.723C119 355.489 112.68 354.598 113.111 350.261C113.506 346.274 120.461 350.531 122.131 351.377C125.946 353.31 123.962 350.871 122.119 349.458C120.723 348.386 114.228 343.75 117.628 341.411C119.834 339.892 124.634 344.515 126.463 345.367C128.383 346.261 129.083 346.026 130.639 344.451C131.747 343.329 133.394 341.911 134.25 340.625C136.364 337.445 133.532 331.213 133.096 327.571C132.999 326.76 133.609 322.318 133.043 321.791C132.298 321.1 129.11 321.587 127.939 321.411C123.738 320.779 119.593 320.303 115.386 319.778C112.606 319.43 104.339 317.337 102.702 320.22C101.403 322.506 101.819 326.893 101.819 329.338C101.817 334.482 101.801 339.517 101.314 344.679C100.251 355.95 99.4526 367.215 98.4277 378.487C97.93 383.959 96.9006 389.366 96.3843 394.837C96.0641 398.228 95.5581 403.117 99.3144 404.853ZM162.6 321.612C165.685 329.329 168.238 337.28 170.908 345.146C172.142 348.783 173.281 352.456 174.533 356.086C175.733 359.563 177.663 362.695 178.653 366.252C180.521 372.968 182.093 379.638 184.307 386.239C184.626 387.19 184.438 389.295 185.01 389.967C185.713 390.793 188.824 390.67 189.926 390.809C194.433 391.376 198.986 391.813 203.534 391.623C199.279 386.258 194.506 381.333 189.614 376.535C185.33 372.335 179.543 367.564 178.846 361.162C177.918 352.657 186.793 354.366 192.315 354.881C200.018 355.601 208.749 358.723 216.458 356.992C211.115 349.766 203.016 344.379 196.308 338.497C193.692 336.203 190.94 333.681 189.604 330.381C188.924 328.699 188.586 326.759 189.047 324.973C189.608 322.805 190.853 322.41 192.658 321.385C181.956 321.385 171.133 321.004 160.938 317.329C160.533 319.037 162.026 320.178 162.6 321.612ZM210.445 389.778C212.314 392.319 215.681 391.627 218.452 391.467C222.521 391.232 226.578 390.737 230.572 389.922C234.605 389.098 238.65 387.995 242.496 386.518C243.305 386.207 245.823 385.498 246.12 384.524C246.388 383.643 244.835 381.835 244.497 381.163C243.418 379.014 242.883 375.184 245.32 373.651C247.332 372.385 250.303 373.654 252.333 374.251C255.339 375.137 258.924 376.926 261.977 375.566C265.872 373.829 269.729 371.332 273.391 369.145C266.776 363.133 260.279 357.004 253.495 351.179C247.281 345.842 239.796 339.7 235.912 332.349C234.45 329.58 233.503 325.656 235.296 322.773C236.905 320.187 240.148 320.096 242.882 320.333C251.002 321.037 259.003 323.054 266.992 324.559C269.681 325.066 286.983 329.078 287.029 324.713C287.039 323.771 285.247 321.626 284.788 320.878C283.749 319.18 282.688 317.5 281.564 315.855C278.947 312.023 276.103 308.356 273.281 304.675C271.858 302.817 270.039 298.947 267.314 299.359C266.071 299.547 264.826 300.93 263.824 301.646C262.096 302.88 260.305 304.022 258.467 305.083C251.034 309.369 242.826 311.546 234.556 313.568C232.681 314.026 223.726 314.949 222.847 316.798C222.407 317.722 223.419 319.904 223.445 320.903C223.484 322.408 223.153 323.969 222.326 325.244C219.927 328.942 214.68 328.748 210.816 328.638C205.908 328.499 200.883 328.257 195.997 328.856C200.857 333.354 205.901 337.646 210.975 341.898C214.55 344.895 218.535 347.733 221.345 351.506C223.75 354.734 225.54 360.229 222.468 363.708C219.18 367.431 211.767 365.782 207.597 365.147C202.735 364.407 197.916 363.502 193.096 362.536C191.463 362.21 189.776 361.832 188.107 361.744C186.111 361.64 185.379 361.526 186.762 363.379C190.198 367.981 195.366 371.29 198.984 375.784C200.688 377.901 202.675 379.587 204.466 381.618C206.699 384.149 208.45 387.066 210.445 389.778ZM277.328 364.627C279.677 367.016 282.328 363.619 284.232 362.063C287.086 359.729 289.872 357.313 292.769 355.03C298.255 350.707 303.966 346.697 309.124 341.968C310.75 340.477 313.422 338.808 313.916 336.524C314.546 333.611 313.033 331.006 314.579 328.077C317.51 322.527 323.57 327.067 327.522 323.873C329.552 322.233 330.983 319.852 332.583 317.821C334.488 315.404 336.919 313.058 338.015 310.146C339.156 307.118 339.306 305.669 337.183 303.109C334.895 300.351 332.12 297.832 330.284 294.729C329.02 292.591 327.988 289.448 329.975 287.379C331.58 285.708 334.359 286.158 336.436 286.286C339.46 286.473 342.469 286.756 345.441 287.356C347.791 287.83 352.277 289.071 354.532 287.782C359.852 284.741 350.288 276.907 348.169 274.583C343.436 269.39 338.473 264.413 333.55 259.401C328.998 254.766 324.402 250.126 320.128 245.231C316.947 241.587 313.219 236.443 314.925 231.299C316.308 227.129 320.963 226.997 324.667 227.287C330.093 227.712 335.492 228.601 340.893 229.245C344.92 229.726 352.668 231.238 356.103 228.038C359.654 224.731 352.073 214.905 350.114 211.961C345.974 205.741 341.202 199.968 336.26 194.376C333.859 191.659 331.413 188.985 328.964 186.311C326.839 183.989 324.89 181.064 322.449 179.07C319.778 176.89 315.79 177.146 312.517 176.818C309.075 176.471 305.414 175.962 301.954 175.974C298.802 175.985 299.582 179.02 299.449 181.651C299.416 182.281 298.568 187.872 299.524 187.96C299.629 186.715 299.733 185.47 299.838 184.225C302.528 185.33 304.526 187.707 306.612 189.639C308.694 191.567 311.521 193.53 312.4 196.364C314.879 204.367 304.984 201.528 300.837 200.716C301.77 209.805 304.095 218.64 305.376 227.668C305.913 231.451 305.694 234.876 305.275 238.637C305.037 240.782 305.065 242.946 304.803 245.089C304.596 246.789 303.805 248.733 304.121 250.442C304.699 253.569 308.648 256.852 310.402 259.499C312.73 263.01 314.784 266.814 315.861 270.912C317.806 278.311 314.492 283.63 306.753 284.342C303.261 284.663 299.398 284.124 295.94 283.63C292.967 283.206 289.171 281.002 286.459 282.996C285.349 283.812 284.584 285.257 283.611 286.255C282.199 287.7 280.613 288.99 279.054 290.272C277.584 291.48 273.566 293.628 273.962 295.479C274.26 296.876 276.682 298.869 277.503 299.903C278.58 301.257 279.648 302.618 280.687 304.002C283.325 307.517 285.84 311.146 288.116 314.906C290.87 319.456 294.737 327.585 290.079 332.3C287.381 335.031 282.9 334.55 279.46 334.012C274.77 333.279 270.111 332.336 265.505 331.2C260.893 330.063 256.243 329.271 251.576 328.405C247.589 327.666 242.954 326.254 238.968 327.716C250.612 341.272 264.841 351.924 277.328 364.627ZM345.255 301.924C346.752 300.174 348.286 298.229 349.611 296.337C350.831 294.593 350.732 293.834 348.674 293.291C347.393 292.953 345.97 293.283 344.664 293.13C343.303 292.971 341.946 292.534 340.614 292.234C339.118 291.897 337.439 291.384 335.894 291.388C334.154 291.393 333.983 291.234 334.857 292.8C336.056 294.944 338.378 296.819 340.032 298.606C341.072 299.731 343.562 303.905 345.255 301.924ZM343.33 326.505C344.119 328.238 349.794 326.968 350.707 325.776C352.703 323.169 347.596 317.1 346.255 314.904C344.229 316.247 343.528 318.021 343.407 320.364C343.324 321.986 342.659 325.03 343.33 326.505ZM341.194 412.601C344.585 412.936 349.028 410.98 352.134 409.906C356.435 408.419 360.909 407.358 365.346 406.367C374.261 404.378 383.474 404.101 392.414 402.192C386.733 394.8 379.864 388.431 374.091 381.117C371.997 378.466 368.919 374.665 369.891 371.028C370.843 367.462 374.527 368.25 377.262 369.072C380.931 370.175 384.477 371.71 388.064 373.047C389.76 373.679 397.337 377.318 398.738 374.958C399.683 373.365 394.305 367.433 393.521 366.408C390.591 362.577 387.411 358.947 384.207 355.345C378.229 348.625 371.444 341.749 366.819 333.995C363.354 328.182 362.193 319.007 371.552 319.374C375.417 319.526 379.354 320.724 383.124 321.512C386.607 322.24 391.755 323.849 395.308 322.95C399.051 322.004 394.747 316.418 393.569 314.575C391.08 310.681 388.157 307.042 385.416 303.324C382.466 299.323 379.32 295.409 376.562 291.274C374.846 288.701 372.064 284.213 373.623 280.96C375.412 277.227 381.558 279.535 384.568 280.101C390.268 281.174 395.86 282.96 401.716 282.96C401.657 280.021 398.645 277.438 396.913 275.352C394.312 272.222 391.635 269.19 388.791 266.277C386.792 264.228 384.605 260.89 382.265 259.311C379.871 257.697 378.457 262.802 377.515 264.7C370.656 278.542 363.158 292.112 353.909 304.529C352.047 307.028 349.314 309.047 350.876 312.238C352.502 315.558 354.645 318.462 355.27 322.209C355.731 324.975 355.489 328.822 353.359 330.925C351.294 332.962 348.261 332.5 345.711 333.296C343.003 334.143 343.767 336.544 343.743 338.947C343.701 343.151 343.65 347.352 343.676 351.556C343.698 355.293 343.75 359.028 343.795 362.764C343.841 366.714 344.803 369.514 345.882 373.234C346.443 375.171 346.636 377.173 346.015 379.12C345.482 380.793 344.605 381.114 343.577 382.297C341.574 384.601 342.214 388.98 341.969 391.91C341.792 394.009 338.859 412.371 341.194 412.601ZM349.538 457.518C350.391 458.59 353.451 458.247 354.646 458.326C356.914 458.474 359.187 458.475 361.456 458.598C366.297 458.86 371.075 459.534 375.931 459.62C379.922 459.69 384.057 459.883 387.892 460.156C389.783 460.291 391.906 459.472 393.745 459.856C395.557 460.235 396.248 460.764 398.21 460.607C403.096 460.215 408.095 460.708 412.989 460.828C417.517 460.939 422.083 460.596 426.618 460.536C431.72 460.469 436.833 460.656 441.934 460.708C447.393 460.764 452.965 460.439 458.354 461.476C457.855 459.183 457.889 456.481 456.037 454.767C454.139 453.01 450.994 452.611 448.552 452.324C444.997 451.907 441.471 451.812 437.923 451.66C435.707 451.566 433.573 450.815 431.37 450.564C428.209 450.204 424.808 450.412 421.623 450.361C420.531 450.343 419.805 449.939 418.803 449.786C417.627 449.607 416.477 449.908 415.194 449.594C412.535 448.945 409.822 448.265 407.241 447.398C405.666 446.868 405.731 446.419 404.439 447.648C403.63 448.418 403.133 449.876 402.451 450.782C401.323 452.278 399.304 454.068 397.565 452.267C395.721 450.359 397.696 448.218 397.287 446.238C396.97 444.709 394.066 443.366 392.615 443.943C390.607 444.741 390.012 448.888 387.863 449.358C385.159 449.948 385.889 445.856 386.256 444.333C387.214 440.347 386.871 440.217 383.689 437.563C381.262 435.54 380.584 434.75 377.574 436.262C374.54 437.786 371.227 438.448 367.846 438.813C363.852 439.244 360.126 438.793 356.218 437.994C354.379 437.618 350.794 436.207 349.592 438.138C348.238 440.315 349.631 445.647 349.68 448.167C349.718 450.044 349.831 451.976 349.653 453.85C349.56 454.817 348.85 456.652 349.538 457.518ZM398.53 400.653C401.338 400.409 404.089 399.664 406.888 399.325C407.909 399.202 410.099 399.239 410.943 398.517C411.975 397.634 411.491 397.721 411.281 396.436C410.279 390.331 409.897 384.418 410.045 378.213C410.155 373.57 411.061 366.346 408.295 362.307C405.035 357.549 400.08 354.028 396.773 349.254C394.984 346.672 392.489 339.741 398.151 339.926C400.404 340 402.811 341.428 404.997 341.957C408.093 342.706 408.282 341.954 408.008 339.149C407.365 332.564 407.556 325.951 406.884 319.365C406.194 312.593 405.453 305.817 404.693 299.051C404.323 295.764 404.154 292.284 403.517 289.046C402.896 285.897 399.839 287.591 397.165 287.463C390.082 287.124 383.197 282.78 376.078 283.46C382.013 294.596 392.134 303.055 397.892 314.338C399.882 318.237 401.734 324.337 396.828 326.94C391.359 329.842 383.012 326.165 377.385 325.231C375.415 324.905 367.594 322.618 367.23 325.665C367.034 327.305 370.218 331.141 371.014 332.326C372.827 335.028 374.916 337.534 376.878 340.126C380.796 345.303 385.457 349.809 389.52 354.877C393.064 359.297 397.413 363.628 400.27 368.531C402.951 373.134 403.468 381.427 395.929 380.52C388.211 379.593 381.499 373.571 373.632 373.394C377.652 378.694 382.241 383.519 386.704 388.439C388.852 390.807 390.959 393.207 392.995 395.672C394.298 397.25 396.088 400.865 398.53 400.653ZM409.063 352.623C408.893 350.419 409.426 349.187 407.425 347.98C406.135 347.202 403.089 345.992 401.676 346.528C402.209 347.148 408.318 354.452 408.971 353.864C409.134 353.467 409.164 353.053 409.063 352.623ZM398.413 251.253C398.046 247.014 397.193 242.822 397.009 238.567C396.885 235.691 397.295 231.863 395.347 229.464C392.99 233.875 391.405 238.646 389.05 243.06C388.042 244.948 386.918 246.772 385.875 248.641C385.164 249.918 383.075 252.661 383.24 254.184C383.519 256.784 388.688 260.51 390.361 262.366C393.927 266.322 397.419 270.348 401.062 274.235C400.57 266.532 399.079 258.938 398.413 251.253ZM398.515 182.372C397.531 180.989 390.666 181.643 389.184 181.511C384.521 181.099 379.455 180.731 374.942 179.479C382.106 188.345 388.545 197.944 392.754 208.589C394.352 204.24 395.403 199.712 396.379 195.189C396.875 192.888 397.301 190.578 397.671 188.254C397.838 187.202 399.152 183.268 398.515 182.372ZM376.636 247.256C378.555 248.214 384.375 233.886 384.633 232.298C381.873 232.929 370.884 233.443 370.239 236.926C369.937 238.553 371.815 240.517 372.636 241.694C373.641 243.134 375.048 246.465 376.636 247.256ZM359.198 232.672C355.133 237.765 347.548 236.736 341.875 236.012C338.032 235.521 334.226 234.861 330.395 234.296C326.615 233.738 322.03 232.707 318.363 234.264C324.309 242.623 331.962 249.534 339.188 256.743C342.892 260.439 346.471 264.258 350.033 268.091C353.526 271.852 356.312 276.584 360.017 280.069C363.162 274.324 366.139 268.492 369.171 262.687C370.444 260.249 372.083 258.054 373.39 255.643C374.83 252.988 375.051 251.766 373.214 249.36C370.479 245.778 366.634 240.926 367.183 236.115C367.825 230.497 374.499 229.88 378.868 228.669C381.063 228.06 383.584 227.598 385.591 226.49C388.141 225.08 388.256 222.754 389.1 220.229C390.121 217.173 391.057 215.188 389.979 211.974C389.082 209.299 387.739 206.644 386.499 204.117C383.891 198.803 380.631 193.912 377.174 189.122C374.902 185.974 372.222 179.692 368.158 178.851C365.274 178.255 361.635 178.5 358.677 178.337C355.229 178.146 351.776 178.039 348.326 177.889C341.175 177.58 333.518 176.904 326.402 177.847C334.782 186.908 343.253 195.743 350.707 205.612C355.508 211.968 365.749 224.46 359.198 232.672ZM391.267 164.121C387.382 156.913 383.773 149.786 378.511 143.491C373.96 138.048 369.832 132.368 365.109 127.052C355.2 115.9 342.341 107.658 330.352 98.9929C327.64 97.0318 324.169 95.9631 321.193 94.253C317.51 92.1376 313.564 90.3721 309.578 88.9097C302.348 86.2576 294.046 84.904 286.345 85.4425C277.836 86.037 271.416 89.0442 266.132 95.6826C260.952 102.189 260.15 109.372 260.01 117.55C259.944 121.436 259.895 125.345 259.933 129.231C259.971 133.078 260.47 135.51 262.825 138.473C264.765 140.911 268.85 142.143 271.637 143.27C275.43 144.803 278.979 146.513 282.516 148.575C284.047 149.468 287.682 152.826 289.569 152.47C292.351 151.944 293.032 147.007 293.309 144.816C294.345 136.62 294.234 128.239 293.732 120.003C293.475 115.785 291.514 109.449 292.625 105.181C293.086 103.408 294.14 102.779 295.442 104.345C297.051 106.281 297.447 110.826 297.862 113.162C299.328 121.387 299.231 129.657 299.278 137.974C299.297 141.279 301.142 142.993 302.352 145.938C303.898 149.703 305.164 153.632 305.926 157.633C306.369 159.955 306.681 162.321 306.648 164.69C306.63 165.991 305.989 168.06 306.489 169.296C307.458 171.694 313.478 170.353 315.495 170.308C324.489 170.108 333.457 169.628 342.465 169.513C360.701 169.278 379.066 171.988 396.925 175.428C395.075 171.642 393.268 167.832 391.267 164.121ZM383.43 125.64C384.859 125.874 389.659 128.498 390.488 126.834C391.196 125.412 387.693 120.32 387.17 118.964C385.954 115.814 385.66 112.298 384.944 109.01C384.494 106.939 384.45 102.844 383.33 100.998C382.077 98.9343 379.157 99.9708 377.083 100.033C373.548 100.138 369.976 100.136 366.438 100.124C362.84 100.111 359.244 100.017 355.645 100.028C351.967 100.039 348.334 99.4284 344.684 99.4284C345.093 100.751 346.805 101.396 347.88 102.018C349.536 102.977 350.93 104.117 352.381 105.369C355.783 108.301 359.174 110.645 362.027 114.143C364.604 117.305 368.204 120.687 371.404 123.229C373.117 124.59 374.289 124.481 376.365 124.463C378.848 124.441 381.007 125.244 383.43 125.64ZM392.241 118.594C393.134 121.332 393.218 122.136 396.115 121.942C399.839 121.691 403.573 121.457 407.303 121.187C415.814 120.571 424.331 119.299 432.843 118.87C440.099 118.504 447.935 117.628 455.146 118.384C458.512 118.736 462.099 118.058 465.532 118.192C469.675 118.355 473.857 118.338 477.822 119.613C481.126 120.678 483.886 121.253 486.246 124.005C488.625 126.777 490.249 130.27 491.83 133.532C494.896 139.855 497.295 148.111 502.688 152.9C504.05 154.109 506.376 156.163 508.357 155.935C511.618 155.56 510.618 151.241 510.331 149.05C509.366 141.667 506.468 135.287 504.305 128.236C503.659 126.128 502.378 120.561 505.726 119.785C508.136 119.227 511.921 124.528 513.306 125.952C516.355 129.088 519.339 132.131 522.747 134.891C525.561 137.17 528.389 139.688 532.278 139.199C530.417 134.179 528.364 129.318 525.315 124.889C522.698 121.086 518.288 117.664 516.653 113.29C515.421 109.997 516.512 105.503 520.342 108.401C523.669 110.917 526.549 113.996 529.95 116.467C534.413 119.709 539.478 122.397 544.768 124C546.519 124.53 549.624 125.558 551.302 124.292C553.804 122.405 551.252 118.468 549.847 116.733C536.677 100.466 514.774 94.6326 494.789 93.4063C489.58 93.0866 484.162 93.6 478.932 93.674C473.97 93.7428 469.364 94.3508 464.46 95.0766C454.28 96.5827 444.078 97.8077 433.942 99.3126C431.228 99.7154 428.009 100.513 425.307 100.408C424.194 100.365 423.616 100.067 422.506 100.364C421.559 100.618 420.878 101.126 419.822 101.296C413.815 102.265 407.702 102.643 401.615 102.721C398.687 102.757 395.73 102.702 392.824 102.319C391.113 102.093 389.361 101.381 388.879 103.414C388.515 104.947 389.728 107.852 390.145 109.328C390.996 112.346 391.288 115.671 392.241 118.594ZM283.353 66.0122C284.377 66.0508 286.064 66.2046 286.396 64.9249C287.023 62.5141 283.802 63.9855 283.204 62.4678C282.54 60.7782 284.808 60.3407 285.809 60.0679C287.848 59.5108 287.323 59.6298 287.379 57.5117C287.43 55.5578 288.061 53.7782 288.854 52.0082C289.955 49.5492 290.012 49.6734 287.541 49.3909C283.383 48.9161 282.476 45.243 280.938 41.8826C279.989 39.809 278.938 37.7861 278.347 35.571C277.988 34.2269 278.038 32.0909 276.725 31.3336C274.952 30.3106 270.823 31.3684 268.954 31.6141C265.832 32.0246 262.548 32.4904 259.562 33.5385C257.001 34.4373 256.026 36.5219 253.717 36.8912C252.225 37.1292 243.242 36.5663 244.422 39.3193C245.157 41.0346 248.625 40.0547 249.904 40.0033C251.536 39.9383 253.526 39.6951 255.144 40.0142C256.762 40.334 256.913 40.9394 257.545 42.5498C256.029 42.4745 250.36 41.6272 249.122 42.7422C248.023 43.731 248.834 44.8152 249.94 45.1787C252.096 45.8883 255.011 44.5115 257.274 45.1034C258.885 45.5248 258.773 45.5821 259.436 47.2002C259.782 48.0443 260.176 48.9077 260.323 49.8156C261.155 54.9434 256.454 50.9627 254.499 49.8271C250.923 47.7496 247.047 48.1376 247.741 53.129C247.971 54.7806 248.861 56.2256 250.004 57.4165C251.615 59.0951 252.032 59.4117 252.115 61.9479C252.187 64.1303 251.953 66.4651 252.725 68.5606C253.576 70.8685 255.39 72.8353 256.807 74.8054C258.508 77.1717 260.268 79.5092 261.909 81.918C262.616 82.9558 263.626 85.5679 264.988 85.9141C266.271 86.239 268.26 84.1801 269.322 83.5908C271.897 82.1625 274.726 81.2328 277.373 79.9544C275.154 77.9818 273.18 75.7441 271.008 73.7624C269.311 72.2151 268.433 71.9204 268.993 69.3076C270.248 63.4464 279.064 65.8513 283.353 66.0122ZM250.002 189.18C242.992 195.97 232.569 200.214 223.087 201.923C213.154 203.713 201.828 205.039 192.152 201.578C182.23 198.028 172.954 192.925 164.554 186.575C163.522 185.793 151.953 174.495 151.021 175.386C154.458 180.534 158.064 185.554 161.707 190.556C163.497 193.013 169.687 201.47 166.128 204.53C163.771 206.556 159.761 203.291 157.826 201.982C153.167 198.83 147.977 197.133 142.314 197.133C144.93 201.937 148.908 206.191 151.035 211.265C152.04 213.663 151.528 213.489 149.257 212.838C146.415 212.022 143.192 211.079 140.227 210.945C138.848 210.883 136.048 211.49 135.814 213.291C135.591 215.015 139.249 218.266 140.27 219.5C144.011 224.025 147.825 228.319 152.45 231.968C161.33 238.971 171.87 243.487 182.598 246.841C193.558 250.267 205.272 251.299 216.477 248.541C222.028 247.175 227.12 245.321 232.092 242.554C234.344 241.302 236.711 240.735 238.876 239.263C241.125 237.734 243.404 236.209 245.7 234.753C250.428 231.756 253.359 228.742 256.658 224.238C257.985 222.427 259.806 221.084 261.071 219.3C262.464 217.336 263.897 215.334 265.197 213.266C271.188 203.729 277.058 193.477 280.551 182.726C282.352 177.182 283.575 171.48 285.086 165.856C285.606 163.92 287.525 160.198 287.124 158.232C286.738 156.336 283.738 155.567 282.253 154.762C277.917 152.416 273.566 150.333 269.336 147.838C263.491 144.39 264.526 151.459 264.147 155.541C263.022 167.676 258.946 180.517 250.002 189.18ZM299.438 193.819C300.672 194.876 303.792 195.532 305.369 195.05C303.814 192.732 301.417 191.212 299.401 189.348C299.181 190.629 298.206 192.763 299.438 193.819ZM291.912 276.269C294.751 276.476 297.713 277.329 300.527 277.351C303.038 277.371 306.214 277.576 308.653 277.037C315.383 275.549 311.404 269.458 309.062 265.483C307.767 263.286 306.129 261.319 304.779 259.159C304.453 258.638 303.548 256.513 302.826 256.442C301.763 256.336 301.432 258.08 300.92 259.147C299.533 262.036 298.252 265.021 296.679 267.816C295.096 270.625 292.886 273.146 291.912 276.269ZM219.115 319.031C218.533 315.799 209.079 319.082 206.939 319.467C206.326 319.578 198.918 320.481 198.985 321.125C201.437 321.306 219.839 323.054 219.115 319.031ZM90.5429 391.197C89.0943 391.827 89.1457 387.217 89.0789 386.605C88.9438 385.372 88.7741 383.153 89.4003 382.07C89.8601 381.276 89.9951 381.68 90.242 381.471C92.2642 379.755 89.8221 379.022 89.3676 377.655C89.2274 377.235 89.2145 376.076 89.4235 375.726C90.0202 374.72 90.1861 375.472 90.8953 375.051C91.3711 374.768 92.3362 375.466 92.0571 374.178C91.8269 373.116 91.0142 373.768 90.6072 373.435C89.0596 372.171 89.2171 370.511 89.4653 368.489C89.7006 366.569 89.9276 364.514 90.4928 362.695C90.7827 361.762 91.1782 362.183 91.1467 361.081C91.1299 360.506 90.2561 359.938 90.2272 359.215C90.1925 358.316 91.0258 356.873 91.0727 355.926C91.1344 354.682 91.146 353.601 91.0071 352.425C90.9223 351.704 90.7313 351.442 90.6914 350.566C90.6548 349.739 90.8355 348.772 90.8528 347.911C90.9017 345.467 91.2277 343.01 91.6572 340.673C91.9092 340.306 92.1073 339.912 92.2532 339.49C92.1529 339.052 91.9851 338.642 91.7504 338.258C91.6855 337.141 91.7067 336.049 91.7202 334.916C91.7453 332.813 91.3441 330.817 91.2212 328.744C91.1852 328.129 90.9428 327.102 91.3704 326.533C91.6964 326.099 92.8364 326.206 92.9618 325.789C93.3218 324.596 92.2436 325.308 92.0102 324.704C91.8231 324.219 91.9182 323.582 91.8874 323.095C91.8006 321.777 93.6967 312.825 95.3389 313.989C94.6843 313.525 95.9683 310.443 96.385 309.921C97.9333 307.981 98.8579 310.178 100.114 311.542C101.871 313.452 103.4 312.224 105.683 311.792C108.509 311.26 111.614 311.448 114.479 311.509C117.415 311.573 120.394 311.738 123.319 311.997C126.468 312.276 129.518 313.227 132.699 313.18C137.413 313.109 142.189 313.219 146.9 313.05C147.842 313.016 150.124 313.115 150.519 311.916C150.667 311.466 149.817 310.52 149.689 310.023C149.442 309.07 149.425 307.818 149.845 306.884C151.115 304.067 153.758 306.367 155.619 307.39C158.424 308.932 161.331 310.245 164.428 311.078C176.784 314.402 191.36 314.217 203.976 312.648C216.788 311.054 229.453 307.196 241.944 304.036C253.349 301.151 263.876 294.754 272.63 286.927C281.555 278.948 288.597 267.882 293.005 256.773C297.916 244.396 294.344 231.936 294.219 219.277C294.157 212.964 292.753 206.803 292.368 200.51C291.995 194.407 292.517 188.68 294.348 182.706C294.815 181.184 295.471 179.656 295.811 178.099C296.126 176.657 295.568 175.5 295.753 174.14C296.151 171.23 299.368 171.525 300.774 169.361C302.048 167.402 300.736 164.353 300.284 162.253C299.501 158.605 298.526 155.001 297.629 151.38C296.702 153.536 295.838 155.687 295.278 157.971C295.134 158.557 295.121 159.59 294.721 160.11C294.431 160.486 293.7 160.438 293.471 160.784C292.699 161.954 292.788 163.127 292.654 164.631C292.394 167.549 291.922 170.435 291.442 173.321C289.83 183.021 288.602 192.581 284.792 201.737C277.769 218.61 268.284 234.311 254.256 246.28C247.899 251.703 239.814 255.076 232.119 257.934C222.942 261.343 214.211 263.19 204.358 262.305C195.06 261.471 185.767 258.583 177.25 254.839C168.861 251.151 160.985 247.905 153.822 241.964C146.168 235.615 138.524 227.951 133.26 219.455C131.34 216.356 127.922 209.963 128.759 206.082C129.834 201.105 137.478 204.387 140.239 205.418C137.916 201.616 131.698 194.845 134.789 190.102C139.302 183.181 151.114 190.19 155.95 192.756C153.458 187.685 149.648 183.425 146.948 178.478C145.61 176.026 141.913 166.058 147.345 165.518C148.99 165.354 150.736 167.232 151.898 168.174C154.154 170.002 156.391 171.851 158.628 173.702C163.517 177.748 168.678 181.189 174.309 184.118C185.578 189.981 196.479 193.094 209.278 191.847C220.183 190.786 232.209 187.471 240.689 180.281C245.781 175.964 249.83 171.188 252.446 164.984C255.335 158.132 257.176 150.607 259.197 143.459C256.065 142.652 253.869 143.12 254.474 139.393C255.198 134.926 255.039 130.406 255.065 125.872C255.121 116.474 255.294 106.971 258.234 97.9525C258.757 96.3472 259.218 94.6931 260.12 93.248C261.231 91.4659 262.263 91.2008 260.832 89.2578C258.078 85.5171 255.216 82.3195 253.172 78.021C252.11 75.7852 251.123 73.5951 249.814 71.5054C247.665 68.0787 244.857 65.5644 242.1 62.5958C238.936 59.1891 236.458 55.9753 234.831 51.599C234.071 49.5563 233.035 47.5238 232.642 45.3659C232.174 42.793 232.66 40.1609 232.882 37.5867C233.617 29.047 236.485 22.1557 244.881 18.8191C251.703 16.1072 259.547 14.9395 266.7 17.0363C275.354 19.5738 279.456 27.1677 283.577 34.5165C284.741 36.5888 285.456 38.7815 286.51 40.8847C287.59 43.0407 288.712 43.0439 290.702 43.9189C294.647 45.6522 294.313 50.652 292.6 53.9384C290.424 58.1146 290.864 62.9529 288.989 67.3125C287.067 71.7769 284.086 73.0206 279.54 74.0211C281.273 75.3979 282.853 77.1981 285.063 77.7868C287.745 78.501 290.993 77.8196 293.77 77.8589C299.533 77.9399 305.362 78.721 310.839 80.5637C316.217 82.3729 321.038 85.2681 326.039 87.859C328.325 89.0435 330.456 90.733 333.068 91.0766C335.602 91.4105 338.154 90.7858 340.703 91.1133C346.291 91.8319 352.417 90.9261 358.117 90.8019C364.255 90.6681 370.414 90.7536 376.54 90.3046C379.186 90.1109 381.8 89.8323 384.455 90.0633C386.868 90.2724 388.307 89.7043 390.393 91.3558C391.78 92.4535 392.886 95.1402 394.52 95.5063C396.263 95.8969 399.695 94.8044 401.415 94.5451C407.2 93.6727 413.031 92.5191 418.78 91.4556C421.474 90.9569 424.013 90.0485 426.73 89.5795C429.534 89.095 432.446 88.9374 435.216 88.3139C439.699 87.3051 444.54 86.9293 449.213 86.2847C454.687 85.53 460.316 83.9382 465.834 83.7369C488.927 82.894 514.812 81.523 535.289 94.3276C540.097 97.3342 545.037 101.173 548.741 105.474C552.143 109.425 556.321 114.652 557.189 119.917C557.965 124.616 557.399 132.849 551.115 132.906C544.988 132.962 538.692 129.304 533.419 126.595C535.671 131.993 542.515 143.557 536.574 148.799C530.444 154.21 519.156 142.47 515.107 138.701C515.907 144.47 521.621 165.434 510.809 165.758C500.257 166.075 494.134 153.067 490.375 145.344C488.391 141.267 486.909 136.477 483.687 133.159C480.447 129.823 475.955 129.934 471.57 129.507C460.912 128.471 450.311 128.417 439.591 128.16C426.022 127.836 412.696 130.072 399.11 128.809C399.281 131.429 398.287 136.197 395.632 137.2C391.722 138.678 386.926 136.553 382.923 136.553C383.192 138.155 385.472 139.843 386.433 141.052C388.155 143.219 389.637 145.544 391.022 147.937C393.728 152.612 396.607 157.295 398.528 162.362C399.494 164.911 400.32 167.54 401.016 170.175C401.416 171.69 401.409 173.955 402.22 175.295C403.228 176.96 404.776 175.999 406.052 177.304C407.893 179.187 405.972 180.178 405.392 181.838C404.763 183.634 405.553 186.676 405.313 188.649C404.954 191.614 404.574 194.598 404.082 197.543C403.183 202.926 401.275 207.904 399.999 213.159C398.788 218.143 402.066 223.414 403.148 228.235C404.404 233.832 405.133 239.494 406.423 245.08C407.785 250.977 408.417 257.051 409.356 263.024C410.273 268.861 411.594 274.627 412.49 280.467C414.198 291.598 415.283 302.932 416.629 314.108C417.335 319.966 417.877 325.901 417.93 331.804C417.978 337.332 418.758 342.731 418.872 348.249C418.993 354.097 419.062 359.95 419.314 365.794C419.564 371.574 418.847 377.33 418.585 383.102C418.46 385.853 418.367 388.608 418.409 391.362C418.442 393.687 419.08 396.407 418.503 398.682C417.364 403.179 411.035 405.881 407.062 407.189C402.205 408.79 397.078 409.895 392.105 411.077C389.683 411.653 387.229 412.143 384.766 412.504C383.809 412.645 382.698 412.588 381.804 412.995C380.457 413.608 380.723 413.3 380.651 414.832C380.535 417.309 381.261 420.021 381.638 422.447C381.985 424.682 381.543 428.356 382.406 430.359C383.39 432.637 390.316 434.503 392.011 432.958C393.206 431.868 393.548 429.808 394.956 428.89C396.984 427.567 397.916 429.42 397.906 431.41C397.898 432.91 396.764 434.719 398.128 435.815C399.31 436.765 401.802 436.267 402.944 435.486C404.846 434.182 408.794 426.116 409.76 432.977C409.988 434.593 409.29 436.476 410.661 437.703C411.945 438.852 415.041 438.801 416.661 439.006C419.246 439.334 421.51 439.443 424.119 439.387C427.033 439.325 429.785 440.009 432.648 440.137C437.111 440.337 441.589 440.941 446.152 441.03C450.811 441.12 455.888 442.337 459.47 445.498C463.584 449.127 462.737 453.613 461.953 458.474C461.434 461.688 465.535 465.16 461.396 467.971C459.736 469.099 456.977 468.861 455.068 468.878C451.806 468.908 448.579 468.528 445.313 468.71C421.519 470.035 397.635 469.047 373.847 468.262C368.289 468.08 362.517 468.334 357.007 467.663C354.552 467.363 352.116 466.936 349.656 466.673C347.551 466.449 345.039 466.819 343.029 466.135C338.051 464.443 343.377 459.292 343.774 456.351C344.545 450.641 344.218 444.59 344.256 438.836C344.295 432.72 344.256 426.602 344.256 420.486C341.609 420.67 334.183 422.63 332.108 420.358C330.393 418.48 333.311 414.559 333.455 412.304C334.038 403.112 333.841 393.911 334.534 384.711C335.25 375.224 335.162 365.821 335.46 356.332C335.777 346.196 336.497 336.097 336.497 325.946C329.092 333.785 322.02 342.394 313.787 349.382C310.26 352.375 306.419 354.964 302.736 357.755C298.586 360.9 294.723 364.398 290.597 367.572C282.922 373.477 273.795 376.93 265.687 382.18C257.49 387.488 248.744 391.859 239.307 394.486C228.992 397.358 218.053 398.313 207.379 397.762C202.258 397.498 197.162 396.84 192.119 395.92C190.016 395.536 187.935 395.035 185.832 394.659C182.857 394.125 181.407 394.623 178.621 395.168C174.962 395.884 174.051 390.538 172.965 387.968C170.964 383.227 170.098 378.047 168.327 373.199C165.231 364.719 162.377 356.336 159.638 347.713C159.016 345.757 158.602 342.364 156.269 342.088C154.694 341.902 151.982 343.659 150.439 344.144C147.754 344.987 145.21 345.366 142.414 345.435C140.058 345.493 139.776 346.376 138.303 348.053C136.953 349.59 134.515 350.472 134.973 352.704C135.244 354.025 136.648 355.045 136.91 356.538C137.852 361.896 132.473 357.264 130.583 356.094C129.438 358.619 138.089 361.423 134.936 364.999C133.393 366.75 130.174 364.09 128.638 363.41C125.055 361.824 124.511 366.137 123.556 368.932C121.806 374.063 120.633 379.448 119.292 384.698C117.999 389.757 116.948 394.926 114.908 399.756C113.091 404.06 109.925 406.87 107.665 410.757C106.552 412.669 105.324 414.047 102.919 414.138C101.292 414.2 98.283 413.56 96.7463 412.939C95.2951 412.353 93.7218 410.569 92.7072 409.45C91.2984 407.895 91.5768 406.392 90.4362 404.49C90.4857 405.445 90.6985 406.334 90.7499 407.267C88.668 405.628 90.7435 403.051 90.3654 400.972C90.2465 400.314 89.5682 399.763 89.5296 399.072C89.5129 398.789 90.1173 398.139 90.1578 397.745C90.206 397.278 90.2439 395.922 90.1115 395.576C90.0157 395.327 89.2145 394.059 89.2319 394.289C89.2197 394.121 88.9368 393.856 89.0885 393.303C89.318 392.466 90.649 392.318 90.5429 391.197Z" fill="black"/>
</g>
<defs>
<clipPath id="clip0_127_114">
<rect width="646" height="484.5" fill="white"/>
</clipPath>
</defs>
</svg>
